STARTFONT 2.1
COMMENT
COMMENT Converted from OpenType font "MODE7GX3.TTF" by "otf2bdf 3.0".
COMMENT
FONT -FreeType-ModeSeven-Medium-R-Normal--10-70-100-100-P-38-ISO10646-1
SIZE 7 100 100
FONTBOUNDINGBOX 8 10 0 -2
STARTPROPERTIES 19
FOUNDRY "FreeType"
FAMILY_NAME "ModeSeven"
WEIGHT_NAME "Medium"
SLANT "R"
SETWIDTH_NAME "Normal"
ADD_STYLE_NAME ""
PIXEL_SIZE 10
POINT_SIZE 70
RESOLUTION_X 100
RESOLUTION_Y 100
SPACING "P"
AVERAGE_WIDTH 38
CHARSET_REGISTRY "ISO10646"
CHARSET_ENCODING "1"
FONT_ASCENT 8
FONT_DESCENT 2
COPYRIGHT "This rendition (C) 1998 Andrew C. Bul+hac?k. Freely distributable."
_OTF_FONTFILE "MODE7GX3.TTF"
_OTF_PSNAME "ModeSeven"
ENDPROPERTIES
CHARS 1153
STARTCHAR 0000
ENCODING 0
SWIDTH 822 0
DWIDTH 8 0
BBX 0 0 0 0
BITMAP
ENDCHAR
STARTCHAR 0001
ENCODING 1
SWIDTH 822 0
DWIDTH 8 0
BBX 0 0 0 0
BITMAP
ENDCHAR
STARTCHAR 0002
ENCODING 2
SWIDTH 822 0
DWIDTH 8 0
BBX 0 0 0 0
BITMAP
ENDCHAR
STARTCHAR 0003
ENCODING 3
SWIDTH 822 0
DWIDTH 8 0
BBX 0 0 0 0
BITMAP
ENDCHAR
STARTCHAR 0004
ENCODING 4
SWIDTH 822 0
DWIDTH 8 0
BBX 0 0 0 0
BITMAP
ENDCHAR
STARTCHAR 0005
ENCODING 5
SWIDTH 822 0
DWIDTH 8 0
BBX 0 0 0 0
BITMAP
ENDCHAR
STARTCHAR 0006
ENCODING 6
SWIDTH 822 0
DWIDTH 8 0
BBX 0 0 0 0
BITMAP
ENDCHAR
STARTCHAR 0007
ENCODING 7
SWIDTH 822 0
DWIDTH 8 0
BBX 0 0 0 0
BITMAP
ENDCHAR
STARTCHAR 0008
ENCODING 8
SWIDTH 822 0
DWIDTH 8 0
BBX 0 0 0 0
BITMAP
ENDCHAR
STARTCHAR 0009
ENCODING 9
SWIDTH 822 0
DWIDTH 8 0
BBX 0 0 0 0
BITMAP
ENDCHAR
STARTCHAR 000A
ENCODING 10
SWIDTH 822 0
DWIDTH 8 0
BBX 0 0 0 0
BITMAP
ENDCHAR
STARTCHAR 000B
ENCODING 11
SWIDTH 822 0
DWIDTH 8 0
BBX 0 0 0 0
BITMAP
ENDCHAR
STARTCHAR 000C
ENCODING 12
SWIDTH 822 0
DWIDTH 8 0
BBX 0 0 0 0
BITMAP
ENDCHAR
STARTCHAR 000D
ENCODING 13
SWIDTH 822 0
DWIDTH 8 0
BBX 0 0 0 0
BITMAP
ENDCHAR
STARTCHAR 000E
ENCODING 14
SWIDTH 822 0
DWIDTH 8 0
BBX 0 0 0 0
BITMAP
ENDCHAR
STARTCHAR 000F
ENCODING 15
SWIDTH 822 0
DWIDTH 8 0
BBX 0 0 0 0
BITMAP
ENDCHAR
STARTCHAR 0010
ENCODING 16
SWIDTH 822 0
DWIDTH 8 0
BBX 0 0 0 0
BITMAP
ENDCHAR
STARTCHAR 0011
ENCODING 17
SWIDTH 822 0
DWIDTH 8 0
BBX 0 0 0 0
BITMAP
ENDCHAR
STARTCHAR 0012
ENCODING 18
SWIDTH 822 0
DWIDTH 8 0
BBX 0 0 0 0
BITMAP
ENDCHAR
STARTCHAR 0013
ENCODING 19
SWIDTH 822 0
DWIDTH 8 0
BBX 0 0 0 0
BITMAP
ENDCHAR
STARTCHAR 0014
ENCODING 20
SWIDTH 822 0
DWIDTH 8 0
BBX 0 0 0 0
BITMAP
ENDCHAR
STARTCHAR 0015
ENCODING 21
SWIDTH 822 0
DWIDTH 8 0
BBX 0 0 0 0
BITMAP
ENDCHAR
STARTCHAR 0016
ENCODING 22
SWIDTH 822 0
DWIDTH 8 0
BBX 0 0 0 0
BITMAP
ENDCHAR
STARTCHAR 0017
ENCODING 23
SWIDTH 822 0
DWIDTH 8 0
BBX 0 0 0 0
BITMAP
ENDCHAR
STARTCHAR 0018
ENCODING 24
SWIDTH 822 0
DWIDTH 8 0
BBX 0 0 0 0
BITMAP
ENDCHAR
STARTCHAR 0019
ENCODING 25
SWIDTH 822 0
DWIDTH 8 0
BBX 0 0 0 0
BITMAP
ENDCHAR
STARTCHAR 001A
ENCODING 26
SWIDTH 822 0
DWIDTH 8 0
BBX 0 0 0 0
BITMAP
ENDCHAR
STARTCHAR 001B
ENCODING 27
SWIDTH 822 0
DWIDTH 8 0
BBX 0 0 0 0
BITMAP
ENDCHAR
STARTCHAR 001C
ENCODING 28
SWIDTH 822 0
DWIDTH 8 0
BBX 0 0 0 0
BITMAP
ENDCHAR
STARTCHAR 001D
ENCODING 29
SWIDTH 822 0
DWIDTH 8 0
BBX 0 0 0 0
BITMAP
ENDCHAR
STARTCHAR 001E
ENCODING 30
SWIDTH 822 0
DWIDTH 8 0
BBX 0 0 0 0
BITMAP
ENDCHAR
STARTCHAR 001F
ENCODING 31
SWIDTH 822 0
DWIDTH 8 0
BBX 0 0 0 0
BITMAP
ENDCHAR
STARTCHAR 0020
ENCODING 32
SWIDTH 822 0
DWIDTH 8 0
BBX 0 0 0 0
BITMAP
ENDCHAR
STARTCHAR 0021
ENCODING 33
SWIDTH 822 0
DWIDTH 8 0
BBX 1 7 4 0
BITMAP
80
80
80
80
80
00
80
ENDCHAR
STARTCHAR 0022
ENCODING 34
SWIDTH 822 0
DWIDTH 8 0
BBX 4 3 3 4
BITMAP
B0
B0
B0
ENDCHAR
STARTCHAR 0023
ENCODING 35
SWIDTH 822 0
DWIDTH 8 0
BBX 7 7 1 0
BITMAP
2C
2C
FE
2C
FE
2C
2C
ENDCHAR
STARTCHAR 0024
ENCODING 36
SWIDTH 822 0
DWIDTH 8 0
BBX 7 7 1 0
BITMAP
7C
D6
D0
7C
16
D6
7C
ENDCHAR
STARTCHAR 0025
ENCODING 37
SWIDTH 822 0
DWIDTH 8 0
BBX 7 7 1 0
BITMAP
E0
E6
0C
38
70
CE
0E
ENDCHAR
STARTCHAR 0026
ENCODING 38
SWIDTH 822 0
DWIDTH 8 0
BBX 7 7 1 0
BITMAP
70
F0
F0
70
FE
CC
7E
ENDCHAR
STARTCHAR 0027
ENCODING 39
SWIDTH 822 0
DWIDTH 8 0
BBX 1 3 4 4
BITMAP
80
80
80
ENDCHAR
STARTCHAR 0028
ENCODING 40
SWIDTH 822 0
DWIDTH 8 0
BBX 4 7 3 0
BITMAP
30
E0
C0
80
C0
E0
30
ENDCHAR
STARTCHAR 0029
ENCODING 41
SWIDTH 822 0
DWIDTH 8 0
BBX 4 7 3 0
BITMAP
C0
E0
30
30
30
E0
C0
ENDCHAR
STARTCHAR 002A
ENCODING 42
SWIDTH 822 0
DWIDTH 8 0
BBX 7 7 1 0
BITMAP
10
D6
3C
3C
7C
D6
10
ENDCHAR
STARTCHAR 002B
ENCODING 43
SWIDTH 822 0
DWIDTH 8 0
BBX 7 5 1 1
BITMAP
10
10
FE
10
10
ENDCHAR
STARTCHAR 002C
ENCODING 44
SWIDTH 822 0
DWIDTH 8 0
BBX 2 3 3 -1
BITMAP
40
C0
40
ENDCHAR
STARTCHAR 002D
ENCODING 45
SWIDTH 822 0
DWIDTH 8 0
BBX 4 1 3 3
BITMAP
F0
ENDCHAR
STARTCHAR 002E
ENCODING 46
SWIDTH 822 0
DWIDTH 8 0
BBX 1 1 4 0
BITMAP
80
ENDCHAR
STARTCHAR 002F
ENCODING 47
SWIDTH 822 0
DWIDTH 8 0
BBX 7 5 1 1
BITMAP
06
0C
38
70
C0
ENDCHAR
STARTCHAR 0030
ENCODING 48
SWIDTH 822 0
DWIDTH 8 0
BBX 7 7 1 0
BITMAP
38
6C
C6
C6
C6
3C
10
ENDCHAR
STARTCHAR 0031
ENCODING 49
SWIDTH 822 0
DWIDTH 8 0
BBX 4 7 3 0
BITMAP
40
C0
40
40
40
40
F0
ENDCHAR
STARTCHAR 0032
ENCODING 50
SWIDTH 822 0
DWIDTH 8 0
BBX 7 7 1 0
BITMAP
7C
C6
06
3C
70
C0
FE
ENDCHAR
STARTCHAR 0033
ENCODING 51
SWIDTH 822 0
DWIDTH 8 0
BBX 7 7 1 0
BITMAP
FE
06
0C
1C
06
C6
7C
ENDCHAR
STARTCHAR 0034
ENCODING 52
SWIDTH 822 0
DWIDTH 8 0
BBX 7 7 1 0
BITMAP
0C
3C
7C
CC
FE
0C
0C
ENDCHAR
STARTCHAR 0035
ENCODING 53
SWIDTH 822 0
DWIDTH 8 0
BBX 7 7 1 0
BITMAP
FE
C0
FC
06
06
C6
7C
ENDCHAR
STARTCHAR 0036
ENCODING 54
SWIDTH 822 0
DWIDTH 8 0
BBX 7 7 1 0
BITMAP
3C
70
C0
FC
C6
C6
7C
ENDCHAR
STARTCHAR 0037
ENCODING 55
SWIDTH 822 0
DWIDTH 8 0
BBX 7 7 1 0
BITMAP
FE
06
0C
38
30
20
20
ENDCHAR
STARTCHAR 0038
ENCODING 56
SWIDTH 822 0
DWIDTH 8 0
BBX 7 7 1 0
BITMAP
7C
C6
C6
7C
C6
C6
7C
ENDCHAR
STARTCHAR 0039
ENCODING 57
SWIDTH 822 0
DWIDTH 8 0
BBX 7 7 1 0
BITMAP
7C
C6
C6
7E
06
0C
38
ENDCHAR
STARTCHAR 003A
ENCODING 58
SWIDTH 822 0
DWIDTH 8 0
BBX 1 5 4 0
BITMAP
80
00
00
00
80
ENDCHAR
STARTCHAR 003B
ENCODING 59
SWIDTH 822 0
DWIDTH 8 0
BBX 2 6 3 -1
BITMAP
40
00
00
40
C0
C0
ENDCHAR
STARTCHAR 003C
ENCODING 60
SWIDTH 822 0
DWIDTH 8 0
BBX 6 7 1 0
BITMAP
0C
38
70
C0
70
38
0C
ENDCHAR
STARTCHAR 003D
ENCODING 61
SWIDTH 822 0
DWIDTH 8 0
BBX 7 3 1 2
BITMAP
FE
00
FE
ENDCHAR
STARTCHAR 003E
ENCODING 62
SWIDTH 822 0
DWIDTH 8 0
BBX 5 7 3 0
BITMAP
C0
E0
30
18
30
E0
C0
ENDCHAR
STARTCHAR 003F
ENCODING 63
SWIDTH 822 0
DWIDTH 8 0
BBX 7 7 1 0
BITMAP
7C
C6
0C
10
10
00
10
ENDCHAR
STARTCHAR 0040
ENCODING 64
SWIDTH 822 0
DWIDTH 8 0
BBX 7 7 1 0
BITMAP
7C
C6
DE
D6
DE
C0
7C
ENDCHAR
STARTCHAR 0041
ENCODING 65
SWIDTH 822 0
DWIDTH 8 0
BBX 7 7 1 0
BITMAP
38
6C
C6
C6
FE
C6
C6
ENDCHAR
STARTCHAR 0042
ENCODING 66
SWIDTH 822 0
DWIDTH 8 0
BBX 7 7 1 0
BITMAP
FC
C6
C6
FC
C6
C6
FC
ENDCHAR
STARTCHAR 0043
ENCODING 67
SWIDTH 822 0
DWIDTH 8 0
BBX 7 7 1 0
BITMAP
7C
C6
C0
C0
C0
C6
7C
ENDCHAR
STARTCHAR 0044
ENCODING 68
SWIDTH 822 0
DWIDTH 8 0
BBX 7 7 1 0
BITMAP
FC
C6
C6
C6
C6
C6
FC
ENDCHAR
STARTCHAR 0045
ENCODING 69
SWIDTH 822 0
DWIDTH 8 0
BBX 7 7 1 0
BITMAP
FE
C0
C0
FC
C0
C0
FE
ENDCHAR
STARTCHAR 0046
ENCODING 70
SWIDTH 822 0
DWIDTH 8 0
BBX 7 7 1 0
BITMAP
FE
C0
C0
FC
C0
C0
C0
ENDCHAR
STARTCHAR 0047
ENCODING 71
SWIDTH 822 0
DWIDTH 8 0
BBX 7 7 1 0
BITMAP
7C
C6
C0
C0
CE
E6
7E
ENDCHAR
STARTCHAR 0048
ENCODING 72
SWIDTH 822 0
DWIDTH 8 0
BBX 7 7 1 0
BITMAP
C6
C6
C6
FE
C6
C6
C6
ENDCHAR
STARTCHAR 0049
ENCODING 73
SWIDTH 822 0
DWIDTH 8 0
BBX 4 7 3 0
BITMAP
F0
40
40
40
40
40
F0
ENDCHAR
STARTCHAR 004A
ENCODING 74
SWIDTH 822 0
DWIDTH 8 0
BBX 7 7 1 0
BITMAP
06
06
06
06
06
C6
7C
ENDCHAR
STARTCHAR 004B
ENCODING 75
SWIDTH 822 0
DWIDTH 8 0
BBX 7 7 1 0
BITMAP
C6
CC
F8
F0
F8
CC
C6
ENDCHAR
STARTCHAR 004C
ENCODING 76
SWIDTH 822 0
DWIDTH 8 0
BBX 7 7 1 0
BITMAP
C0
C0
C0
C0
C0
C0
FE
ENDCHAR
STARTCHAR 004D
ENCODING 77
SWIDTH 822 0
DWIDTH 8 0
BBX 7 7 1 0
BITMAP
C6
FE
FE
D6
C6
C6
C6
ENDCHAR
STARTCHAR 004E
ENCODING 78
SWIDTH 822 0
DWIDTH 8 0
BBX 7 7 1 0
BITMAP
C6
C6
F6
FE
CE
C6
C6
ENDCHAR
STARTCHAR 004F
ENCODING 79
SWIDTH 822 0
DWIDTH 8 0
BBX 7 7 1 0
BITMAP
7C
C6
C6
C6
C6
C6
7C
ENDCHAR
STARTCHAR 0050
ENCODING 80
SWIDTH 822 0
DWIDTH 8 0
BBX 7 7 1 0
BITMAP
FC
C6
C6
FC
C0
C0
C0
ENDCHAR
STARTCHAR 0051
ENCODING 81
SWIDTH 822 0
DWIDTH 8 0
BBX 7 7 1 0
BITMAP
7C
C6
C6
C6
DE
CC
7E
ENDCHAR
STARTCHAR 0052
ENCODING 82
SWIDTH 822 0
DWIDTH 8 0
BBX 7 7 1 0
BITMAP
FC
C6
C6
FC
D8
CC
C6
ENDCHAR
STARTCHAR 0053
ENCODING 83
SWIDTH 822 0
DWIDTH 8 0
BBX 7 7 1 0
BITMAP
7C
C6
C0
7C
06
C6
7C
ENDCHAR
STARTCHAR 0054
ENCODING 84
SWIDTH 822 0
DWIDTH 8 0
BBX 7 7 1 0
BITMAP
FE
10
10
10
10
10
10
ENDCHAR
STARTCHAR 0055
ENCODING 85
SWIDTH 822 0
DWIDTH 8 0
BBX 7 7 1 0
BITMAP
C6
C6
C6
C6
C6
C6
7C
ENDCHAR
STARTCHAR 0056
ENCODING 86
SWIDTH 822 0
DWIDTH 8 0
BBX 7 7 1 0
BITMAP
C6
C6
C6
6C
3C
38
10
ENDCHAR
STARTCHAR 0057
ENCODING 87
SWIDTH 822 0
DWIDTH 8 0
BBX 7 7 1 0
BITMAP
C6
C6
C6
D6
D6
FE
2C
ENDCHAR
STARTCHAR 0058
ENCODING 88
SWIDTH 822 0
DWIDTH 8 0
BBX 7 7 1 0
BITMAP
C6
C6
3C
3C
6C
C6
C6
ENDCHAR
STARTCHAR 0059
ENCODING 89
SWIDTH 822 0
DWIDTH 8 0
BBX 7 7 1 0
BITMAP
C6
C6
7C
38
10
10
10
ENDCHAR
STARTCHAR 005A
ENCODING 90
SWIDTH 822 0
DWIDTH 8 0
BBX 7 7 1 0
BITMAP
FE
06
0E
18
60
C0
FE
ENDCHAR
STARTCHAR 005B
ENCODING 91
SWIDTH 822 0
DWIDTH 8 0
BBX 7 5 1 1
BITMAP
30
30
FE
30
30
ENDCHAR
STARTCHAR 005C
ENCODING 92
SWIDTH 822 0
DWIDTH 8 0
BBX 7 5 1 1
BITMAP
C0
30
0C
06
06
ENDCHAR
STARTCHAR 005D
ENCODING 93
SWIDTH 822 0
DWIDTH 8 0
BBX 7 5 1 1
BITMAP
18
0C
FE
0C
18
ENDCHAR
STARTCHAR 005E
ENCODING 94
SWIDTH 822 0
DWIDTH 8 0
BBX 7 5 1 1
BITMAP
10
7C
D6
10
10
ENDCHAR
STARTCHAR 005F
ENCODING 95
SWIDTH 822 0
DWIDTH 8 0
BBX 7 1 1 -1
BITMAP
FE
ENDCHAR
STARTCHAR 0060
ENCODING 96
SWIDTH 822 0
DWIDTH 8 0
BBX 7 2 1 3
BITMAP
FE
FE
ENDCHAR
STARTCHAR 0061
ENCODING 97
SWIDTH 822 0
DWIDTH 8 0
BBX 7 5 1 0
BITMAP
3C
06
7E
C6
7E
ENDCHAR
STARTCHAR 0062
ENCODING 98
SWIDTH 822 0
DWIDTH 8 0
BBX 7 7 1 0
BITMAP
C0
C0
FC
C6
C6
C6
FC
ENDCHAR
STARTCHAR 0063
ENCODING 99
SWIDTH 822 0
DWIDTH 8 0
BBX 7 5 1 0
BITMAP
7E
C0
C0
C0
7E
ENDCHAR
STARTCHAR 0064
ENCODING 100
SWIDTH 822 0
DWIDTH 8 0
BBX 7 7 1 0
BITMAP
06
06
7E
C6
C6
C6
7E
ENDCHAR
STARTCHAR 0065
ENCODING 101
SWIDTH 822 0
DWIDTH 8 0
BBX 7 5 1 0
BITMAP
7C
C6
FE
C0
7C
ENDCHAR
STARTCHAR 0066
ENCODING 102
SWIDTH 822 0
DWIDTH 8 0
BBX 4 7 3 0
BITMAP
30
60
40
F0
40
40
40
ENDCHAR
STARTCHAR 0067
ENCODING 103
SWIDTH 822 0
DWIDTH 8 0
BBX 7 7 1 -2
BITMAP
7E
C6
C6
C6
7E
06
3C
ENDCHAR
STARTCHAR 0068
ENCODING 104
SWIDTH 822 0
DWIDTH 8 0
BBX 7 7 1 0
BITMAP
C0
C0
FC
C6
C6
C6
C6
ENDCHAR
STARTCHAR 0069
ENCODING 105
SWIDTH 822 0
DWIDTH 8 0
BBX 4 7 3 0
BITMAP
40
00
C0
40
40
40
F0
ENDCHAR
STARTCHAR 006A
ENCODING 106
SWIDTH 822 0
DWIDTH 8 0
BBX 2 9 3 -2
BITMAP
40
00
40
40
40
40
40
C0
C0
ENDCHAR
STARTCHAR 006B
ENCODING 107
SWIDTH 822 0
DWIDTH 8 0
BBX 5 7 3 0
BITMAP
80
80
98
E0
E0
B0
98
ENDCHAR
STARTCHAR 006C
ENCODING 108
SWIDTH 822 0
DWIDTH 8 0
BBX 4 7 3 0
BITMAP
C0
40
40
40
40
40
F0
ENDCHAR
STARTCHAR 006D
ENCODING 109
SWIDTH 822 0
DWIDTH 8 0
BBX 7 5 1 0
BITMAP
FC
FE
D6
D6
D6
ENDCHAR
STARTCHAR 006E
ENCODING 110
SWIDTH 822 0
DWIDTH 8 0
BBX 7 5 1 0
BITMAP
FC
C6
C6
C6
C6
ENDCHAR
STARTCHAR 006F
ENCODING 111
SWIDTH 822 0
DWIDTH 8 0
BBX 7 5 1 0
BITMAP
7C
C6
C6
C6
7C
ENDCHAR
STARTCHAR 0070
ENCODING 112
SWIDTH 822 0
DWIDTH 8 0
BBX 7 7 1 -2
BITMAP
FC
C6
C6
C6
FC
C0
C0
ENDCHAR
STARTCHAR 0071
ENCODING 113
SWIDTH 822 0
DWIDTH 8 0
BBX 7 7 1 -2
BITMAP
7E
C6
C6
C6
7E
06
06
ENDCHAR
STARTCHAR 0072
ENCODING 114
SWIDTH 822 0
DWIDTH 8 0
BBX 5 5 3 0
BITMAP
B8
E0
80
80
80
ENDCHAR
STARTCHAR 0073
ENCODING 115
SWIDTH 822 0
DWIDTH 8 0
BBX 7 5 1 0
BITMAP
7E
C0
7C
06
FC
ENDCHAR
STARTCHAR 0074
ENCODING 116
SWIDTH 822 0
DWIDTH 8 0
BBX 4 7 3 0
BITMAP
40
40
F0
40
40
60
30
ENDCHAR
STARTCHAR 0075
ENCODING 117
SWIDTH 822 0
DWIDTH 8 0
BBX 7 5 1 0
BITMAP
C6
C6
C6
C6
7E
ENDCHAR
STARTCHAR 0076
ENCODING 118
SWIDTH 822 0
DWIDTH 8 0
BBX 7 5 1 0
BITMAP
C6
C6
6C
3C
38
ENDCHAR
STARTCHAR 0077
ENCODING 119
SWIDTH 822 0
DWIDTH 8 0
BBX 7 5 1 0
BITMAP
C6
C6
D6
FE
2C
ENDCHAR
STARTCHAR 0078
ENCODING 120
SWIDTH 822 0
DWIDTH 8 0
BBX 7 5 1 0
BITMAP
C6
6C
38
6C
C6
ENDCHAR
STARTCHAR 0079
ENCODING 121
SWIDTH 822 0
DWIDTH 8 0
BBX 7 7 1 -2
BITMAP
C6
C6
C6
C6
7E
06
3C
ENDCHAR
STARTCHAR 007A
ENCODING 122
SWIDTH 822 0
DWIDTH 8 0
BBX 7 5 1 0
BITMAP
FE
0C
38
30
FE
ENDCHAR
STARTCHAR 007B
ENCODING 123
SWIDTH 822 0
DWIDTH 8 0
BBX 4 7 3 0
BITMAP
F0
80
80
80
80
80
F0
ENDCHAR
STARTCHAR 007C
ENCODING 124
SWIDTH 822 0
DWIDTH 8 0
BBX 4 7 3 0
BITMAP
B0
B0
B0
B0
B0
B0
B0
ENDCHAR
STARTCHAR 007D
ENCODING 125
SWIDTH 822 0
DWIDTH 8 0
BBX 4 7 3 0
BITMAP
F0
30
30
30
30
30
F0
ENDCHAR
STARTCHAR 007E
ENCODING 126
SWIDTH 822 0
DWIDTH 8 0
BBX 0 0 0 0
BITMAP
ENDCHAR
STARTCHAR 007F
ENCODING 127
SWIDTH 822 0
DWIDTH 8 0
BBX 0 0 0 0
BITMAP
ENDCHAR
STARTCHAR 0080
ENCODING 128
SWIDTH 822 0
DWIDTH 8 0
BBX 0 0 0 0
BITMAP
ENDCHAR
STARTCHAR 0081
ENCODING 129
SWIDTH 822 0
DWIDTH 8 0
BBX 0 0 0 0
BITMAP
ENDCHAR
STARTCHAR 0082
ENCODING 130
SWIDTH 822 0
DWIDTH 8 0
BBX 0 0 0 0
BITMAP
ENDCHAR
STARTCHAR 0083
ENCODING 131
SWIDTH 822 0
DWIDTH 8 0
BBX 0 0 0 0
BITMAP
ENDCHAR
STARTCHAR 0084
ENCODING 132
SWIDTH 822 0
DWIDTH 8 0
BBX 0 0 0 0
BITMAP
ENDCHAR
STARTCHAR 0085
ENCODING 133
SWIDTH 822 0
DWIDTH 8 0
BBX 0 0 0 0
BITMAP
ENDCHAR
STARTCHAR 0086
ENCODING 134
SWIDTH 822 0
DWIDTH 8 0
BBX 0 0 0 0
BITMAP
ENDCHAR
STARTCHAR 0087
ENCODING 135
SWIDTH 822 0
DWIDTH 8 0
BBX 0 0 0 0
BITMAP
ENDCHAR
STARTCHAR 0088
ENCODING 136
SWIDTH 822 0
DWIDTH 8 0
BBX 0 0 0 0
BITMAP
ENDCHAR
STARTCHAR 0089
ENCODING 137
SWIDTH 822 0
DWIDTH 8 0
BBX 0 0 0 0
BITMAP
ENDCHAR
STARTCHAR 008A
ENCODING 138
SWIDTH 822 0
DWIDTH 8 0
BBX 0 0 0 0
BITMAP
ENDCHAR
STARTCHAR 008B
ENCODING 139
SWIDTH 822 0
DWIDTH 8 0
BBX 0 0 0 0
BITMAP
ENDCHAR
STARTCHAR 008C
ENCODING 140
SWIDTH 822 0
DWIDTH 8 0
BBX 0 0 0 0
BITMAP
ENDCHAR
STARTCHAR 008D
ENCODING 141
SWIDTH 822 0
DWIDTH 8 0
BBX 0 0 0 0
BITMAP
ENDCHAR
STARTCHAR 008E
ENCODING 142
SWIDTH 822 0
DWIDTH 8 0
BBX 0 0 0 0
BITMAP
ENDCHAR
STARTCHAR 008F
ENCODING 143
SWIDTH 822 0
DWIDTH 8 0
BBX 0 0 0 0
BITMAP
ENDCHAR
STARTCHAR 0090
ENCODING 144
SWIDTH 822 0
DWIDTH 8 0
BBX 0 0 0 0
BITMAP
ENDCHAR
STARTCHAR 0091
ENCODING 145
SWIDTH 822 0
DWIDTH 8 0
BBX 0 0 0 0
BITMAP
ENDCHAR
STARTCHAR 0092
ENCODING 146
SWIDTH 822 0
DWIDTH 8 0
BBX 0 0 0 0
BITMAP
ENDCHAR
STARTCHAR 0093
ENCODING 147
SWIDTH 822 0
DWIDTH 8 0
BBX 0 0 0 0
BITMAP
ENDCHAR
STARTCHAR 0094
ENCODING 148
SWIDTH 822 0
DWIDTH 8 0
BBX 0 0 0 0
BITMAP
ENDCHAR
STARTCHAR 0095
ENCODING 149
SWIDTH 822 0
DWIDTH 8 0
BBX 0 0 0 0
BITMAP
ENDCHAR
STARTCHAR 0096
ENCODING 150
SWIDTH 822 0
DWIDTH 8 0
BBX 0 0 0 0
BITMAP
ENDCHAR
STARTCHAR 0097
ENCODING 151
SWIDTH 822 0
DWIDTH 8 0
BBX 0 0 0 0
BITMAP
ENDCHAR
STARTCHAR 0098
ENCODING 152
SWIDTH 822 0
DWIDTH 8 0
BBX 0 0 0 0
BITMAP
ENDCHAR
STARTCHAR 0099
ENCODING 153
SWIDTH 822 0
DWIDTH 8 0
BBX 0 0 0 0
BITMAP
ENDCHAR
STARTCHAR 009A
ENCODING 154
SWIDTH 822 0
DWIDTH 8 0
BBX 0 0 0 0
BITMAP
ENDCHAR
STARTCHAR 009B
ENCODING 155
SWIDTH 822 0
DWIDTH 8 0
BBX 0 0 0 0
BITMAP
ENDCHAR
STARTCHAR 009C
ENCODING 156
SWIDTH 822 0
DWIDTH 8 0
BBX 0 0 0 0
BITMAP
ENDCHAR
STARTCHAR 009D
ENCODING 157
SWIDTH 822 0
DWIDTH 8 0
BBX 0 0 0 0
BITMAP
ENDCHAR
STARTCHAR 009E
ENCODING 158
SWIDTH 822 0
DWIDTH 8 0
BBX 0 0 0 0
BITMAP
ENDCHAR
STARTCHAR 009F
ENCODING 159
SWIDTH 822 0
DWIDTH 8 0
BBX 0 0 0 0
BITMAP
ENDCHAR
STARTCHAR 00A0
ENCODING 160
SWIDTH 822 0
DWIDTH 8 0
BBX 0 0 0 0
BITMAP
ENDCHAR
STARTCHAR 00A1
ENCODING 161
SWIDTH 822 0
DWIDTH 8 0
BBX 0 0 0 0
BITMAP
ENDCHAR
STARTCHAR 00A2
ENCODING 162
SWIDTH 822 0
DWIDTH 8 0
BBX 0 0 0 0
BITMAP
ENDCHAR
STARTCHAR 00A3
ENCODING 163
SWIDTH 822 0
DWIDTH 8 0
BBX 7 7 1 0
BITMAP
3C
20
20
F0
20
20
FE
ENDCHAR
STARTCHAR 00A4
ENCODING 164
SWIDTH 822 0
DWIDTH 8 0
BBX 0 0 0 0
BITMAP
ENDCHAR
STARTCHAR 00A5
ENCODING 165
SWIDTH 822 0
DWIDTH 8 0
BBX 0 0 0 0
BITMAP
ENDCHAR
STARTCHAR 00A6
ENCODING 166
SWIDTH 822 0
DWIDTH 8 0
BBX 0 0 0 0
BITMAP
ENDCHAR
STARTCHAR 00A7
ENCODING 167
SWIDTH 822 0
DWIDTH 8 0
BBX 0 0 0 0
BITMAP
ENDCHAR
STARTCHAR 00A8
ENCODING 168
SWIDTH 822 0
DWIDTH 8 0
BBX 0 0 0 0
BITMAP
ENDCHAR
STARTCHAR 00A9
ENCODING 169
SWIDTH 822 0
DWIDTH 8 0
BBX 0 0 0 0
BITMAP
ENDCHAR
STARTCHAR 00AA
ENCODING 170
SWIDTH 822 0
DWIDTH 8 0
BBX 0 0 0 0
BITMAP
ENDCHAR
STARTCHAR 00AB
ENCODING 171
SWIDTH 822 0
DWIDTH 8 0
BBX 0 0 0 0
BITMAP
ENDCHAR
STARTCHAR 00AC
ENCODING 172
SWIDTH 822 0
DWIDTH 8 0
BBX 0 0 0 0
BITMAP
ENDCHAR
STARTCHAR 00AD
ENCODING 173
SWIDTH 822 0
DWIDTH 8 0
BBX 0 0 0 0
BITMAP
ENDCHAR
STARTCHAR 00AE
ENCODING 174
SWIDTH 822 0
DWIDTH 8 0
BBX 0 0 0 0
BITMAP
ENDCHAR
STARTCHAR 00AF
ENCODING 175
SWIDTH 822 0
DWIDTH 8 0
BBX 0 0 0 0
BITMAP
ENDCHAR
STARTCHAR 00B0
ENCODING 176
SWIDTH 822 0
DWIDTH 8 0
BBX 0 0 0 0
BITMAP
ENDCHAR
STARTCHAR 00B1
ENCODING 177
SWIDTH 822 0
DWIDTH 8 0
BBX 0 0 0 0
BITMAP
ENDCHAR
STARTCHAR 00B2
ENCODING 178
SWIDTH 822 0
DWIDTH 8 0
BBX 0 0 0 0
BITMAP
ENDCHAR
STARTCHAR 00B3
ENCODING 179
SWIDTH 822 0
DWIDTH 8 0
BBX 0 0 0 0
BITMAP
ENDCHAR
STARTCHAR 00B4
ENCODING 180
SWIDTH 822 0
DWIDTH 8 0
BBX 0 0 0 0
BITMAP
ENDCHAR
STARTCHAR 00B5
ENCODING 181
SWIDTH 822 0
DWIDTH 8 0
BBX 0 0 0 0
BITMAP
ENDCHAR
STARTCHAR 00B6
ENCODING 182
SWIDTH 822 0
DWIDTH 8 0
BBX 7 7 1 0
BITMAP
FE
FE
FE
FE
FE
FE
FE
ENDCHAR
STARTCHAR 00B7
ENCODING 183
SWIDTH 822 0
DWIDTH 8 0
BBX 0 0 0 0
BITMAP
ENDCHAR
STARTCHAR 00B8
ENCODING 184
SWIDTH 822 0
DWIDTH 8 0
BBX 0 0 0 0
BITMAP
ENDCHAR
STARTCHAR 00B9
ENCODING 185
SWIDTH 822 0
DWIDTH 8 0
BBX 0 0 0 0
BITMAP
ENDCHAR
STARTCHAR 00BA
ENCODING 186
SWIDTH 822 0
DWIDTH 8 0
BBX 0 0 0 0
BITMAP
ENDCHAR
STARTCHAR 00BB
ENCODING 187
SWIDTH 822 0
DWIDTH 8 0
BBX 0 0 0 0
BITMAP
ENDCHAR
STARTCHAR 00BC
ENCODING 188
SWIDTH 822 0
DWIDTH 8 0
BBX 5 9 3 -2
BITMAP
80
80
80
80
98
38
78
78
18
ENDCHAR
STARTCHAR 00BD
ENCODING 189
SWIDTH 822 0
DWIDTH 8 0
BBX 7 9 1 -2
BITMAP
C0
C0
C0
C0
DC
06
0C
18
1E
ENDCHAR
STARTCHAR 00BE
ENCODING 190
SWIDTH 822 0
DWIDTH 8 0
BBX 7 9 1 -2
BITMAP
F0
30
F0
30
F6
0E
1E
1E
06
ENDCHAR
STARTCHAR 00BF
ENCODING 191
SWIDTH 822 0
DWIDTH 8 0
BBX 0 0 0 0
BITMAP
ENDCHAR
STARTCHAR 00C0
ENCODING 192
SWIDTH 822 0
DWIDTH 8 0
BBX 0 0 0 0
BITMAP
ENDCHAR
STARTCHAR 00C1
ENCODING 193
SWIDTH 822 0
DWIDTH 8 0
BBX 0 0 0 0
BITMAP
ENDCHAR
STARTCHAR 00C2
ENCODING 194
SWIDTH 822 0
DWIDTH 8 0
BBX 0 0 0 0
BITMAP
ENDCHAR
STARTCHAR 00C3
ENCODING 195
SWIDTH 822 0
DWIDTH 8 0
BBX 0 0 0 0
BITMAP
ENDCHAR
STARTCHAR 00C4
ENCODING 196
SWIDTH 822 0
DWIDTH 8 0
BBX 0 0 0 0
BITMAP
ENDCHAR
STARTCHAR 00C5
ENCODING 197
SWIDTH 822 0
DWIDTH 8 0
BBX 0 0 0 0
BITMAP
ENDCHAR
STARTCHAR 00C6
ENCODING 198
SWIDTH 822 0
DWIDTH 8 0
BBX 0 0 0 0
BITMAP
ENDCHAR
STARTCHAR 00C7
ENCODING 199
SWIDTH 822 0
DWIDTH 8 0
BBX 0 0 0 0
BITMAP
ENDCHAR
STARTCHAR 00C8
ENCODING 200
SWIDTH 822 0
DWIDTH 8 0
BBX 0 0 0 0
BITMAP
ENDCHAR
STARTCHAR 00C9
ENCODING 201
SWIDTH 822 0
DWIDTH 8 0
BBX 0 0 0 0
BITMAP
ENDCHAR
STARTCHAR 00CA
ENCODING 202
SWIDTH 822 0
DWIDTH 8 0
BBX 0 0 0 0
BITMAP
ENDCHAR
STARTCHAR 00CB
ENCODING 203
SWIDTH 822 0
DWIDTH 8 0
BBX 0 0 0 0
BITMAP
ENDCHAR
STARTCHAR 00CC
ENCODING 204
SWIDTH 822 0
DWIDTH 8 0
BBX 0 0 0 0
BITMAP
ENDCHAR
STARTCHAR 00CD
ENCODING 205
SWIDTH 822 0
DWIDTH 8 0
BBX 0 0 0 0
BITMAP
ENDCHAR
STARTCHAR 00CE
ENCODING 206
SWIDTH 822 0
DWIDTH 8 0
BBX 0 0 0 0
BITMAP
ENDCHAR
STARTCHAR 00CF
ENCODING 207
SWIDTH 822 0
DWIDTH 8 0
BBX 0 0 0 0
BITMAP
ENDCHAR
STARTCHAR 00D0
ENCODING 208
SWIDTH 822 0
DWIDTH 8 0
BBX 0 0 0 0
BITMAP
ENDCHAR
STARTCHAR 00D1
ENCODING 209
SWIDTH 822 0
DWIDTH 8 0
BBX 0 0 0 0
BITMAP
ENDCHAR
STARTCHAR 00D2
ENCODING 210
SWIDTH 822 0
DWIDTH 8 0
BBX 0 0 0 0
BITMAP
ENDCHAR
STARTCHAR 00D3
ENCODING 211
SWIDTH 822 0
DWIDTH 8 0
BBX 0 0 0 0
BITMAP
ENDCHAR
STARTCHAR 00D4
ENCODING 212
SWIDTH 822 0
DWIDTH 8 0
BBX 0 0 0 0
BITMAP
ENDCHAR
STARTCHAR 00D5
ENCODING 213
SWIDTH 822 0
DWIDTH 8 0
BBX 0 0 0 0
BITMAP
ENDCHAR
STARTCHAR 00D6
ENCODING 214
SWIDTH 822 0
DWIDTH 8 0
BBX 0 0 0 0
BITMAP
ENDCHAR
STARTCHAR 00D7
ENCODING 215
SWIDTH 822 0
DWIDTH 8 0
BBX 0 0 0 0
BITMAP
ENDCHAR
STARTCHAR 00D8
ENCODING 216
SWIDTH 822 0
DWIDTH 8 0
BBX 0 0 0 0
BITMAP
ENDCHAR
STARTCHAR 00D9
ENCODING 217
SWIDTH 822 0
DWIDTH 8 0
BBX 0 0 0 0
BITMAP
ENDCHAR
STARTCHAR 00DA
ENCODING 218
SWIDTH 822 0
DWIDTH 8 0
BBX 0 0 0 0
BITMAP
ENDCHAR
STARTCHAR 00DB
ENCODING 219
SWIDTH 822 0
DWIDTH 8 0
BBX 0 0 0 0
BITMAP
ENDCHAR
STARTCHAR 00DC
ENCODING 220
SWIDTH 822 0
DWIDTH 8 0
BBX 0 0 0 0
BITMAP
ENDCHAR
STARTCHAR 00DD
ENCODING 221
SWIDTH 822 0
DWIDTH 8 0
BBX 0 0 0 0
BITMAP
ENDCHAR
STARTCHAR 00DE
ENCODING 222
SWIDTH 822 0
DWIDTH 8 0
BBX 0 0 0 0
BITMAP
ENDCHAR
STARTCHAR 00DF
ENCODING 223
SWIDTH 822 0
DWIDTH 8 0
BBX 0 0 0 0
BITMAP
ENDCHAR
STARTCHAR 00E0
ENCODING 224
SWIDTH 822 0
DWIDTH 8 0
BBX 0 0 0 0
BITMAP
ENDCHAR
STARTCHAR 00E1
ENCODING 225
SWIDTH 822 0
DWIDTH 8 0
BBX 0 0 0 0
BITMAP
ENDCHAR
STARTCHAR 00E2
ENCODING 226
SWIDTH 822 0
DWIDTH 8 0
BBX 0 0 0 0
BITMAP
ENDCHAR
STARTCHAR 00E3
ENCODING 227
SWIDTH 822 0
DWIDTH 8 0
BBX 0 0 0 0
BITMAP
ENDCHAR
STARTCHAR 00E4
ENCODING 228
SWIDTH 822 0
DWIDTH 8 0
BBX 0 0 0 0
BITMAP
ENDCHAR
STARTCHAR 00E5
ENCODING 229
SWIDTH 822 0
DWIDTH 8 0
BBX 0 0 0 0
BITMAP
ENDCHAR
STARTCHAR 00E6
ENCODING 230
SWIDTH 822 0
DWIDTH 8 0
BBX 0 0 0 0
BITMAP
ENDCHAR
STARTCHAR 00E7
ENCODING 231
SWIDTH 822 0
DWIDTH 8 0
BBX 0 0 0 0
BITMAP
ENDCHAR
STARTCHAR 00E8
ENCODING 232
SWIDTH 822 0
DWIDTH 8 0
BBX 0 0 0 0
BITMAP
ENDCHAR
STARTCHAR 00E9
ENCODING 233
SWIDTH 822 0
DWIDTH 8 0
BBX 0 0 0 0
BITMAP
ENDCHAR
STARTCHAR 00EA
ENCODING 234
SWIDTH 822 0
DWIDTH 8 0
BBX 0 0 0 0
BITMAP
ENDCHAR
STARTCHAR 00EB
ENCODING 235
SWIDTH 822 0
DWIDTH 8 0
BBX 0 0 0 0
BITMAP
ENDCHAR
STARTCHAR 00EC
ENCODING 236
SWIDTH 822 0
DWIDTH 8 0
BBX 0 0 0 0
BITMAP
ENDCHAR
STARTCHAR 00ED
ENCODING 237
SWIDTH 822 0
DWIDTH 8 0
BBX 0 0 0 0
BITMAP
ENDCHAR
STARTCHAR 00EE
ENCODING 238
SWIDTH 822 0
DWIDTH 8 0
BBX 0 0 0 0
BITMAP
ENDCHAR
STARTCHAR 00EF
ENCODING 239
SWIDTH 822 0
DWIDTH 8 0
BBX 0 0 0 0
BITMAP
ENDCHAR
STARTCHAR 00F0
ENCODING 240
SWIDTH 822 0
DWIDTH 8 0
BBX 0 0 0 0
BITMAP
ENDCHAR
STARTCHAR 00F1
ENCODING 241
SWIDTH 822 0
DWIDTH 8 0
BBX 0 0 0 0
BITMAP
ENDCHAR
STARTCHAR 00F2
ENCODING 242
SWIDTH 822 0
DWIDTH 8 0
BBX 0 0 0 0
BITMAP
ENDCHAR
STARTCHAR 00F3
ENCODING 243
SWIDTH 822 0
DWIDTH 8 0
BBX 0 0 0 0
BITMAP
ENDCHAR
STARTCHAR 00F4
ENCODING 244
SWIDTH 822 0
DWIDTH 8 0
BBX 0 0 0 0
BITMAP
ENDCHAR
STARTCHAR 00F5
ENCODING 245
SWIDTH 822 0
DWIDTH 8 0
BBX 0 0 0 0
BITMAP
ENDCHAR
STARTCHAR 00F6
ENCODING 246
SWIDTH 822 0
DWIDTH 8 0
BBX 0 0 0 0
BITMAP
ENDCHAR
STARTCHAR 00F7
ENCODING 247
SWIDTH 822 0
DWIDTH 8 0
BBX 7 5 1 1
BITMAP
10
00
FE
00
10
ENDCHAR
STARTCHAR 00F8
ENCODING 248
SWIDTH 822 0
DWIDTH 8 0
BBX 0 0 0 0
BITMAP
ENDCHAR
STARTCHAR 00F9
ENCODING 249
SWIDTH 822 0
DWIDTH 8 0
BBX 0 0 0 0
BITMAP
ENDCHAR
STARTCHAR 00FA
ENCODING 250
SWIDTH 822 0
DWIDTH 8 0
BBX 0 0 0 0
BITMAP
ENDCHAR
STARTCHAR 00FB
ENCODING 251
SWIDTH 822 0
DWIDTH 8 0
BBX 0 0 0 0
BITMAP
ENDCHAR
STARTCHAR 00FC
ENCODING 252
SWIDTH 822 0
DWIDTH 8 0
BBX 0 0 0 0
BITMAP
ENDCHAR
STARTCHAR 00FD
ENCODING 253
SWIDTH 822 0
DWIDTH 8 0
BBX 0 0 0 0
BITMAP
ENDCHAR
STARTCHAR 00FE
ENCODING 254
SWIDTH 822 0
DWIDTH 8 0
BBX 0 0 0 0
BITMAP
ENDCHAR
STARTCHAR 00FF
ENCODING 255
SWIDTH 822 0
DWIDTH 8 0
BBX 0 0 0 0
BITMAP
ENDCHAR
STARTCHAR 2010
ENCODING 8208
SWIDTH 822 0
DWIDTH 8 0
BBX 4 1 3 3
BITMAP
F0
ENDCHAR
STARTCHAR E000
ENCODING 57344
SWIDTH 822 0
DWIDTH 8 0
BBX 0 0 0 0
BITMAP
ENDCHAR
STARTCHAR E001
ENCODING 57345
SWIDTH 822 0
DWIDTH 8 0
BBX 0 0 0 0
BITMAP
ENDCHAR
STARTCHAR E002
ENCODING 57346
SWIDTH 822 0
DWIDTH 8 0
BBX 0 0 0 0
BITMAP
ENDCHAR
STARTCHAR E003
ENCODING 57347
SWIDTH 822 0
DWIDTH 8 0
BBX 0 0 0 0
BITMAP
ENDCHAR
STARTCHAR E004
ENCODING 57348
SWIDTH 822 0
DWIDTH 8 0
BBX 0 0 0 0
BITMAP
ENDCHAR
STARTCHAR E005
ENCODING 57349
SWIDTH 822 0
DWIDTH 8 0
BBX 0 0 0 0
BITMAP
ENDCHAR
STARTCHAR E006
ENCODING 57350
SWIDTH 822 0
DWIDTH 8 0
BBX 0 0 0 0
BITMAP
ENDCHAR
STARTCHAR E007
ENCODING 57351
SWIDTH 822 0
DWIDTH 8 0
BBX 0 0 0 0
BITMAP
ENDCHAR
STARTCHAR E008
ENCODING 57352
SWIDTH 822 0
DWIDTH 8 0
BBX 0 0 0 0
BITMAP
ENDCHAR
STARTCHAR E009
ENCODING 57353
SWIDTH 822 0
DWIDTH 8 0
BBX 0 0 0 0
BITMAP
ENDCHAR
STARTCHAR E00A
ENCODING 57354
SWIDTH 822 0
DWIDTH 8 0
BBX 0 0 0 0
BITMAP
ENDCHAR
STARTCHAR E00B
ENCODING 57355
SWIDTH 822 0
DWIDTH 8 0
BBX 0 0 0 0
BITMAP
ENDCHAR
STARTCHAR E00C
ENCODING 57356
SWIDTH 822 0
DWIDTH 8 0
BBX 0 0 0 0
BITMAP
ENDCHAR
STARTCHAR E00D
ENCODING 57357
SWIDTH 822 0
DWIDTH 8 0
BBX 0 0 0 0
BITMAP
ENDCHAR
STARTCHAR E00E
ENCODING 57358
SWIDTH 822 0
DWIDTH 8 0
BBX 0 0 0 0
BITMAP
ENDCHAR
STARTCHAR E00F
ENCODING 57359
SWIDTH 822 0
DWIDTH 8 0
BBX 0 0 0 0
BITMAP
ENDCHAR
STARTCHAR E010
ENCODING 57360
SWIDTH 822 0
DWIDTH 8 0
BBX 0 0 0 0
BITMAP
ENDCHAR
STARTCHAR E011
ENCODING 57361
SWIDTH 822 0
DWIDTH 8 0
BBX 0 0 0 0
BITMAP
ENDCHAR
STARTCHAR E012
ENCODING 57362
SWIDTH 822 0
DWIDTH 8 0
BBX 0 0 0 0
BITMAP
ENDCHAR
STARTCHAR E013
ENCODING 57363
SWIDTH 822 0
DWIDTH 8 0
BBX 0 0 0 0
BITMAP
ENDCHAR
STARTCHAR E014
ENCODING 57364
SWIDTH 822 0
DWIDTH 8 0
BBX 0 0 0 0
BITMAP
ENDCHAR
STARTCHAR E015
ENCODING 57365
SWIDTH 822 0
DWIDTH 8 0
BBX 0 0 0 0
BITMAP
ENDCHAR
STARTCHAR E016
ENCODING 57366
SWIDTH 822 0
DWIDTH 8 0
BBX 0 0 0 0
BITMAP
ENDCHAR
STARTCHAR E017
ENCODING 57367
SWIDTH 822 0
DWIDTH 8 0
BBX 0 0 0 0
BITMAP
ENDCHAR
STARTCHAR E018
ENCODING 57368
SWIDTH 822 0
DWIDTH 8 0
BBX 0 0 0 0
BITMAP
ENDCHAR
STARTCHAR E019
ENCODING 57369
SWIDTH 822 0
DWIDTH 8 0
BBX 0 0 0 0
BITMAP
ENDCHAR
STARTCHAR E01A
ENCODING 57370
SWIDTH 822 0
DWIDTH 8 0
BBX 0 0 0 0
BITMAP
ENDCHAR
STARTCHAR E01B
ENCODING 57371
SWIDTH 822 0
DWIDTH 8 0
BBX 0 0 0 0
BITMAP
ENDCHAR
STARTCHAR E01C
ENCODING 57372
SWIDTH 822 0
DWIDTH 8 0
BBX 0 0 0 0
BITMAP
ENDCHAR
STARTCHAR E01D
ENCODING 57373
SWIDTH 822 0
DWIDTH 8 0
BBX 0 0 0 0
BITMAP
ENDCHAR
STARTCHAR E01E
ENCODING 57374
SWIDTH 822 0
DWIDTH 8 0
BBX 0 0 0 0
BITMAP
ENDCHAR
STARTCHAR E01F
ENCODING 57375
SWIDTH 822 0
DWIDTH 8 0
BBX 0 0 0 0
BITMAP
ENDCHAR
STARTCHAR E020
ENCODING 57376
SWIDTH 822 0
DWIDTH 8 0
BBX 0 0 0 0
BITMAP
ENDCHAR
STARTCHAR E021
ENCODING 57377
SWIDTH 822 0
DWIDTH 8 0
BBX 1 8 4 -2
BITMAP
80
80
80
80
80
80
80
80
ENDCHAR
STARTCHAR E022
ENCODING 57378
SWIDTH 822 0
DWIDTH 8 0
BBX 4 6 3 0
BITMAP
B0
B0
B0
B0
B0
B0
ENDCHAR
STARTCHAR E023
ENCODING 57379
SWIDTH 822 0
DWIDTH 8 0
BBX 7 8 1 -2
BITMAP
2C
2C
2C
2C
FE
FE
3C
3C
ENDCHAR
STARTCHAR E024
ENCODING 57380
SWIDTH 822 0
DWIDTH 8 0
BBX 7 8 1 -2
BITMAP
3C
7C
D6
D6
D0
D0
7C
3C
ENDCHAR
STARTCHAR E025
ENCODING 57381
SWIDTH 822 0
DWIDTH 8 0
BBX 7 8 1 -2
BITMAP
E0
E0
E6
E6
0C
0C
18
30
ENDCHAR
STARTCHAR E026
ENCODING 57382
SWIDTH 822 0
DWIDTH 8 0
BBX 4 8 1 -2
BITMAP
20
70
F0
D0
D0
F0
70
70
ENDCHAR
STARTCHAR E027
ENCODING 57383
SWIDTH 822 0
DWIDTH 8 0
BBX 1 6 4 0
BITMAP
80
80
80
80
80
80
ENDCHAR
STARTCHAR E028
ENCODING 57384
SWIDTH 822 0
DWIDTH 8 0
BBX 4 8 3 -2
BITMAP
30
30
60
C0
C0
80
80
80
ENDCHAR
STARTCHAR E029
ENCODING 57385
SWIDTH 822 0
DWIDTH 8 0
BBX 4 8 3 -2
BITMAP
80
C0
C0
60
30
30
30
30
ENDCHAR
STARTCHAR E02A
ENCODING 57386
SWIDTH 822 0
DWIDTH 8 0
BBX 7 8 1 -2
BITMAP
10
10
D6
D6
7C
3C
10
10
ENDCHAR
STARTCHAR E02B
ENCODING 57387
SWIDTH 822 0
DWIDTH 8 0
BBX 7 6 1 -2
BITMAP
10
10
10
10
FE
FE
ENDCHAR
STARTCHAR E02C
ENCODING 57388
SWIDTH 822 0
DWIDTH 8 0
BBX 0 0 0 0
BITMAP
ENDCHAR
STARTCHAR E02D
ENCODING 57389
SWIDTH 822 0
DWIDTH 8 0
BBX 4 2 3 -2
BITMAP
F0
F0
ENDCHAR
STARTCHAR E02E
ENCODING 57390
SWIDTH 822 0
DWIDTH 8 0
BBX 0 0 0 0
BITMAP
ENDCHAR
STARTCHAR E02F
ENCODING 57391
SWIDTH 822 0
DWIDTH 8 0
BBX 5 6 3 -2
BITMAP
18
18
30
30
60
C0
ENDCHAR
STARTCHAR E030
ENCODING 57392
SWIDTH 822 0
DWIDTH 8 0
BBX 7 8 1 -2
BITMAP
10
38
3C
6C
C6
C6
C6
C6
ENDCHAR
STARTCHAR E031
ENCODING 57393
SWIDTH 822 0
DWIDTH 8 0
BBX 2 8 3 -2
BITMAP
40
40
C0
C0
40
40
40
40
ENDCHAR
STARTCHAR E032
ENCODING 57394
SWIDTH 822 0
DWIDTH 8 0
BBX 7 8 1 -2
BITMAP
3C
7C
C6
C6
06
06
1C
3C
ENDCHAR
STARTCHAR E033
ENCODING 57395
SWIDTH 822 0
DWIDTH 8 0
BBX 7 8 1 -2
BITMAP
FE
FE
06
06
0C
0C
1C
1C
ENDCHAR
STARTCHAR E034
ENCODING 57396
SWIDTH 822 0
DWIDTH 8 0
BBX 6 8 1 -2
BITMAP
0C
0C
1C
3C
3C
6C
CC
CC
ENDCHAR
STARTCHAR E035
ENCODING 57397
SWIDTH 822 0
DWIDTH 8 0
BBX 7 8 1 -2
BITMAP
FE
FE
C0
C0
FC
FC
06
06
ENDCHAR
STARTCHAR E036
ENCODING 57398
SWIDTH 822 0
DWIDTH 8 0
BBX 6 8 1 -2
BITMAP
1C
3C
30
60
C0
C0
FC
FC
ENDCHAR
STARTCHAR E037
ENCODING 57399
SWIDTH 822 0
DWIDTH 8 0
BBX 7 8 1 -2
BITMAP
FE
FE
06
06
0C
0C
18
30
ENDCHAR
STARTCHAR E038
ENCODING 57400
SWIDTH 822 0
DWIDTH 8 0
BBX 7 8 1 -2
BITMAP
3C
7C
C6
C6
C6
C6
7C
7C
ENDCHAR
STARTCHAR E039
ENCODING 57401
SWIDTH 822 0
DWIDTH 8 0
BBX 7 8 1 -2
BITMAP
3C
7C
C6
C6
C6
C6
7E
3E
ENDCHAR
STARTCHAR E03A
ENCODING 57402
SWIDTH 822 0
DWIDTH 8 0
BBX 1 2 4 0
BITMAP
80
80
ENDCHAR
STARTCHAR E03B
ENCODING 57403
SWIDTH 822 0
DWIDTH 8 0
BBX 1 2 4 0
BITMAP
80
80
ENDCHAR
STARTCHAR E03C
ENCODING 57404
SWIDTH 822 0
DWIDTH 8 0
BBX 6 8 1 -2
BITMAP
0C
0C
18
30
30
60
C0
C0
ENDCHAR
STARTCHAR E03D
ENCODING 57405
SWIDTH 822 0
DWIDTH 8 0
BBX 7 2 1 0
BITMAP
FE
FE
ENDCHAR
STARTCHAR E03E
ENCODING 57406
SWIDTH 822 0
DWIDTH 8 0
BBX 5 8 3 -2
BITMAP
80
C0
C0
60
30
30
18
18
ENDCHAR
STARTCHAR E03F
ENCODING 57407
SWIDTH 822 0
DWIDTH 8 0
BBX 7 8 1 -2
BITMAP
3C
7C
C6
C6
0C
0C
18
10
ENDCHAR
STARTCHAR E040
ENCODING 57408
SWIDTH 822 0
DWIDTH 8 0
BBX 7 8 1 -2
BITMAP
3C
7C
C6
C6
DE
DE
D6
D6
ENDCHAR
STARTCHAR E041
ENCODING 57409
SWIDTH 822 0
DWIDTH 8 0
BBX 7 8 1 -2
BITMAP
10
38
3C
6C
C6
C6
C6
C6
ENDCHAR
STARTCHAR E042
ENCODING 57410
SWIDTH 822 0
DWIDTH 8 0
BBX 7 8 1 -2
BITMAP
FC
FC
C6
C6
C6
C6
FC
FC
ENDCHAR
STARTCHAR E043
ENCODING 57411
SWIDTH 822 0
DWIDTH 8 0
BBX 7 8 1 -2
BITMAP
3C
7C
C6
C6
C0
C0
C0
C0
ENDCHAR
STARTCHAR E044
ENCODING 57412
SWIDTH 822 0
DWIDTH 8 0
BBX 7 8 1 -2
BITMAP
FC
FC
C6
C6
C6
C6
C6
C6
ENDCHAR
STARTCHAR E045
ENCODING 57413
SWIDTH 822 0
DWIDTH 8 0
BBX 7 8 1 -2
BITMAP
FE
FE
C0
C0
C0
C0
FC
FC
ENDCHAR
STARTCHAR E046
ENCODING 57414
SWIDTH 822 0
DWIDTH 8 0
BBX 7 8 1 -2
BITMAP
FE
FE
C0
C0
C0
C0
FC
FC
ENDCHAR
STARTCHAR E047
ENCODING 57415
SWIDTH 822 0
DWIDTH 8 0
BBX 7 8 1 -2
BITMAP
3C
7C
C6
C6
C0
C0
C0
C0
ENDCHAR
STARTCHAR E048
ENCODING 57416
SWIDTH 822 0
DWIDTH 8 0
BBX 7 8 1 -2
BITMAP
C6
C6
C6
C6
C6
C6
FE
FE
ENDCHAR
STARTCHAR E049
ENCODING 57417
SWIDTH 822 0
DWIDTH 8 0
BBX 4 8 3 -2
BITMAP
F0
F0
40
40
40
40
40
40
ENDCHAR
STARTCHAR E04A
ENCODING 57418
SWIDTH 822 0
DWIDTH 8 0
BBX 2 8 6 -2
BITMAP
C0
C0
C0
C0
C0
C0
C0
C0
ENDCHAR
STARTCHAR E04B
ENCODING 57419
SWIDTH 822 0
DWIDTH 8 0
BBX 7 8 1 -2
BITMAP
C6
C6
CC
CC
D8
F0
F0
F0
ENDCHAR
STARTCHAR E04C
ENCODING 57420
SWIDTH 822 0
DWIDTH 8 0
BBX 2 8 1 -2
BITMAP
C0
C0
C0
C0
C0
C0
C0
C0
ENDCHAR
STARTCHAR E04D
ENCODING 57421
SWIDTH 822 0
DWIDTH 8 0
BBX 7 8 1 -2
BITMAP
C6
C6
EE
FE
FE
D6
D6
C6
ENDCHAR
STARTCHAR E04E
ENCODING 57422
SWIDTH 822 0
DWIDTH 8 0
BBX 7 8 1 -2
BITMAP
C6
C6
C6
C6
E6
F6
F6
DE
ENDCHAR
STARTCHAR E04F
ENCODING 57423
SWIDTH 822 0
DWIDTH 8 0
BBX 7 8 1 -2
BITMAP
3C
7C
C6
C6
C6
C6
C6
C6
ENDCHAR
STARTCHAR E050
ENCODING 57424
SWIDTH 822 0
DWIDTH 8 0
BBX 7 8 1 -2
BITMAP
FC
FC
C6
C6
C6
C6
FC
FC
ENDCHAR
STARTCHAR E051
ENCODING 57425
SWIDTH 822 0
DWIDTH 8 0
BBX 7 8 1 -2
BITMAP
3C
7C
C6
C6
C6
C6
C6
C6
ENDCHAR
STARTCHAR E052
ENCODING 57426
SWIDTH 822 0
DWIDTH 8 0
BBX 7 8 1 -2
BITMAP
FC
FC
C6
C6
C6
C6
FC
FC
ENDCHAR
STARTCHAR E053
ENCODING 57427
SWIDTH 822 0
DWIDTH 8 0
BBX 7 8 1 -2
BITMAP
3C
7C
C6
C6
C0
C0
7C
3C
ENDCHAR
STARTCHAR E054
ENCODING 57428
SWIDTH 822 0
DWIDTH 8 0
BBX 7 8 1 -2
BITMAP
FE
FE
10
10
10
10
10
10
ENDCHAR
STARTCHAR E055
ENCODING 57429
SWIDTH 822 0
DWIDTH 8 0
BBX 7 8 1 -2
BITMAP
C6
C6
C6
C6
C6
C6
C6
C6
ENDCHAR
STARTCHAR E056
ENCODING 57430
SWIDTH 822 0
DWIDTH 8 0
BBX 7 8 1 -2
BITMAP
C6
C6
C6
C6
C6
C6
6C
2C
ENDCHAR
STARTCHAR E057
ENCODING 57431
SWIDTH 822 0
DWIDTH 8 0
BBX 7 8 1 -2
BITMAP
C6
C6
C6
C6
C6
C6
D6
D6
ENDCHAR
STARTCHAR E058
ENCODING 57432
SWIDTH 822 0
DWIDTH 8 0
BBX 7 8 1 -2
BITMAP
C6
C6
C6
C6
6C
3C
38
38
ENDCHAR
STARTCHAR E059
ENCODING 57433
SWIDTH 822 0
DWIDTH 8 0
BBX 7 8 1 -2
BITMAP
C6
C6
C6
C6
6C
3C
38
10
ENDCHAR
STARTCHAR E05A
ENCODING 57434
SWIDTH 822 0
DWIDTH 8 0
BBX 7 8 1 -2
BITMAP
FE
FE
06
06
0C
0C
18
30
ENDCHAR
STARTCHAR E05B
ENCODING 57435
SWIDTH 822 0
DWIDTH 8 0
BBX 7 6 1 -2
BITMAP
10
30
30
20
FE
FE
ENDCHAR
STARTCHAR E05C
ENCODING 57436
SWIDTH 822 0
DWIDTH 8 0
BBX 5 6 1 -2
BITMAP
C0
C0
60
30
30
18
ENDCHAR
STARTCHAR E05D
ENCODING 57437
SWIDTH 822 0
DWIDTH 8 0
BBX 7 6 1 -2
BITMAP
10
18
0C
0C
FE
FE
ENDCHAR
STARTCHAR E05E
ENCODING 57438
SWIDTH 822 0
DWIDTH 8 0
BBX 7 6 1 -2
BITMAP
10
10
3C
7C
D6
D6
ENDCHAR
STARTCHAR E05F
ENCODING 57439
SWIDTH 822 0
DWIDTH 8 0
BBX 0 0 0 0
BITMAP
ENDCHAR
STARTCHAR E060
ENCODING 57440
SWIDTH 822 0
DWIDTH 8 0
BBX 7 2 1 -2
BITMAP
FE
FE
ENDCHAR
STARTCHAR E061
ENCODING 57441
SWIDTH 822 0
DWIDTH 8 0
BBX 5 4 3 -2
BITMAP
F0
F0
18
18
ENDCHAR
STARTCHAR E062
ENCODING 57442
SWIDTH 822 0
DWIDTH 8 0
BBX 7 8 1 -2
BITMAP
C0
C0
C0
C0
FC
FC
C6
C6
ENDCHAR
STARTCHAR E063
ENCODING 57443
SWIDTH 822 0
DWIDTH 8 0
BBX 7 4 1 -2
BITMAP
3E
7E
C0
C0
ENDCHAR
STARTCHAR E064
ENCODING 57444
SWIDTH 822 0
DWIDTH 8 0
BBX 7 8 1 -2
BITMAP
06
06
06
06
3E
7E
C6
C6
ENDCHAR
STARTCHAR E065
ENCODING 57445
SWIDTH 822 0
DWIDTH 8 0
BBX 7 4 1 -2
BITMAP
3C
7C
C6
C6
ENDCHAR
STARTCHAR E066
ENCODING 57446
SWIDTH 822 0
DWIDTH 8 0
BBX 4 8 3 -2
BITMAP
30
30
60
40
40
40
F0
F0
ENDCHAR
STARTCHAR E067
ENCODING 57447
SWIDTH 822 0
DWIDTH 8 0
BBX 7 4 1 -2
BITMAP
3E
7E
C6
C6
ENDCHAR
STARTCHAR E068
ENCODING 57448
SWIDTH 822 0
DWIDTH 8 0
BBX 7 8 1 -2
BITMAP
C0
C0
C0
C0
FC
FC
C6
C6
ENDCHAR
STARTCHAR E069
ENCODING 57449
SWIDTH 822 0
DWIDTH 8 0
BBX 2 8 3 -2
BITMAP
40
40
00
00
C0
C0
40
40
ENDCHAR
STARTCHAR E06A
ENCODING 57450
SWIDTH 822 0
DWIDTH 8 0
BBX 1 8 4 -2
BITMAP
80
80
00
00
80
80
80
80
ENDCHAR
STARTCHAR E06B
ENCODING 57451
SWIDTH 822 0
DWIDTH 8 0
BBX 5 8 3 -2
BITMAP
80
80
80
80
98
98
B0
B0
ENDCHAR
STARTCHAR E06C
ENCODING 57452
SWIDTH 822 0
DWIDTH 8 0
BBX 2 8 3 -2
BITMAP
C0
C0
40
40
40
40
40
40
ENDCHAR
STARTCHAR E06D
ENCODING 57453
SWIDTH 822 0
DWIDTH 8 0
BBX 7 4 1 -2
BITMAP
EC
FC
FE
D6
ENDCHAR
STARTCHAR E06E
ENCODING 57454
SWIDTH 822 0
DWIDTH 8 0
BBX 7 4 1 -2
BITMAP
FC
FC
C6
C6
ENDCHAR
STARTCHAR E06F
ENCODING 57455
SWIDTH 822 0
DWIDTH 8 0
BBX 7 4 1 -2
BITMAP
3C
7C
C6
C6
ENDCHAR
STARTCHAR E070
ENCODING 57456
SWIDTH 822 0
DWIDTH 8 0
BBX 7 4 1 -2
BITMAP
FC
FC
C6
C6
ENDCHAR
STARTCHAR E071
ENCODING 57457
SWIDTH 822 0
DWIDTH 8 0
BBX 7 4 1 -2
BITMAP
3E
7E
C6
C6
ENDCHAR
STARTCHAR E072
ENCODING 57458
SWIDTH 822 0
DWIDTH 8 0
BBX 5 4 3 -2
BITMAP
B8
B8
E0
C0
ENDCHAR
STARTCHAR E073
ENCODING 57459
SWIDTH 822 0
DWIDTH 8 0
BBX 7 4 1 -2
BITMAP
3E
7E
C0
C0
ENDCHAR
STARTCHAR E074
ENCODING 57460
SWIDTH 822 0
DWIDTH 8 0
BBX 4 8 3 -2
BITMAP
40
40
40
40
F0
F0
40
40
ENDCHAR
STARTCHAR E075
ENCODING 57461
SWIDTH 822 0
DWIDTH 8 0
BBX 7 4 1 -2
BITMAP
C6
C6
C6
C6
ENDCHAR
STARTCHAR E076
ENCODING 57462
SWIDTH 822 0
DWIDTH 8 0
BBX 7 4 1 -2
BITMAP
C6
C6
C6
C6
ENDCHAR
STARTCHAR E077
ENCODING 57463
SWIDTH 822 0
DWIDTH 8 0
BBX 7 4 1 -2
BITMAP
C6
C6
C6
C6
ENDCHAR
STARTCHAR E078
ENCODING 57464
SWIDTH 822 0
DWIDTH 8 0
BBX 7 4 1 -2
BITMAP
C6
C6
6C
3C
ENDCHAR
STARTCHAR E079
ENCODING 57465
SWIDTH 822 0
DWIDTH 8 0
BBX 7 4 1 -2
BITMAP
C6
C6
C6
C6
ENDCHAR
STARTCHAR E07A
ENCODING 57466
SWIDTH 822 0
DWIDTH 8 0
BBX 7 4 1 -2
BITMAP
FE
FE
0C
0C
ENDCHAR
STARTCHAR E07B
ENCODING 57467
SWIDTH 822 0
DWIDTH 8 0
BBX 4 8 3 -2
BITMAP
F0
F0
80
80
80
80
80
80
ENDCHAR
STARTCHAR E07C
ENCODING 57468
SWIDTH 822 0
DWIDTH 8 0
BBX 4 8 3 -2
BITMAP
B0
B0
B0
B0
B0
B0
B0
B0
ENDCHAR
STARTCHAR E07D
ENCODING 57469
SWIDTH 822 0
DWIDTH 8 0
BBX 4 8 3 -2
BITMAP
F0
F0
30
30
30
30
30
30
ENDCHAR
STARTCHAR E07E
ENCODING 57470
SWIDTH 822 0
DWIDTH 8 0
BBX 0 0 0 0
BITMAP
ENDCHAR
STARTCHAR E07F
ENCODING 57471
SWIDTH 822 0
DWIDTH 8 0
BBX 0 0 0 0
BITMAP
ENDCHAR
STARTCHAR E080
ENCODING 57472
SWIDTH 822 0
DWIDTH 8 0
BBX 0 0 0 0
BITMAP
ENDCHAR
STARTCHAR E081
ENCODING 57473
SWIDTH 822 0
DWIDTH 8 0
BBX 0 0 0 0
BITMAP
ENDCHAR
STARTCHAR E082
ENCODING 57474
SWIDTH 822 0
DWIDTH 8 0
BBX 0 0 0 0
BITMAP
ENDCHAR
STARTCHAR E083
ENCODING 57475
SWIDTH 822 0
DWIDTH 8 0
BBX 0 0 0 0
BITMAP
ENDCHAR
STARTCHAR E084
ENCODING 57476
SWIDTH 822 0
DWIDTH 8 0
BBX 0 0 0 0
BITMAP
ENDCHAR
STARTCHAR E085
ENCODING 57477
SWIDTH 822 0
DWIDTH 8 0
BBX 0 0 0 0
BITMAP
ENDCHAR
STARTCHAR E086
ENCODING 57478
SWIDTH 822 0
DWIDTH 8 0
BBX 0 0 0 0
BITMAP
ENDCHAR
STARTCHAR E087
ENCODING 57479
SWIDTH 822 0
DWIDTH 8 0
BBX 0 0 0 0
BITMAP
ENDCHAR
STARTCHAR E088
ENCODING 57480
SWIDTH 822 0
DWIDTH 8 0
BBX 0 0 0 0
BITMAP
ENDCHAR
STARTCHAR E089
ENCODING 57481
SWIDTH 822 0
DWIDTH 8 0
BBX 0 0 0 0
BITMAP
ENDCHAR
STARTCHAR E08A
ENCODING 57482
SWIDTH 822 0
DWIDTH 8 0
BBX 0 0 0 0
BITMAP
ENDCHAR
STARTCHAR E08B
ENCODING 57483
SWIDTH 822 0
DWIDTH 8 0
BBX 0 0 0 0
BITMAP
ENDCHAR
STARTCHAR E08C
ENCODING 57484
SWIDTH 822 0
DWIDTH 8 0
BBX 0 0 0 0
BITMAP
ENDCHAR
STARTCHAR E08D
ENCODING 57485
SWIDTH 822 0
DWIDTH 8 0
BBX 0 0 0 0
BITMAP
ENDCHAR
STARTCHAR E08E
ENCODING 57486
SWIDTH 822 0
DWIDTH 8 0
BBX 0 0 0 0
BITMAP
ENDCHAR
STARTCHAR E08F
ENCODING 57487
SWIDTH 822 0
DWIDTH 8 0
BBX 0 0 0 0
BITMAP
ENDCHAR
STARTCHAR E090
ENCODING 57488
SWIDTH 822 0
DWIDTH 8 0
BBX 0 0 0 0
BITMAP
ENDCHAR
STARTCHAR E091
ENCODING 57489
SWIDTH 822 0
DWIDTH 8 0
BBX 0 0 0 0
BITMAP
ENDCHAR
STARTCHAR E092
ENCODING 57490
SWIDTH 822 0
DWIDTH 8 0
BBX 0 0 0 0
BITMAP
ENDCHAR
STARTCHAR E093
ENCODING 57491
SWIDTH 822 0
DWIDTH 8 0
BBX 0 0 0 0
BITMAP
ENDCHAR
STARTCHAR E094
ENCODING 57492
SWIDTH 822 0
DWIDTH 8 0
BBX 0 0 0 0
BITMAP
ENDCHAR
STARTCHAR E095
ENCODING 57493
SWIDTH 822 0
DWIDTH 8 0
BBX 0 0 0 0
BITMAP
ENDCHAR
STARTCHAR E096
ENCODING 57494
SWIDTH 822 0
DWIDTH 8 0
BBX 0 0 0 0
BITMAP
ENDCHAR
STARTCHAR E097
ENCODING 57495
SWIDTH 822 0
DWIDTH 8 0
BBX 0 0 0 0
BITMAP
ENDCHAR
STARTCHAR E098
ENCODING 57496
SWIDTH 822 0
DWIDTH 8 0
BBX 0 0 0 0
BITMAP
ENDCHAR
STARTCHAR E099
ENCODING 57497
SWIDTH 822 0
DWIDTH 8 0
BBX 0 0 0 0
BITMAP
ENDCHAR
STARTCHAR E09A
ENCODING 57498
SWIDTH 822 0
DWIDTH 8 0
BBX 0 0 0 0
BITMAP
ENDCHAR
STARTCHAR E09B
ENCODING 57499
SWIDTH 822 0
DWIDTH 8 0
BBX 0 0 0 0
BITMAP
ENDCHAR
STARTCHAR E09C
ENCODING 57500
SWIDTH 822 0
DWIDTH 8 0
BBX 0 0 0 0
BITMAP
ENDCHAR
STARTCHAR E09D
ENCODING 57501
SWIDTH 822 0
DWIDTH 8 0
BBX 0 0 0 0
BITMAP
ENDCHAR
STARTCHAR E09E
ENCODING 57502
SWIDTH 822 0
DWIDTH 8 0
BBX 0 0 0 0
BITMAP
ENDCHAR
STARTCHAR E09F
ENCODING 57503
SWIDTH 822 0
DWIDTH 8 0
BBX 0 0 0 0
BITMAP
ENDCHAR
STARTCHAR E0A0
ENCODING 57504
SWIDTH 822 0
DWIDTH 8 0
BBX 0 0 0 0
BITMAP
ENDCHAR
STARTCHAR E0A1
ENCODING 57505
SWIDTH 822 0
DWIDTH 8 0
BBX 0 0 0 0
BITMAP
ENDCHAR
STARTCHAR E0A2
ENCODING 57506
SWIDTH 822 0
DWIDTH 8 0
BBX 0 0 0 0
BITMAP
ENDCHAR
STARTCHAR E0A3
ENCODING 57507
SWIDTH 822 0
DWIDTH 8 0
BBX 7 8 1 -2
BITMAP
1C
3C
36
26
20
20
F0
F0
ENDCHAR
STARTCHAR E0A4
ENCODING 57508
SWIDTH 822 0
DWIDTH 8 0
BBX 0 0 0 0
BITMAP
ENDCHAR
STARTCHAR E0A5
ENCODING 57509
SWIDTH 822 0
DWIDTH 8 0
BBX 0 0 0 0
BITMAP
ENDCHAR
STARTCHAR E0A6
ENCODING 57510
SWIDTH 822 0
DWIDTH 8 0
BBX 0 0 0 0
BITMAP
ENDCHAR
STARTCHAR E0A7
ENCODING 57511
SWIDTH 822 0
DWIDTH 8 0
BBX 0 0 0 0
BITMAP
ENDCHAR
STARTCHAR E0A8
ENCODING 57512
SWIDTH 822 0
DWIDTH 8 0
BBX 0 0 0 0
BITMAP
ENDCHAR
STARTCHAR E0A9
ENCODING 57513
SWIDTH 822 0
DWIDTH 8 0
BBX 0 0 0 0
BITMAP
ENDCHAR
STARTCHAR E0AA
ENCODING 57514
SWIDTH 822 0
DWIDTH 8 0
BBX 0 0 0 0
BITMAP
ENDCHAR
STARTCHAR E0AB
ENCODING 57515
SWIDTH 822 0
DWIDTH 8 0
BBX 0 0 0 0
BITMAP
ENDCHAR
STARTCHAR E0AC
ENCODING 57516
SWIDTH 822 0
DWIDTH 8 0
BBX 0 0 0 0
BITMAP
ENDCHAR
STARTCHAR E0AD
ENCODING 57517
SWIDTH 822 0
DWIDTH 8 0
BBX 0 0 0 0
BITMAP
ENDCHAR
STARTCHAR E0AE
ENCODING 57518
SWIDTH 822 0
DWIDTH 8 0
BBX 0 0 0 0
BITMAP
ENDCHAR
STARTCHAR E0AF
ENCODING 57519
SWIDTH 822 0
DWIDTH 8 0
BBX 0 0 0 0
BITMAP
ENDCHAR
STARTCHAR E0B0
ENCODING 57520
SWIDTH 822 0
DWIDTH 8 0
BBX 0 0 0 0
BITMAP
ENDCHAR
STARTCHAR E0B1
ENCODING 57521
SWIDTH 822 0
DWIDTH 8 0
BBX 0 0 0 0
BITMAP
ENDCHAR
STARTCHAR E0B2
ENCODING 57522
SWIDTH 822 0
DWIDTH 8 0
BBX 0 0 0 0
BITMAP
ENDCHAR
STARTCHAR E0B3
ENCODING 57523
SWIDTH 822 0
DWIDTH 8 0
BBX 0 0 0 0
BITMAP
ENDCHAR
STARTCHAR E0B4
ENCODING 57524
SWIDTH 822 0
DWIDTH 8 0
BBX 0 0 0 0
BITMAP
ENDCHAR
STARTCHAR E0B5
ENCODING 57525
SWIDTH 822 0
DWIDTH 8 0
BBX 0 0 0 0
BITMAP
ENDCHAR
STARTCHAR E0B6
ENCODING 57526
SWIDTH 822 0
DWIDTH 8 0
BBX 7 8 1 -2
BITMAP
FE
FE
FE
FE
FE
FE
FE
FE
ENDCHAR
STARTCHAR E0B7
ENCODING 57527
SWIDTH 822 0
DWIDTH 8 0
BBX 0 0 0 0
BITMAP
ENDCHAR
STARTCHAR E0B8
ENCODING 57528
SWIDTH 822 0
DWIDTH 8 0
BBX 0 0 0 0
BITMAP
ENDCHAR
STARTCHAR E0B9
ENCODING 57529
SWIDTH 822 0
DWIDTH 8 0
BBX 0 0 0 0
BITMAP
ENDCHAR
STARTCHAR E0BA
ENCODING 57530
SWIDTH 822 0
DWIDTH 8 0
BBX 0 0 0 0
BITMAP
ENDCHAR
STARTCHAR E0BB
ENCODING 57531
SWIDTH 822 0
DWIDTH 8 0
BBX 0 0 0 0
BITMAP
ENDCHAR
STARTCHAR E0BC
ENCODING 57532
SWIDTH 822 0
DWIDTH 8 0
BBX 1 8 3 -2
BITMAP
80
80
80
80
80
80
80
80
ENDCHAR
STARTCHAR E0BD
ENCODING 57533
SWIDTH 822 0
DWIDTH 8 0
BBX 2 8 1 -2
BITMAP
C0
C0
C0
C0
C0
C0
C0
C0
ENDCHAR
STARTCHAR E0BE
ENCODING 57534
SWIDTH 822 0
DWIDTH 8 0
BBX 4 8 1 -2
BITMAP
E0
F0
30
30
F0
F0
30
30
ENDCHAR
STARTCHAR E0BF
ENCODING 57535
SWIDTH 822 0
DWIDTH 8 0
BBX 0 0 0 0
BITMAP
ENDCHAR
STARTCHAR E0C0
ENCODING 57536
SWIDTH 822 0
DWIDTH 8 0
BBX 0 0 0 0
BITMAP
ENDCHAR
STARTCHAR E0C1
ENCODING 57537
SWIDTH 822 0
DWIDTH 8 0
BBX 0 0 0 0
BITMAP
ENDCHAR
STARTCHAR E0C2
ENCODING 57538
SWIDTH 822 0
DWIDTH 8 0
BBX 0 0 0 0
BITMAP
ENDCHAR
STARTCHAR E0C3
ENCODING 57539
SWIDTH 822 0
DWIDTH 8 0
BBX 0 0 0 0
BITMAP
ENDCHAR
STARTCHAR E0C4
ENCODING 57540
SWIDTH 822 0
DWIDTH 8 0
BBX 0 0 0 0
BITMAP
ENDCHAR
STARTCHAR E0C5
ENCODING 57541
SWIDTH 822 0
DWIDTH 8 0
BBX 0 0 0 0
BITMAP
ENDCHAR
STARTCHAR E0C6
ENCODING 57542
SWIDTH 822 0
DWIDTH 8 0
BBX 0 0 0 0
BITMAP
ENDCHAR
STARTCHAR E0C7
ENCODING 57543
SWIDTH 822 0
DWIDTH 8 0
BBX 0 0 0 0
BITMAP
ENDCHAR
STARTCHAR E0C8
ENCODING 57544
SWIDTH 822 0
DWIDTH 8 0
BBX 0 0 0 0
BITMAP
ENDCHAR
STARTCHAR E0C9
ENCODING 57545
SWIDTH 822 0
DWIDTH 8 0
BBX 0 0 0 0
BITMAP
ENDCHAR
STARTCHAR E0CA
ENCODING 57546
SWIDTH 822 0
DWIDTH 8 0
BBX 0 0 0 0
BITMAP
ENDCHAR
STARTCHAR E0CB
ENCODING 57547
SWIDTH 822 0
DWIDTH 8 0
BBX 0 0 0 0
BITMAP
ENDCHAR
STARTCHAR E0CC
ENCODING 57548
SWIDTH 822 0
DWIDTH 8 0
BBX 0 0 0 0
BITMAP
ENDCHAR
STARTCHAR E0CD
ENCODING 57549
SWIDTH 822 0
DWIDTH 8 0
BBX 0 0 0 0
BITMAP
ENDCHAR
STARTCHAR E0CE
ENCODING 57550
SWIDTH 822 0
DWIDTH 8 0
BBX 0 0 0 0
BITMAP
ENDCHAR
STARTCHAR E0CF
ENCODING 57551
SWIDTH 822 0
DWIDTH 8 0
BBX 0 0 0 0
BITMAP
ENDCHAR
STARTCHAR E0D0
ENCODING 57552
SWIDTH 822 0
DWIDTH 8 0
BBX 0 0 0 0
BITMAP
ENDCHAR
STARTCHAR E0D1
ENCODING 57553
SWIDTH 822 0
DWIDTH 8 0
BBX 0 0 0 0
BITMAP
ENDCHAR
STARTCHAR E0D2
ENCODING 57554
SWIDTH 822 0
DWIDTH 8 0
BBX 0 0 0 0
BITMAP
ENDCHAR
STARTCHAR E0D3
ENCODING 57555
SWIDTH 822 0
DWIDTH 8 0
BBX 0 0 0 0
BITMAP
ENDCHAR
STARTCHAR E0D4
ENCODING 57556
SWIDTH 822 0
DWIDTH 8 0
BBX 0 0 0 0
BITMAP
ENDCHAR
STARTCHAR E0D5
ENCODING 57557
SWIDTH 822 0
DWIDTH 8 0
BBX 0 0 0 0
BITMAP
ENDCHAR
STARTCHAR E0D6
ENCODING 57558
SWIDTH 822 0
DWIDTH 8 0
BBX 0 0 0 0
BITMAP
ENDCHAR
STARTCHAR E0D7
ENCODING 57559
SWIDTH 822 0
DWIDTH 8 0
BBX 0 0 0 0
BITMAP
ENDCHAR
STARTCHAR E0D8
ENCODING 57560
SWIDTH 822 0
DWIDTH 8 0
BBX 0 0 0 0
BITMAP
ENDCHAR
STARTCHAR E0D9
ENCODING 57561
SWIDTH 822 0
DWIDTH 8 0
BBX 0 0 0 0
BITMAP
ENDCHAR
STARTCHAR E0DA
ENCODING 57562
SWIDTH 822 0
DWIDTH 8 0
BBX 0 0 0 0
BITMAP
ENDCHAR
STARTCHAR E0DB
ENCODING 57563
SWIDTH 822 0
DWIDTH 8 0
BBX 0 0 0 0
BITMAP
ENDCHAR
STARTCHAR E0DC
ENCODING 57564
SWIDTH 822 0
DWIDTH 8 0
BBX 0 0 0 0
BITMAP
ENDCHAR
STARTCHAR E0DD
ENCODING 57565
SWIDTH 822 0
DWIDTH 8 0
BBX 0 0 0 0
BITMAP
ENDCHAR
STARTCHAR E0DE
ENCODING 57566
SWIDTH 822 0
DWIDTH 8 0
BBX 0 0 0 0
BITMAP
ENDCHAR
STARTCHAR E0DF
ENCODING 57567
SWIDTH 822 0
DWIDTH 8 0
BBX 0 0 0 0
BITMAP
ENDCHAR
STARTCHAR E0E0
ENCODING 57568
SWIDTH 822 0
DWIDTH 8 0
BBX 0 0 0 0
BITMAP
ENDCHAR
STARTCHAR E0E1
ENCODING 57569
SWIDTH 822 0
DWIDTH 8 0
BBX 0 0 0 0
BITMAP
ENDCHAR
STARTCHAR E0E2
ENCODING 57570
SWIDTH 822 0
DWIDTH 8 0
BBX 0 0 0 0
BITMAP
ENDCHAR
STARTCHAR E0E3
ENCODING 57571
SWIDTH 822 0
DWIDTH 8 0
BBX 0 0 0 0
BITMAP
ENDCHAR
STARTCHAR E0E4
ENCODING 57572
SWIDTH 822 0
DWIDTH 8 0
BBX 0 0 0 0
BITMAP
ENDCHAR
STARTCHAR E0E5
ENCODING 57573
SWIDTH 822 0
DWIDTH 8 0
BBX 0 0 0 0
BITMAP
ENDCHAR
STARTCHAR E0E6
ENCODING 57574
SWIDTH 822 0
DWIDTH 8 0
BBX 0 0 0 0
BITMAP
ENDCHAR
STARTCHAR E0E7
ENCODING 57575
SWIDTH 822 0
DWIDTH 8 0
BBX 0 0 0 0
BITMAP
ENDCHAR
STARTCHAR E0E8
ENCODING 57576
SWIDTH 822 0
DWIDTH 8 0
BBX 0 0 0 0
BITMAP
ENDCHAR
STARTCHAR E0E9
ENCODING 57577
SWIDTH 822 0
DWIDTH 8 0
BBX 0 0 0 0
BITMAP
ENDCHAR
STARTCHAR E0EA
ENCODING 57578
SWIDTH 822 0
DWIDTH 8 0
BBX 0 0 0 0
BITMAP
ENDCHAR
STARTCHAR E0EB
ENCODING 57579
SWIDTH 822 0
DWIDTH 8 0
BBX 0 0 0 0
BITMAP
ENDCHAR
STARTCHAR E0EC
ENCODING 57580
SWIDTH 822 0
DWIDTH 8 0
BBX 0 0 0 0
BITMAP
ENDCHAR
STARTCHAR E0ED
ENCODING 57581
SWIDTH 822 0
DWIDTH 8 0
BBX 0 0 0 0
BITMAP
ENDCHAR
STARTCHAR E0EE
ENCODING 57582
SWIDTH 822 0
DWIDTH 8 0
BBX 0 0 0 0
BITMAP
ENDCHAR
STARTCHAR E0EF
ENCODING 57583
SWIDTH 822 0
DWIDTH 8 0
BBX 0 0 0 0
BITMAP
ENDCHAR
STARTCHAR E0F0
ENCODING 57584
SWIDTH 822 0
DWIDTH 8 0
BBX 0 0 0 0
BITMAP
ENDCHAR
STARTCHAR E0F1
ENCODING 57585
SWIDTH 822 0
DWIDTH 8 0
BBX 0 0 0 0
BITMAP
ENDCHAR
STARTCHAR E0F2
ENCODING 57586
SWIDTH 822 0
DWIDTH 8 0
BBX 0 0 0 0
BITMAP
ENDCHAR
STARTCHAR E0F3
ENCODING 57587
SWIDTH 822 0
DWIDTH 8 0
BBX 0 0 0 0
BITMAP
ENDCHAR
STARTCHAR E0F4
ENCODING 57588
SWIDTH 822 0
DWIDTH 8 0
BBX 0 0 0 0
BITMAP
ENDCHAR
STARTCHAR E0F5
ENCODING 57589
SWIDTH 822 0
DWIDTH 8 0
BBX 0 0 0 0
BITMAP
ENDCHAR
STARTCHAR E0F6
ENCODING 57590
SWIDTH 822 0
DWIDTH 8 0
BBX 0 0 0 0
BITMAP
ENDCHAR
STARTCHAR E0F7
ENCODING 57591
SWIDTH 822 0
DWIDTH 8 0
BBX 7 6 1 -2
BITMAP
10
10
00
00
FE
FE
ENDCHAR
STARTCHAR E0F8
ENCODING 57592
SWIDTH 822 0
DWIDTH 8 0
BBX 0 0 0 0
BITMAP
ENDCHAR
STARTCHAR E0F9
ENCODING 57593
SWIDTH 822 0
DWIDTH 8 0
BBX 0 0 0 0
BITMAP
ENDCHAR
STARTCHAR E0FA
ENCODING 57594
SWIDTH 822 0
DWIDTH 8 0
BBX 0 0 0 0
BITMAP
ENDCHAR
STARTCHAR E0FB
ENCODING 57595
SWIDTH 822 0
DWIDTH 8 0
BBX 0 0 0 0
BITMAP
ENDCHAR
STARTCHAR E0FC
ENCODING 57596
SWIDTH 822 0
DWIDTH 8 0
BBX 0 0 0 0
BITMAP
ENDCHAR
STARTCHAR E0FD
ENCODING 57597
SWIDTH 822 0
DWIDTH 8 0
BBX 0 0 0 0
BITMAP
ENDCHAR
STARTCHAR E0FE
ENCODING 57598
SWIDTH 822 0
DWIDTH 8 0
BBX 0 0 0 0
BITMAP
ENDCHAR
STARTCHAR E0FF
ENCODING 57599
SWIDTH 822 0
DWIDTH 8 0
BBX 0 0 0 0
BITMAP
ENDCHAR
STARTCHAR E100
ENCODING 57600
SWIDTH 822 0
DWIDTH 8 0
BBX 0 0 0 0
BITMAP
ENDCHAR
STARTCHAR E101
ENCODING 57601
SWIDTH 822 0
DWIDTH 8 0
BBX 0 0 0 0
BITMAP
ENDCHAR
STARTCHAR E102
ENCODING 57602
SWIDTH 822 0
DWIDTH 8 0
BBX 0 0 0 0
BITMAP
ENDCHAR
STARTCHAR E103
ENCODING 57603
SWIDTH 822 0
DWIDTH 8 0
BBX 0 0 0 0
BITMAP
ENDCHAR
STARTCHAR E104
ENCODING 57604
SWIDTH 822 0
DWIDTH 8 0
BBX 0 0 0 0
BITMAP
ENDCHAR
STARTCHAR E105
ENCODING 57605
SWIDTH 822 0
DWIDTH 8 0
BBX 0 0 0 0
BITMAP
ENDCHAR
STARTCHAR E106
ENCODING 57606
SWIDTH 822 0
DWIDTH 8 0
BBX 0 0 0 0
BITMAP
ENDCHAR
STARTCHAR E107
ENCODING 57607
SWIDTH 822 0
DWIDTH 8 0
BBX 0 0 0 0
BITMAP
ENDCHAR
STARTCHAR E108
ENCODING 57608
SWIDTH 822 0
DWIDTH 8 0
BBX 0 0 0 0
BITMAP
ENDCHAR
STARTCHAR E109
ENCODING 57609
SWIDTH 822 0
DWIDTH 8 0
BBX 0 0 0 0
BITMAP
ENDCHAR
STARTCHAR E10A
ENCODING 57610
SWIDTH 822 0
DWIDTH 8 0
BBX 0 0 0 0
BITMAP
ENDCHAR
STARTCHAR E10B
ENCODING 57611
SWIDTH 822 0
DWIDTH 8 0
BBX 0 0 0 0
BITMAP
ENDCHAR
STARTCHAR E10C
ENCODING 57612
SWIDTH 822 0
DWIDTH 8 0
BBX 0 0 0 0
BITMAP
ENDCHAR
STARTCHAR E10D
ENCODING 57613
SWIDTH 822 0
DWIDTH 8 0
BBX 0 0 0 0
BITMAP
ENDCHAR
STARTCHAR E10E
ENCODING 57614
SWIDTH 822 0
DWIDTH 8 0
BBX 0 0 0 0
BITMAP
ENDCHAR
STARTCHAR E10F
ENCODING 57615
SWIDTH 822 0
DWIDTH 8 0
BBX 0 0 0 0
BITMAP
ENDCHAR
STARTCHAR E110
ENCODING 57616
SWIDTH 822 0
DWIDTH 8 0
BBX 0 0 0 0
BITMAP
ENDCHAR
STARTCHAR E111
ENCODING 57617
SWIDTH 822 0
DWIDTH 8 0
BBX 0 0 0 0
BITMAP
ENDCHAR
STARTCHAR E112
ENCODING 57618
SWIDTH 822 0
DWIDTH 8 0
BBX 0 0 0 0
BITMAP
ENDCHAR
STARTCHAR E113
ENCODING 57619
SWIDTH 822 0
DWIDTH 8 0
BBX 0 0 0 0
BITMAP
ENDCHAR
STARTCHAR E114
ENCODING 57620
SWIDTH 822 0
DWIDTH 8 0
BBX 0 0 0 0
BITMAP
ENDCHAR
STARTCHAR E115
ENCODING 57621
SWIDTH 822 0
DWIDTH 8 0
BBX 0 0 0 0
BITMAP
ENDCHAR
STARTCHAR E116
ENCODING 57622
SWIDTH 822 0
DWIDTH 8 0
BBX 0 0 0 0
BITMAP
ENDCHAR
STARTCHAR E117
ENCODING 57623
SWIDTH 822 0
DWIDTH 8 0
BBX 0 0 0 0
BITMAP
ENDCHAR
STARTCHAR E118
ENCODING 57624
SWIDTH 822 0
DWIDTH 8 0
BBX 0 0 0 0
BITMAP
ENDCHAR
STARTCHAR E119
ENCODING 57625
SWIDTH 822 0
DWIDTH 8 0
BBX 0 0 0 0
BITMAP
ENDCHAR
STARTCHAR E11A
ENCODING 57626
SWIDTH 822 0
DWIDTH 8 0
BBX 0 0 0 0
BITMAP
ENDCHAR
STARTCHAR E11B
ENCODING 57627
SWIDTH 822 0
DWIDTH 8 0
BBX 0 0 0 0
BITMAP
ENDCHAR
STARTCHAR E11C
ENCODING 57628
SWIDTH 822 0
DWIDTH 8 0
BBX 0 0 0 0
BITMAP
ENDCHAR
STARTCHAR E11D
ENCODING 57629
SWIDTH 822 0
DWIDTH 8 0
BBX 0 0 0 0
BITMAP
ENDCHAR
STARTCHAR E11E
ENCODING 57630
SWIDTH 822 0
DWIDTH 8 0
BBX 0 0 0 0
BITMAP
ENDCHAR
STARTCHAR E11F
ENCODING 57631
SWIDTH 822 0
DWIDTH 8 0
BBX 0 0 0 0
BITMAP
ENDCHAR
STARTCHAR E120
ENCODING 57632
SWIDTH 822 0
DWIDTH 8 0
BBX 0 0 0 0
BITMAP
ENDCHAR
STARTCHAR E121
ENCODING 57633
SWIDTH 822 0
DWIDTH 8 0
BBX 1 6 4 2
BITMAP
80
80
00
00
80
80
ENDCHAR
STARTCHAR E122
ENCODING 57634
SWIDTH 822 0
DWIDTH 8 0
BBX 0 0 0 0
BITMAP
ENDCHAR
STARTCHAR E123
ENCODING 57635
SWIDTH 822 0
DWIDTH 8 0
BBX 7 6 1 2
BITMAP
FE
FE
2C
2C
2C
2C
ENDCHAR
STARTCHAR E124
ENCODING 57636
SWIDTH 822 0
DWIDTH 8 0
BBX 7 6 1 2
BITMAP
16
16
D6
D6
7C
3C
ENDCHAR
STARTCHAR E125
ENCODING 57637
SWIDTH 822 0
DWIDTH 8 0
BBX 7 6 1 2
BITMAP
30
60
CE
CE
0E
0E
ENDCHAR
STARTCHAR E126
ENCODING 57638
SWIDTH 822 0
DWIDTH 8 0
BBX 7 6 1 2
BITMAP
F6
DE
CC
CC
7E
36
ENDCHAR
STARTCHAR E127
ENCODING 57639
SWIDTH 822 0
DWIDTH 8 0
BBX 0 0 0 0
BITMAP
ENDCHAR
STARTCHAR E128
ENCODING 57640
SWIDTH 822 0
DWIDTH 8 0
BBX 4 6 3 2
BITMAP
80
C0
C0
60
30
30
ENDCHAR
STARTCHAR E129
ENCODING 57641
SWIDTH 822 0
DWIDTH 8 0
BBX 4 6 3 2
BITMAP
30
30
60
C0
C0
80
ENDCHAR
STARTCHAR E12A
ENCODING 57642
SWIDTH 822 0
DWIDTH 8 0
BBX 7 6 1 2
BITMAP
3C
7C
D6
D6
10
10
ENDCHAR
STARTCHAR E12B
ENCODING 57643
SWIDTH 822 0
DWIDTH 8 0
BBX 1 4 4 4
BITMAP
80
80
80
80
ENDCHAR
STARTCHAR E12C
ENCODING 57644
SWIDTH 822 0
DWIDTH 8 0
BBX 2 6 3 0
BITMAP
40
40
40
C0
C0
80
ENDCHAR
STARTCHAR E12D
ENCODING 57645
SWIDTH 822 0
DWIDTH 8 0
BBX 0 0 0 0
BITMAP
ENDCHAR
STARTCHAR E12E
ENCODING 57646
SWIDTH 822 0
DWIDTH 8 0
BBX 1 2 4 2
BITMAP
80
80
ENDCHAR
STARTCHAR E12F
ENCODING 57647
SWIDTH 822 0
DWIDTH 8 0
BBX 4 4 1 4
BITMAP
30
60
C0
C0
ENDCHAR
STARTCHAR E130
ENCODING 57648
SWIDTH 822 0
DWIDTH 8 0
BBX 7 6 1 2
BITMAP
C6
C6
6C
3C
38
10
ENDCHAR
STARTCHAR E131
ENCODING 57649
SWIDTH 822 0
DWIDTH 8 0
BBX 4 6 3 2
BITMAP
40
40
40
40
F0
F0
ENDCHAR
STARTCHAR E132
ENCODING 57650
SWIDTH 822 0
DWIDTH 8 0
BBX 7 6 1 2
BITMAP
30
60
C0
C0
FE
FE
ENDCHAR
STARTCHAR E133
ENCODING 57651
SWIDTH 822 0
DWIDTH 8 0
BBX 7 6 1 2
BITMAP
06
06
C6
C6
7C
3C
ENDCHAR
STARTCHAR E134
ENCODING 57652
SWIDTH 822 0
DWIDTH 8 0
BBX 7 6 1 2
BITMAP
FE
FE
0C
0C
0C
0C
ENDCHAR
STARTCHAR E135
ENCODING 57653
SWIDTH 822 0
DWIDTH 8 0
BBX 7 6 1 2
BITMAP
06
06
C6
C6
7C
3C
ENDCHAR
STARTCHAR E136
ENCODING 57654
SWIDTH 822 0
DWIDTH 8 0
BBX 7 6 1 2
BITMAP
C6
C6
C6
C6
7C
3C
ENDCHAR
STARTCHAR E137
ENCODING 57655
SWIDTH 822 0
DWIDTH 8 0
BBX 2 6 3 2
BITMAP
C0
80
80
80
80
80
ENDCHAR
STARTCHAR E138
ENCODING 57656
SWIDTH 822 0
DWIDTH 8 0
BBX 7 6 1 2
BITMAP
C6
C6
C6
C6
7C
3C
ENDCHAR
STARTCHAR E139
ENCODING 57657
SWIDTH 822 0
DWIDTH 8 0
BBX 5 6 3 2
BITMAP
18
18
30
30
E0
C0
ENDCHAR
STARTCHAR E13A
ENCODING 57658
SWIDTH 822 0
DWIDTH 8 0
BBX 1 2 4 2
BITMAP
80
80
ENDCHAR
STARTCHAR E13B
ENCODING 57659
SWIDTH 822 0
DWIDTH 8 0
BBX 2 6 3 0
BITMAP
40
40
40
C0
C0
80
ENDCHAR
STARTCHAR E13C
ENCODING 57660
SWIDTH 822 0
DWIDTH 8 0
BBX 5 6 2 2
BITMAP
C0
60
60
30
18
18
ENDCHAR
STARTCHAR E13D
ENCODING 57661
SWIDTH 822 0
DWIDTH 8 0
BBX 7 2 1 6
BITMAP
FE
FE
ENDCHAR
STARTCHAR E13E
ENCODING 57662
SWIDTH 822 0
DWIDTH 8 0
BBX 4 6 3 2
BITMAP
30
30
60
C0
C0
80
ENDCHAR
STARTCHAR E13F
ENCODING 57663
SWIDTH 822 0
DWIDTH 8 0
BBX 1 6 4 2
BITMAP
80
80
00
00
80
80
ENDCHAR
STARTCHAR E140
ENCODING 57664
SWIDTH 822 0
DWIDTH 8 0
BBX 7 6 1 2
BITMAP
DE
DE
C0
C0
7C
3C
ENDCHAR
STARTCHAR E141
ENCODING 57665
SWIDTH 822 0
DWIDTH 8 0
BBX 7 6 1 2
BITMAP
FE
FE
C6
C6
C6
C6
ENDCHAR
STARTCHAR E142
ENCODING 57666
SWIDTH 822 0
DWIDTH 8 0
BBX 7 6 1 2
BITMAP
C6
C6
C6
C6
FC
FC
ENDCHAR
STARTCHAR E143
ENCODING 57667
SWIDTH 822 0
DWIDTH 8 0
BBX 7 6 1 2
BITMAP
C0
C0
C6
C6
7C
3C
ENDCHAR
STARTCHAR E144
ENCODING 57668
SWIDTH 822 0
DWIDTH 8 0
BBX 7 6 1 2
BITMAP
C6
C6
C6
C6
FC
FC
ENDCHAR
STARTCHAR E145
ENCODING 57669
SWIDTH 822 0
DWIDTH 8 0
BBX 7 6 1 2
BITMAP
C0
C0
C0
C0
FE
FE
ENDCHAR
STARTCHAR E146
ENCODING 57670
SWIDTH 822 0
DWIDTH 8 0
BBX 2 6 1 2
BITMAP
C0
C0
C0
C0
C0
C0
ENDCHAR
STARTCHAR E147
ENCODING 57671
SWIDTH 822 0
DWIDTH 8 0
BBX 7 6 1 2
BITMAP
CE
CE
C6
E6
7E
3E
ENDCHAR
STARTCHAR E148
ENCODING 57672
SWIDTH 822 0
DWIDTH 8 0
BBX 7 6 1 2
BITMAP
C6
C6
C6
C6
C6
C6
ENDCHAR
STARTCHAR E149
ENCODING 57673
SWIDTH 822 0
DWIDTH 8 0
BBX 4 6 3 2
BITMAP
40
40
40
40
F0
F0
ENDCHAR
STARTCHAR E14A
ENCODING 57674
SWIDTH 822 0
DWIDTH 8 0
BBX 7 6 1 2
BITMAP
06
06
C6
C6
7C
3C
ENDCHAR
STARTCHAR E14B
ENCODING 57675
SWIDTH 822 0
DWIDTH 8 0
BBX 7 6 1 2
BITMAP
F0
D8
CC
CC
C6
C6
ENDCHAR
STARTCHAR E14C
ENCODING 57676
SWIDTH 822 0
DWIDTH 8 0
BBX 7 6 1 2
BITMAP
C0
C0
C0
C0
FE
FE
ENDCHAR
STARTCHAR E14D
ENCODING 57677
SWIDTH 822 0
DWIDTH 8 0
BBX 7 6 1 2
BITMAP
C6
C6
C6
C6
C6
C6
ENDCHAR
STARTCHAR E14E
ENCODING 57678
SWIDTH 822 0
DWIDTH 8 0
BBX 7 6 1 2
BITMAP
CE
CE
C6
C6
C6
C6
ENDCHAR
STARTCHAR E14F
ENCODING 57679
SWIDTH 822 0
DWIDTH 8 0
BBX 7 6 1 2
BITMAP
C6
C6
C6
C6
7C
3C
ENDCHAR
STARTCHAR E150
ENCODING 57680
SWIDTH 822 0
DWIDTH 8 0
BBX 2 6 1 2
BITMAP
C0
C0
C0
C0
C0
C0
ENDCHAR
STARTCHAR E151
ENCODING 57681
SWIDTH 822 0
DWIDTH 8 0
BBX 7 6 1 2
BITMAP
D6
DE
CC
CC
7E
36
ENDCHAR
STARTCHAR E152
ENCODING 57682
SWIDTH 822 0
DWIDTH 8 0
BBX 7 6 1 2
BITMAP
D0
D8
CC
CC
C6
C6
ENDCHAR
STARTCHAR E153
ENCODING 57683
SWIDTH 822 0
DWIDTH 8 0
BBX 7 6 1 2
BITMAP
06
06
C6
C6
7C
3C
ENDCHAR
STARTCHAR E154
ENCODING 57684
SWIDTH 822 0
DWIDTH 8 0
BBX 1 6 4 2
BITMAP
80
80
80
80
80
80
ENDCHAR
STARTCHAR E155
ENCODING 57685
SWIDTH 822 0
DWIDTH 8 0
BBX 7 6 1 2
BITMAP
C6
C6
C6
C6
7C
3C
ENDCHAR
STARTCHAR E156
ENCODING 57686
SWIDTH 822 0
DWIDTH 8 0
BBX 4 6 3 2
BITMAP
B0
F0
E0
40
40
40
ENDCHAR
STARTCHAR E157
ENCODING 57687
SWIDTH 822 0
DWIDTH 8 0
BBX 7 6 1 2
BITMAP
D6
D6
D6
FE
7C
2C
ENDCHAR
STARTCHAR E158
ENCODING 57688
SWIDTH 822 0
DWIDTH 8 0
BBX 7 6 1 2
BITMAP
3C
6C
C6
C6
C6
C6
ENDCHAR
STARTCHAR E159
ENCODING 57689
SWIDTH 822 0
DWIDTH 8 0
BBX 1 6 4 2
BITMAP
80
80
80
80
80
80
ENDCHAR
STARTCHAR E15A
ENCODING 57690
SWIDTH 822 0
DWIDTH 8 0
BBX 7 6 1 2
BITMAP
30
60
C0
C0
FE
FE
ENDCHAR
STARTCHAR E15B
ENCODING 57691
SWIDTH 822 0
DWIDTH 8 0
BBX 2 4 3 4
BITMAP
80
C0
C0
40
ENDCHAR
STARTCHAR E15C
ENCODING 57692
SWIDTH 822 0
DWIDTH 8 0
BBX 3 4 5 4
BITMAP
C0
C0
60
60
ENDCHAR
STARTCHAR E15D
ENCODING 57693
SWIDTH 822 0
DWIDTH 8 0
BBX 3 4 4 4
BITMAP
60
60
C0
80
ENDCHAR
STARTCHAR E15E
ENCODING 57694
SWIDTH 822 0
DWIDTH 8 0
BBX 1 4 4 4
BITMAP
80
80
80
80
ENDCHAR
STARTCHAR E15F
ENCODING 57695
SWIDTH 822 0
DWIDTH 8 0
BBX 7 2 1 0
BITMAP
FE
FE
ENDCHAR
STARTCHAR E160
ENCODING 57696
SWIDTH 822 0
DWIDTH 8 0
BBX 0 0 0 0
BITMAP
ENDCHAR
STARTCHAR E161
ENCODING 57697
SWIDTH 822 0
DWIDTH 8 0
BBX 7 6 1 2
BITMAP
3E
7E
C6
C6
7E
3E
ENDCHAR
STARTCHAR E162
ENCODING 57698
SWIDTH 822 0
DWIDTH 8 0
BBX 7 6 1 2
BITMAP
C6
C6
C6
C6
FC
FC
ENDCHAR
STARTCHAR E163
ENCODING 57699
SWIDTH 822 0
DWIDTH 8 0
BBX 7 6 1 2
BITMAP
C0
C0
C0
C0
7E
3E
ENDCHAR
STARTCHAR E164
ENCODING 57700
SWIDTH 822 0
DWIDTH 8 0
BBX 7 6 1 2
BITMAP
C6
C6
C6
C6
7E
3E
ENDCHAR
STARTCHAR E165
ENCODING 57701
SWIDTH 822 0
DWIDTH 8 0
BBX 7 6 1 2
BITMAP
FE
FE
C0
C0
7C
3C
ENDCHAR
STARTCHAR E166
ENCODING 57702
SWIDTH 822 0
DWIDTH 8 0
BBX 1 6 4 2
BITMAP
80
80
80
80
80
80
ENDCHAR
STARTCHAR E167
ENCODING 57703
SWIDTH 822 0
DWIDTH 8 0
BBX 7 10 1 -2
BITMAP
C6
C6
C6
C6
7E
3E
06
06
3C
3C
ENDCHAR
STARTCHAR E168
ENCODING 57704
SWIDTH 822 0
DWIDTH 8 0
BBX 7 6 1 2
BITMAP
C6
C6
C6
C6
C6
C6
ENDCHAR
STARTCHAR E169
ENCODING 57705
SWIDTH 822 0
DWIDTH 8 0
BBX 4 6 3 2
BITMAP
40
40
40
40
F0
F0
ENDCHAR
STARTCHAR E16A
ENCODING 57706
SWIDTH 822 0
DWIDTH 8 0
BBX 2 10 3 -2
BITMAP
40
40
40
40
40
40
40
C0
C0
80
ENDCHAR
STARTCHAR E16B
ENCODING 57707
SWIDTH 822 0
DWIDTH 8 0
BBX 5 6 3 2
BITMAP
E0
E0
B0
B0
98
98
ENDCHAR
STARTCHAR E16C
ENCODING 57708
SWIDTH 822 0
DWIDTH 8 0
BBX 4 6 3 2
BITMAP
40
40
40
40
F0
F0
ENDCHAR
STARTCHAR E16D
ENCODING 57709
SWIDTH 822 0
DWIDTH 8 0
BBX 7 6 1 2
BITMAP
D6
D6
D6
D6
D6
D6
ENDCHAR
STARTCHAR E16E
ENCODING 57710
SWIDTH 822 0
DWIDTH 8 0
BBX 7 6 1 2
BITMAP
C6
C6
C6
C6
C6
C6
ENDCHAR
STARTCHAR E16F
ENCODING 57711
SWIDTH 822 0
DWIDTH 8 0
BBX 7 6 1 2
BITMAP
C6
C6
C6
C6
7C
3C
ENDCHAR
STARTCHAR E170
ENCODING 57712
SWIDTH 822 0
DWIDTH 8 0
BBX 7 10 1 -2
BITMAP
C6
C6
C6
C6
FC
FC
C0
C0
C0
C0
ENDCHAR
STARTCHAR E171
ENCODING 57713
SWIDTH 822 0
DWIDTH 8 0
BBX 7 10 1 -2
BITMAP
C6
C6
C6
C6
7E
3E
06
06
06
06
ENDCHAR
STARTCHAR E172
ENCODING 57714
SWIDTH 822 0
DWIDTH 8 0
BBX 1 6 3 2
BITMAP
80
80
80
80
80
80
ENDCHAR
STARTCHAR E173
ENCODING 57715
SWIDTH 822 0
DWIDTH 8 0
BBX 7 6 1 2
BITMAP
7C
3C
06
06
FC
FC
ENDCHAR
STARTCHAR E174
ENCODING 57716
SWIDTH 822 0
DWIDTH 8 0
BBX 3 6 4 2
BITMAP
80
80
80
C0
60
60
ENDCHAR
STARTCHAR E175
ENCODING 57717
SWIDTH 822 0
DWIDTH 8 0
BBX 7 6 1 2
BITMAP
C6
C6
C6
C6
7E
3E
ENDCHAR
STARTCHAR E176
ENCODING 57718
SWIDTH 822 0
DWIDTH 8 0
BBX 5 6 2 2
BITMAP
D8
58
58
78
70
20
ENDCHAR
STARTCHAR E177
ENCODING 57719
SWIDTH 822 0
DWIDTH 8 0
BBX 7 6 1 2
BITMAP
D6
D6
D6
FE
7C
2C
ENDCHAR
STARTCHAR E178
ENCODING 57720
SWIDTH 822 0
DWIDTH 8 0
BBX 7 6 1 2
BITMAP
38
38
3C
6C
C6
C6
ENDCHAR
STARTCHAR E179
ENCODING 57721
SWIDTH 822 0
DWIDTH 8 0
BBX 7 10 1 -2
BITMAP
C6
C6
C6
C6
7E
3E
06
06
3C
3C
ENDCHAR
STARTCHAR E17A
ENCODING 57722
SWIDTH 822 0
DWIDTH 8 0
BBX 7 6 1 2
BITMAP
18
30
30
20
FE
FE
ENDCHAR
STARTCHAR E17B
ENCODING 57723
SWIDTH 822 0
DWIDTH 8 0
BBX 4 6 3 2
BITMAP
80
80
80
80
F0
F0
ENDCHAR
STARTCHAR E17C
ENCODING 57724
SWIDTH 822 0
DWIDTH 8 0
BBX 4 6 3 2
BITMAP
B0
B0
B0
B0
B0
B0
ENDCHAR
STARTCHAR E17D
ENCODING 57725
SWIDTH 822 0
DWIDTH 8 0
BBX 4 6 3 2
BITMAP
30
30
30
30
F0
F0
ENDCHAR
STARTCHAR E17E
ENCODING 57726
SWIDTH 822 0
DWIDTH 8 0
BBX 0 0 0 0
BITMAP
ENDCHAR
STARTCHAR E17F
ENCODING 57727
SWIDTH 822 0
DWIDTH 8 0
BBX 0 0 0 0
BITMAP
ENDCHAR
STARTCHAR E180
ENCODING 57728
SWIDTH 822 0
DWIDTH 8 0
BBX 0 0 0 0
BITMAP
ENDCHAR
STARTCHAR E181
ENCODING 57729
SWIDTH 822 0
DWIDTH 8 0
BBX 0 0 0 0
BITMAP
ENDCHAR
STARTCHAR E182
ENCODING 57730
SWIDTH 822 0
DWIDTH 8 0
BBX 0 0 0 0
BITMAP
ENDCHAR
STARTCHAR E183
ENCODING 57731
SWIDTH 822 0
DWIDTH 8 0
BBX 0 0 0 0
BITMAP
ENDCHAR
STARTCHAR E184
ENCODING 57732
SWIDTH 822 0
DWIDTH 8 0
BBX 0 0 0 0
BITMAP
ENDCHAR
STARTCHAR E185
ENCODING 57733
SWIDTH 822 0
DWIDTH 8 0
BBX 0 0 0 0
BITMAP
ENDCHAR
STARTCHAR E186
ENCODING 57734
SWIDTH 822 0
DWIDTH 8 0
BBX 0 0 0 0
BITMAP
ENDCHAR
STARTCHAR E187
ENCODING 57735
SWIDTH 822 0
DWIDTH 8 0
BBX 0 0 0 0
BITMAP
ENDCHAR
STARTCHAR E188
ENCODING 57736
SWIDTH 822 0
DWIDTH 8 0
BBX 0 0 0 0
BITMAP
ENDCHAR
STARTCHAR E189
ENCODING 57737
SWIDTH 822 0
DWIDTH 8 0
BBX 0 0 0 0
BITMAP
ENDCHAR
STARTCHAR E18A
ENCODING 57738
SWIDTH 822 0
DWIDTH 8 0
BBX 0 0 0 0
BITMAP
ENDCHAR
STARTCHAR E18B
ENCODING 57739
SWIDTH 822 0
DWIDTH 8 0
BBX 0 0 0 0
BITMAP
ENDCHAR
STARTCHAR E18C
ENCODING 57740
SWIDTH 822 0
DWIDTH 8 0
BBX 0 0 0 0
BITMAP
ENDCHAR
STARTCHAR E18D
ENCODING 57741
SWIDTH 822 0
DWIDTH 8 0
BBX 0 0 0 0
BITMAP
ENDCHAR
STARTCHAR E18E
ENCODING 57742
SWIDTH 822 0
DWIDTH 8 0
BBX 0 0 0 0
BITMAP
ENDCHAR
STARTCHAR E18F
ENCODING 57743
SWIDTH 822 0
DWIDTH 8 0
BBX 0 0 0 0
BITMAP
ENDCHAR
STARTCHAR E190
ENCODING 57744
SWIDTH 822 0
DWIDTH 8 0
BBX 0 0 0 0
BITMAP
ENDCHAR
STARTCHAR E191
ENCODING 57745
SWIDTH 822 0
DWIDTH 8 0
BBX 0 0 0 0
BITMAP
ENDCHAR
STARTCHAR E192
ENCODING 57746
SWIDTH 822 0
DWIDTH 8 0
BBX 0 0 0 0
BITMAP
ENDCHAR
STARTCHAR E193
ENCODING 57747
SWIDTH 822 0
DWIDTH 8 0
BBX 0 0 0 0
BITMAP
ENDCHAR
STARTCHAR E194
ENCODING 57748
SWIDTH 822 0
DWIDTH 8 0
BBX 0 0 0 0
BITMAP
ENDCHAR
STARTCHAR E195
ENCODING 57749
SWIDTH 822 0
DWIDTH 8 0
BBX 0 0 0 0
BITMAP
ENDCHAR
STARTCHAR E196
ENCODING 57750
SWIDTH 822 0
DWIDTH 8 0
BBX 0 0 0 0
BITMAP
ENDCHAR
STARTCHAR E197
ENCODING 57751
SWIDTH 822 0
DWIDTH 8 0
BBX 0 0 0 0
BITMAP
ENDCHAR
STARTCHAR E198
ENCODING 57752
SWIDTH 822 0
DWIDTH 8 0
BBX 0 0 0 0
BITMAP
ENDCHAR
STARTCHAR E199
ENCODING 57753
SWIDTH 822 0
DWIDTH 8 0
BBX 0 0 0 0
BITMAP
ENDCHAR
STARTCHAR E19A
ENCODING 57754
SWIDTH 822 0
DWIDTH 8 0
BBX 0 0 0 0
BITMAP
ENDCHAR
STARTCHAR E19B
ENCODING 57755
SWIDTH 822 0
DWIDTH 8 0
BBX 0 0 0 0
BITMAP
ENDCHAR
STARTCHAR E19C
ENCODING 57756
SWIDTH 822 0
DWIDTH 8 0
BBX 0 0 0 0
BITMAP
ENDCHAR
STARTCHAR E19D
ENCODING 57757
SWIDTH 822 0
DWIDTH 8 0
BBX 0 0 0 0
BITMAP
ENDCHAR
STARTCHAR E19E
ENCODING 57758
SWIDTH 822 0
DWIDTH 8 0
BBX 0 0 0 0
BITMAP
ENDCHAR
STARTCHAR E19F
ENCODING 57759
SWIDTH 822 0
DWIDTH 8 0
BBX 0 0 0 0
BITMAP
ENDCHAR
STARTCHAR E1A0
ENCODING 57760
SWIDTH 822 0
DWIDTH 8 0
BBX 0 0 0 0
BITMAP
ENDCHAR
STARTCHAR E1A1
ENCODING 57761
SWIDTH 822 0
DWIDTH 8 0
BBX 0 0 0 0
BITMAP
ENDCHAR
STARTCHAR E1A2
ENCODING 57762
SWIDTH 822 0
DWIDTH 8 0
BBX 0 0 0 0
BITMAP
ENDCHAR
STARTCHAR E1A3
ENCODING 57763
SWIDTH 822 0
DWIDTH 8 0
BBX 7 6 1 2
BITMAP
20
20
20
20
FE
FE
ENDCHAR
STARTCHAR E1A4
ENCODING 57764
SWIDTH 822 0
DWIDTH 8 0
BBX 0 0 0 0
BITMAP
ENDCHAR
STARTCHAR E1A5
ENCODING 57765
SWIDTH 822 0
DWIDTH 8 0
BBX 0 0 0 0
BITMAP
ENDCHAR
STARTCHAR E1A6
ENCODING 57766
SWIDTH 822 0
DWIDTH 8 0
BBX 0 0 0 0
BITMAP
ENDCHAR
STARTCHAR E1A7
ENCODING 57767
SWIDTH 822 0
DWIDTH 8 0
BBX 0 0 0 0
BITMAP
ENDCHAR
STARTCHAR E1A8
ENCODING 57768
SWIDTH 822 0
DWIDTH 8 0
BBX 0 0 0 0
BITMAP
ENDCHAR
STARTCHAR E1A9
ENCODING 57769
SWIDTH 822 0
DWIDTH 8 0
BBX 0 0 0 0
BITMAP
ENDCHAR
STARTCHAR E1AA
ENCODING 57770
SWIDTH 822 0
DWIDTH 8 0
BBX 0 0 0 0
BITMAP
ENDCHAR
STARTCHAR E1AB
ENCODING 57771
SWIDTH 822 0
DWIDTH 8 0
BBX 0 0 0 0
BITMAP
ENDCHAR
STARTCHAR E1AC
ENCODING 57772
SWIDTH 822 0
DWIDTH 8 0
BBX 0 0 0 0
BITMAP
ENDCHAR
STARTCHAR E1AD
ENCODING 57773
SWIDTH 822 0
DWIDTH 8 0
BBX 0 0 0 0
BITMAP
ENDCHAR
STARTCHAR E1AE
ENCODING 57774
SWIDTH 822 0
DWIDTH 8 0
BBX 0 0 0 0
BITMAP
ENDCHAR
STARTCHAR E1AF
ENCODING 57775
SWIDTH 822 0
DWIDTH 8 0
BBX 0 0 0 0
BITMAP
ENDCHAR
STARTCHAR E1B0
ENCODING 57776
SWIDTH 822 0
DWIDTH 8 0
BBX 0 0 0 0
BITMAP
ENDCHAR
STARTCHAR E1B1
ENCODING 57777
SWIDTH 822 0
DWIDTH 8 0
BBX 0 0 0 0
BITMAP
ENDCHAR
STARTCHAR E1B2
ENCODING 57778
SWIDTH 822 0
DWIDTH 8 0
BBX 0 0 0 0
BITMAP
ENDCHAR
STARTCHAR E1B3
ENCODING 57779
SWIDTH 822 0
DWIDTH 8 0
BBX 0 0 0 0
BITMAP
ENDCHAR
STARTCHAR E1B4
ENCODING 57780
SWIDTH 822 0
DWIDTH 8 0
BBX 0 0 0 0
BITMAP
ENDCHAR
STARTCHAR E1B5
ENCODING 57781
SWIDTH 822 0
DWIDTH 8 0
BBX 0 0 0 0
BITMAP
ENDCHAR
STARTCHAR E1B6
ENCODING 57782
SWIDTH 822 0
DWIDTH 8 0
BBX 7 6 1 2
BITMAP
FE
FE
FE
FE
FE
FE
ENDCHAR
STARTCHAR E1B7
ENCODING 57783
SWIDTH 822 0
DWIDTH 8 0
BBX 0 0 0 0
BITMAP
ENDCHAR
STARTCHAR E1B8
ENCODING 57784
SWIDTH 822 0
DWIDTH 8 0
BBX 0 0 0 0
BITMAP
ENDCHAR
STARTCHAR E1B9
ENCODING 57785
SWIDTH 822 0
DWIDTH 8 0
BBX 0 0 0 0
BITMAP
ENDCHAR
STARTCHAR E1BA
ENCODING 57786
SWIDTH 822 0
DWIDTH 8 0
BBX 0 0 0 0
BITMAP
ENDCHAR
STARTCHAR E1BB
ENCODING 57787
SWIDTH 822 0
DWIDTH 8 0
BBX 0 0 0 0
BITMAP
ENDCHAR
STARTCHAR E1BC
ENCODING 57788
SWIDTH 822 0
DWIDTH 8 0
BBX 5 10 3 -2
BITMAP
98
98
38
38
78
58
78
78
18
18
ENDCHAR
STARTCHAR E1BD
ENCODING 57789
SWIDTH 822 0
DWIDTH 8 0
BBX 7 10 1 -2
BITMAP
DC
DC
06
06
0C
0C
18
10
1E
1E
ENDCHAR
STARTCHAR E1BE
ENCODING 57790
SWIDTH 822 0
DWIDTH 8 0
BBX 7 10 1 -2
BITMAP
F6
E6
0E
0E
1E
16
1E
1E
06
06
ENDCHAR
STARTCHAR E1BF
ENCODING 57791
SWIDTH 822 0
DWIDTH 8 0
BBX 0 0 0 0
BITMAP
ENDCHAR
STARTCHAR E1C0
ENCODING 57792
SWIDTH 822 0
DWIDTH 8 0
BBX 0 0 0 0
BITMAP
ENDCHAR
STARTCHAR E1C1
ENCODING 57793
SWIDTH 822 0
DWIDTH 8 0
BBX 0 0 0 0
BITMAP
ENDCHAR
STARTCHAR E1C2
ENCODING 57794
SWIDTH 822 0
DWIDTH 8 0
BBX 0 0 0 0
BITMAP
ENDCHAR
STARTCHAR E1C3
ENCODING 57795
SWIDTH 822 0
DWIDTH 8 0
BBX 0 0 0 0
BITMAP
ENDCHAR
STARTCHAR E1C4
ENCODING 57796
SWIDTH 822 0
DWIDTH 8 0
BBX 0 0 0 0
BITMAP
ENDCHAR
STARTCHAR E1C5
ENCODING 57797
SWIDTH 822 0
DWIDTH 8 0
BBX 0 0 0 0
BITMAP
ENDCHAR
STARTCHAR E1C6
ENCODING 57798
SWIDTH 822 0
DWIDTH 8 0
BBX 0 0 0 0
BITMAP
ENDCHAR
STARTCHAR E1C7
ENCODING 57799
SWIDTH 822 0
DWIDTH 8 0
BBX 0 0 0 0
BITMAP
ENDCHAR
STARTCHAR E1C8
ENCODING 57800
SWIDTH 822 0
DWIDTH 8 0
BBX 0 0 0 0
BITMAP
ENDCHAR
STARTCHAR E1C9
ENCODING 57801
SWIDTH 822 0
DWIDTH 8 0
BBX 0 0 0 0
BITMAP
ENDCHAR
STARTCHAR E1CA
ENCODING 57802
SWIDTH 822 0
DWIDTH 8 0
BBX 0 0 0 0
BITMAP
ENDCHAR
STARTCHAR E1CB
ENCODING 57803
SWIDTH 822 0
DWIDTH 8 0
BBX 0 0 0 0
BITMAP
ENDCHAR
STARTCHAR E1CC
ENCODING 57804
SWIDTH 822 0
DWIDTH 8 0
BBX 0 0 0 0
BITMAP
ENDCHAR
STARTCHAR E1CD
ENCODING 57805
SWIDTH 822 0
DWIDTH 8 0
BBX 0 0 0 0
BITMAP
ENDCHAR
STARTCHAR E1CE
ENCODING 57806
SWIDTH 822 0
DWIDTH 8 0
BBX 0 0 0 0
BITMAP
ENDCHAR
STARTCHAR E1CF
ENCODING 57807
SWIDTH 822 0
DWIDTH 8 0
BBX 0 0 0 0
BITMAP
ENDCHAR
STARTCHAR E1D0
ENCODING 57808
SWIDTH 822 0
DWIDTH 8 0
BBX 0 0 0 0
BITMAP
ENDCHAR
STARTCHAR E1D1
ENCODING 57809
SWIDTH 822 0
DWIDTH 8 0
BBX 0 0 0 0
BITMAP
ENDCHAR
STARTCHAR E1D2
ENCODING 57810
SWIDTH 822 0
DWIDTH 8 0
BBX 0 0 0 0
BITMAP
ENDCHAR
STARTCHAR E1D3
ENCODING 57811
SWIDTH 822 0
DWIDTH 8 0
BBX 0 0 0 0
BITMAP
ENDCHAR
STARTCHAR E1D4
ENCODING 57812
SWIDTH 822 0
DWIDTH 8 0
BBX 0 0 0 0
BITMAP
ENDCHAR
STARTCHAR E1D5
ENCODING 57813
SWIDTH 822 0
DWIDTH 8 0
BBX 0 0 0 0
BITMAP
ENDCHAR
STARTCHAR E1D6
ENCODING 57814
SWIDTH 822 0
DWIDTH 8 0
BBX 0 0 0 0
BITMAP
ENDCHAR
STARTCHAR E1D7
ENCODING 57815
SWIDTH 822 0
DWIDTH 8 0
BBX 0 0 0 0
BITMAP
ENDCHAR
STARTCHAR E1D8
ENCODING 57816
SWIDTH 822 0
DWIDTH 8 0
BBX 0 0 0 0
BITMAP
ENDCHAR
STARTCHAR E1D9
ENCODING 57817
SWIDTH 822 0
DWIDTH 8 0
BBX 0 0 0 0
BITMAP
ENDCHAR
STARTCHAR E1DA
ENCODING 57818
SWIDTH 822 0
DWIDTH 8 0
BBX 0 0 0 0
BITMAP
ENDCHAR
STARTCHAR E1DB
ENCODING 57819
SWIDTH 822 0
DWIDTH 8 0
BBX 0 0 0 0
BITMAP
ENDCHAR
STARTCHAR E1DC
ENCODING 57820
SWIDTH 822 0
DWIDTH 8 0
BBX 0 0 0 0
BITMAP
ENDCHAR
STARTCHAR E1DD
ENCODING 57821
SWIDTH 822 0
DWIDTH 8 0
BBX 0 0 0 0
BITMAP
ENDCHAR
STARTCHAR E1DE
ENCODING 57822
SWIDTH 822 0
DWIDTH 8 0
BBX 0 0 0 0
BITMAP
ENDCHAR
STARTCHAR E1DF
ENCODING 57823
SWIDTH 822 0
DWIDTH 8 0
BBX 0 0 0 0
BITMAP
ENDCHAR
STARTCHAR E1E0
ENCODING 57824
SWIDTH 822 0
DWIDTH 8 0
BBX 0 0 0 0
BITMAP
ENDCHAR
STARTCHAR E1E1
ENCODING 57825
SWIDTH 822 0
DWIDTH 8 0
BBX 0 0 0 0
BITMAP
ENDCHAR
STARTCHAR E1E2
ENCODING 57826
SWIDTH 822 0
DWIDTH 8 0
BBX 0 0 0 0
BITMAP
ENDCHAR
STARTCHAR E1E3
ENCODING 57827
SWIDTH 822 0
DWIDTH 8 0
BBX 0 0 0 0
BITMAP
ENDCHAR
STARTCHAR E1E4
ENCODING 57828
SWIDTH 822 0
DWIDTH 8 0
BBX 0 0 0 0
BITMAP
ENDCHAR
STARTCHAR E1E5
ENCODING 57829
SWIDTH 822 0
DWIDTH 8 0
BBX 0 0 0 0
BITMAP
ENDCHAR
STARTCHAR E1E6
ENCODING 57830
SWIDTH 822 0
DWIDTH 8 0
BBX 0 0 0 0
BITMAP
ENDCHAR
STARTCHAR E1E7
ENCODING 57831
SWIDTH 822 0
DWIDTH 8 0
BBX 0 0 0 0
BITMAP
ENDCHAR
STARTCHAR E1E8
ENCODING 57832
SWIDTH 822 0
DWIDTH 8 0
BBX 0 0 0 0
BITMAP
ENDCHAR
STARTCHAR E1E9
ENCODING 57833
SWIDTH 822 0
DWIDTH 8 0
BBX 0 0 0 0
BITMAP
ENDCHAR
STARTCHAR E1EA
ENCODING 57834
SWIDTH 822 0
DWIDTH 8 0
BBX 0 0 0 0
BITMAP
ENDCHAR
STARTCHAR E1EB
ENCODING 57835
SWIDTH 822 0
DWIDTH 8 0
BBX 0 0 0 0
BITMAP
ENDCHAR
STARTCHAR E1EC
ENCODING 57836
SWIDTH 822 0
DWIDTH 8 0
BBX 0 0 0 0
BITMAP
ENDCHAR
STARTCHAR E1ED
ENCODING 57837
SWIDTH 822 0
DWIDTH 8 0
BBX 0 0 0 0
BITMAP
ENDCHAR
STARTCHAR E1EE
ENCODING 57838
SWIDTH 822 0
DWIDTH 8 0
BBX 0 0 0 0
BITMAP
ENDCHAR
STARTCHAR E1EF
ENCODING 57839
SWIDTH 822 0
DWIDTH 8 0
BBX 0 0 0 0
BITMAP
ENDCHAR
STARTCHAR E1F0
ENCODING 57840
SWIDTH 822 0
DWIDTH 8 0
BBX 0 0 0 0
BITMAP
ENDCHAR
STARTCHAR E1F1
ENCODING 57841
SWIDTH 822 0
DWIDTH 8 0
BBX 0 0 0 0
BITMAP
ENDCHAR
STARTCHAR E1F2
ENCODING 57842
SWIDTH 822 0
DWIDTH 8 0
BBX 0 0 0 0
BITMAP
ENDCHAR
STARTCHAR E1F3
ENCODING 57843
SWIDTH 822 0
DWIDTH 8 0
BBX 0 0 0 0
BITMAP
ENDCHAR
STARTCHAR E1F4
ENCODING 57844
SWIDTH 822 0
DWIDTH 8 0
BBX 0 0 0 0
BITMAP
ENDCHAR
STARTCHAR E1F5
ENCODING 57845
SWIDTH 822 0
DWIDTH 8 0
BBX 0 0 0 0
BITMAP
ENDCHAR
STARTCHAR E1F6
ENCODING 57846
SWIDTH 822 0
DWIDTH 8 0
BBX 0 0 0 0
BITMAP
ENDCHAR
STARTCHAR E1F7
ENCODING 57847
SWIDTH 822 0
DWIDTH 8 0
BBX 1 2 4 4
BITMAP
80
80
ENDCHAR
STARTCHAR E1F8
ENCODING 57848
SWIDTH 822 0
DWIDTH 8 0
BBX 0 0 0 0
BITMAP
ENDCHAR
STARTCHAR E1F9
ENCODING 57849
SWIDTH 822 0
DWIDTH 8 0
BBX 0 0 0 0
BITMAP
ENDCHAR
STARTCHAR E1FA
ENCODING 57850
SWIDTH 822 0
DWIDTH 8 0
BBX 0 0 0 0
BITMAP
ENDCHAR
STARTCHAR E1FB
ENCODING 57851
SWIDTH 822 0
DWIDTH 8 0
BBX 0 0 0 0
BITMAP
ENDCHAR
STARTCHAR E1FC
ENCODING 57852
SWIDTH 822 0
DWIDTH 8 0
BBX 0 0 0 0
BITMAP
ENDCHAR
STARTCHAR E1FD
ENCODING 57853
SWIDTH 822 0
DWIDTH 8 0
BBX 0 0 0 0
BITMAP
ENDCHAR
STARTCHAR E1FE
ENCODING 57854
SWIDTH 822 0
DWIDTH 8 0
BBX 0 0 0 0
BITMAP
ENDCHAR
STARTCHAR E1FF
ENCODING 57855
SWIDTH 822 0
DWIDTH 8 0
BBX 0 0 0 0
BITMAP
ENDCHAR
STARTCHAR E200
ENCODING 57856
SWIDTH 822 0
DWIDTH 8 0
BBX 0 0 0 0
BITMAP
ENDCHAR
STARTCHAR E201
ENCODING 57857
SWIDTH 822 0
DWIDTH 8 0
BBX 4 3 0 5
BITMAP
F0
F0
F0
ENDCHAR
STARTCHAR E202
ENCODING 57858
SWIDTH 822 0
DWIDTH 8 0
BBX 4 3 4 5
BITMAP
F0
F0
F0
ENDCHAR
STARTCHAR E203
ENCODING 57859
SWIDTH 822 0
DWIDTH 8 0
BBX 8 3 0 5
BITMAP
FF
FF
FF
ENDCHAR
STARTCHAR E204
ENCODING 57860
SWIDTH 822 0
DWIDTH 8 0
BBX 4 4 0 1
BITMAP
F0
F0
F0
F0
ENDCHAR
STARTCHAR E205
ENCODING 57861
SWIDTH 822 0
DWIDTH 8 0
BBX 4 7 0 1
BITMAP
F0
F0
F0
F0
F0
F0
F0
ENDCHAR
STARTCHAR E206
ENCODING 57862
SWIDTH 822 0
DWIDTH 8 0
BBX 8 7 0 1
BITMAP
0F
0F
0F
F0
F0
F0
F0
ENDCHAR
STARTCHAR E207
ENCODING 57863
SWIDTH 822 0
DWIDTH 8 0
BBX 8 7 0 1
BITMAP
FF
FF
FF
F0
F0
F0
F0
ENDCHAR
STARTCHAR E208
ENCODING 57864
SWIDTH 822 0
DWIDTH 8 0
BBX 4 4 4 1
BITMAP
F0
F0
F0
F0
ENDCHAR
STARTCHAR E209
ENCODING 57865
SWIDTH 822 0
DWIDTH 8 0
BBX 8 7 0 1
BITMAP
F0
F0
F0
0F
0F
0F
0F
ENDCHAR
STARTCHAR E20A
ENCODING 57866
SWIDTH 822 0
DWIDTH 8 0
BBX 4 7 4 1
BITMAP
F0
F0
F0
F0
F0
F0
F0
ENDCHAR
STARTCHAR E20B
ENCODING 57867
SWIDTH 822 0
DWIDTH 8 0
BBX 8 7 0 1
BITMAP
FF
FF
FF
0F
0F
0F
0F
ENDCHAR
STARTCHAR E20C
ENCODING 57868
SWIDTH 822 0
DWIDTH 8 0
BBX 8 4 0 1
BITMAP
FF
FF
FF
FF
ENDCHAR
STARTCHAR E20D
ENCODING 57869
SWIDTH 822 0
DWIDTH 8 0
BBX 8 7 0 1
BITMAP
F0
F0
F0
FF
FF
FF
FF
ENDCHAR
STARTCHAR E20E
ENCODING 57870
SWIDTH 822 0
DWIDTH 8 0
BBX 8 7 0 1
BITMAP
0F
0F
0F
FF
FF
FF
FF
ENDCHAR
STARTCHAR E20F
ENCODING 57871
SWIDTH 822 0
DWIDTH 8 0
BBX 8 7 0 1
BITMAP
FF
FF
FF
FF
FF
FF
FF
ENDCHAR
STARTCHAR E210
ENCODING 57872
SWIDTH 822 0
DWIDTH 8 0
BBX 4 3 0 -2
BITMAP
F0
F0
F0
ENDCHAR
STARTCHAR E211
ENCODING 57873
SWIDTH 822 0
DWIDTH 8 0
BBX 4 10 0 -2
BITMAP
F0
F0
F0
00
00
00
00
F0
F0
F0
ENDCHAR
STARTCHAR E212
ENCODING 57874
SWIDTH 822 0
DWIDTH 8 0
BBX 8 10 0 -2
BITMAP
0F
0F
0F
00
00
00
00
F0
F0
F0
ENDCHAR
STARTCHAR E213
ENCODING 57875
SWIDTH 822 0
DWIDTH 8 0
BBX 8 10 0 -2
BITMAP
FF
FF
FF
00
00
00
00
F0
F0
F0
ENDCHAR
STARTCHAR E214
ENCODING 57876
SWIDTH 822 0
DWIDTH 8 0
BBX 4 7 0 -2
BITMAP
F0
F0
F0
F0
F0
F0
F0
ENDCHAR
STARTCHAR E215
ENCODING 57877
SWIDTH 822 0
DWIDTH 8 0
BBX 4 10 0 -2
BITMAP
F0
F0
F0
F0
F0
F0
F0
F0
F0
F0
ENDCHAR
STARTCHAR E216
ENCODING 57878
SWIDTH 822 0
DWIDTH 8 0
BBX 8 10 0 -2
BITMAP
0F
0F
0F
F0
F0
F0
F0
F0
F0
F0
ENDCHAR
STARTCHAR E217
ENCODING 57879
SWIDTH 822 0
DWIDTH 8 0
BBX 8 10 0 -2
BITMAP
FF
FF
FF
F0
F0
F0
F0
F0
F0
F0
ENDCHAR
STARTCHAR E218
ENCODING 57880
SWIDTH 822 0
DWIDTH 8 0
BBX 8 7 0 -2
BITMAP
0F
0F
0F
0F
F0
F0
F0
ENDCHAR
STARTCHAR E219
ENCODING 57881
SWIDTH 822 0
DWIDTH 8 0
BBX 8 10 0 -2
BITMAP
F0
F0
F0
0F
0F
0F
0F
F0
F0
F0
ENDCHAR
STARTCHAR E21A
ENCODING 57882
SWIDTH 822 0
DWIDTH 8 0
BBX 8 10 0 -2
BITMAP
0F
0F
0F
0F
0F
0F
0F
F0
F0
F0
ENDCHAR
STARTCHAR E21B
ENCODING 57883
SWIDTH 822 0
DWIDTH 8 0
BBX 8 10 0 -2
BITMAP
FF
FF
FF
0F
0F
0F
0F
F0
F0
F0
ENDCHAR
STARTCHAR E21C
ENCODING 57884
SWIDTH 822 0
DWIDTH 8 0
BBX 8 7 0 -2
BITMAP
FF
FF
FF
FF
F0
F0
F0
ENDCHAR
STARTCHAR E21D
ENCODING 57885
SWIDTH 822 0
DWIDTH 8 0
BBX 8 10 0 -2
BITMAP
F0
F0
F0
FF
FF
FF
FF
F0
F0
F0
ENDCHAR
STARTCHAR E21E
ENCODING 57886
SWIDTH 822 0
DWIDTH 8 0
BBX 8 10 0 -2
BITMAP
0F
0F
0F
FF
FF
FF
FF
F0
F0
F0
ENDCHAR
STARTCHAR E21F
ENCODING 57887
SWIDTH 822 0
DWIDTH 8 0
BBX 8 10 0 -2
BITMAP
FF
FF
FF
FF
FF
FF
FF
F0
F0
F0
ENDCHAR
STARTCHAR E220
ENCODING 57888
SWIDTH 822 0
DWIDTH 8 0
BBX 4 3 4 -2
BITMAP
F0
F0
F0
ENDCHAR
STARTCHAR E221
ENCODING 57889
SWIDTH 822 0
DWIDTH 8 0
BBX 8 10 0 -2
BITMAP
F0
F0
F0
00
00
00
00
0F
0F
0F
ENDCHAR
STARTCHAR E222
ENCODING 57890
SWIDTH 822 0
DWIDTH 8 0
BBX 4 10 4 -2
BITMAP
F0
F0
F0
00
00
00
00
F0
F0
F0
ENDCHAR
STARTCHAR E223
ENCODING 57891
SWIDTH 822 0
DWIDTH 8 0
BBX 8 10 0 -2
BITMAP
FF
FF
FF
00
00
00
00
0F
0F
0F
ENDCHAR
STARTCHAR E224
ENCODING 57892
SWIDTH 822 0
DWIDTH 8 0
BBX 8 7 0 -2
BITMAP
F0
F0
F0
F0
0F
0F
0F
ENDCHAR
STARTCHAR E225
ENCODING 57893
SWIDTH 822 0
DWIDTH 8 0
BBX 8 10 0 -2
BITMAP
F0
F0
F0
F0
F0
F0
F0
0F
0F
0F
ENDCHAR
STARTCHAR E226
ENCODING 57894
SWIDTH 822 0
DWIDTH 8 0
BBX 8 10 0 -2
BITMAP
0F
0F
0F
F0
F0
F0
F0
0F
0F
0F
ENDCHAR
STARTCHAR E227
ENCODING 57895
SWIDTH 822 0
DWIDTH 8 0
BBX 8 10 0 -2
BITMAP
FF
FF
FF
F0
F0
F0
F0
0F
0F
0F
ENDCHAR
STARTCHAR E228
ENCODING 57896
SWIDTH 822 0
DWIDTH 8 0
BBX 4 7 4 -2
BITMAP
F0
F0
F0
F0
F0
F0
F0
ENDCHAR
STARTCHAR E229
ENCODING 57897
SWIDTH 822 0
DWIDTH 8 0
BBX 8 10 0 -2
BITMAP
F0
F0
F0
0F
0F
0F
0F
0F
0F
0F
ENDCHAR
STARTCHAR E22A
ENCODING 57898
SWIDTH 822 0
DWIDTH 8 0
BBX 4 10 4 -2
BITMAP
F0
F0
F0
F0
F0
F0
F0
F0
F0
F0
ENDCHAR
STARTCHAR E22B
ENCODING 57899
SWIDTH 822 0
DWIDTH 8 0
BBX 8 10 0 -2
BITMAP
FF
FF
FF
0F
0F
0F
0F
0F
0F
0F
ENDCHAR
STARTCHAR E22C
ENCODING 57900
SWIDTH 822 0
DWIDTH 8 0
BBX 8 7 0 -2
BITMAP
FF
FF
FF
FF
0F
0F
0F
ENDCHAR
STARTCHAR E22D
ENCODING 57901
SWIDTH 822 0
DWIDTH 8 0
BBX 8 10 0 -2
BITMAP
F0
F0
F0
FF
FF
FF
FF
0F
0F
0F
ENDCHAR
STARTCHAR E22E
ENCODING 57902
SWIDTH 822 0
DWIDTH 8 0
BBX 8 10 0 -2
BITMAP
0F
0F
0F
FF
FF
FF
FF
0F
0F
0F
ENDCHAR
STARTCHAR E22F
ENCODING 57903
SWIDTH 822 0
DWIDTH 8 0
BBX 8 10 0 -2
BITMAP
FF
FF
FF
FF
FF
FF
FF
0F
0F
0F
ENDCHAR
STARTCHAR E230
ENCODING 57904
SWIDTH 822 0
DWIDTH 8 0
BBX 8 3 0 -2
BITMAP
FF
FF
FF
ENDCHAR
STARTCHAR E231
ENCODING 57905
SWIDTH 822 0
DWIDTH 8 0
BBX 8 10 0 -2
BITMAP
F0
F0
F0
00
00
00
00
FF
FF
FF
ENDCHAR
STARTCHAR E232
ENCODING 57906
SWIDTH 822 0
DWIDTH 8 0
BBX 8 10 0 -2
BITMAP
0F
0F
0F
00
00
00
00
FF
FF
FF
ENDCHAR
STARTCHAR E233
ENCODING 57907
SWIDTH 822 0
DWIDTH 8 0
BBX 8 10 0 -2
BITMAP
FF
FF
FF
00
00
00
00
FF
FF
FF
ENDCHAR
STARTCHAR E234
ENCODING 57908
SWIDTH 822 0
DWIDTH 8 0
BBX 8 7 0 -2
BITMAP
F0
F0
F0
F0
FF
FF
FF
ENDCHAR
STARTCHAR E235
ENCODING 57909
SWIDTH 822 0
DWIDTH 8 0
BBX 8 10 0 -2
BITMAP
F0
F0
F0
F0
F0
F0
F0
FF
FF
FF
ENDCHAR
STARTCHAR E236
ENCODING 57910
SWIDTH 822 0
DWIDTH 8 0
BBX 8 10 0 -2
BITMAP
0F
0F
0F
F0
F0
F0
F0
FF
FF
FF
ENDCHAR
STARTCHAR E237
ENCODING 57911
SWIDTH 822 0
DWIDTH 8 0
BBX 8 10 0 -2
BITMAP
FF
FF
FF
F0
F0
F0
F0
FF
FF
FF
ENDCHAR
STARTCHAR E238
ENCODING 57912
SWIDTH 822 0
DWIDTH 8 0
BBX 8 7 0 -2
BITMAP
0F
0F
0F
0F
FF
FF
FF
ENDCHAR
STARTCHAR E239
ENCODING 57913
SWIDTH 822 0
DWIDTH 8 0
BBX 8 10 0 -2
BITMAP
F0
F0
F0
0F
0F
0F
0F
FF
FF
FF
ENDCHAR
STARTCHAR E23A
ENCODING 57914
SWIDTH 822 0
DWIDTH 8 0
BBX 8 10 0 -2
BITMAP
0F
0F
0F
0F
0F
0F
0F
FF
FF
FF
ENDCHAR
STARTCHAR E23B
ENCODING 57915
SWIDTH 822 0
DWIDTH 8 0
BBX 8 10 0 -2
BITMAP
FF
FF
FF
0F
0F
0F
0F
FF
FF
FF
ENDCHAR
STARTCHAR E23C
ENCODING 57916
SWIDTH 822 0
DWIDTH 8 0
BBX 8 7 0 -2
BITMAP
FF
FF
FF
FF
FF
FF
FF
ENDCHAR
STARTCHAR E23D
ENCODING 57917
SWIDTH 822 0
DWIDTH 8 0
BBX 8 10 0 -2
BITMAP
F0
F0
F0
FF
FF
FF
FF
FF
FF
FF
ENDCHAR
STARTCHAR E23E
ENCODING 57918
SWIDTH 822 0
DWIDTH 8 0
BBX 8 10 0 -2
BITMAP
0F
0F
0F
FF
FF
FF
FF
FF
FF
FF
ENDCHAR
STARTCHAR E23F
ENCODING 57919
SWIDTH 822 0
DWIDTH 8 0
BBX 8 10 0 -2
BITMAP
FF
FF
FF
FF
FF
FF
FF
FF
FF
FF
ENDCHAR
STARTCHAR E240
ENCODING 57920
SWIDTH 822 0
DWIDTH 8 0
BBX 0 0 0 0
BITMAP
ENDCHAR
STARTCHAR E241
ENCODING 57921
SWIDTH 822 0
DWIDTH 8 0
BBX 4 6 0 2
BITMAP
F0
F0
F0
F0
F0
F0
ENDCHAR
STARTCHAR E242
ENCODING 57922
SWIDTH 822 0
DWIDTH 8 0
BBX 4 6 4 2
BITMAP
F0
F0
F0
F0
F0
F0
ENDCHAR
STARTCHAR E243
ENCODING 57923
SWIDTH 822 0
DWIDTH 8 0
BBX 8 6 0 2
BITMAP
FF
FF
FF
FF
FF
FF
ENDCHAR
STARTCHAR E244
ENCODING 57924
SWIDTH 822 0
DWIDTH 8 0
BBX 4 4 0 -2
BITMAP
F0
F0
F0
F0
ENDCHAR
STARTCHAR E245
ENCODING 57925
SWIDTH 822 0
DWIDTH 8 0
BBX 4 10 0 -2
BITMAP
F0
F0
F0
F0
F0
F0
F0
F0
F0
F0
ENDCHAR
STARTCHAR E246
ENCODING 57926
SWIDTH 822 0
DWIDTH 8 0
BBX 8 10 0 -2
BITMAP
0F
0F
0F
0F
0F
0F
F0
F0
F0
F0
ENDCHAR
STARTCHAR E247
ENCODING 57927
SWIDTH 822 0
DWIDTH 8 0
BBX 8 10 0 -2
BITMAP
FF
FF
FF
FF
FF
FF
F0
F0
F0
F0
ENDCHAR
STARTCHAR E248
ENCODING 57928
SWIDTH 822 0
DWIDTH 8 0
BBX 4 4 4 -2
BITMAP
F0
F0
F0
F0
ENDCHAR
STARTCHAR E249
ENCODING 57929
SWIDTH 822 0
DWIDTH 8 0
BBX 8 10 0 -2
BITMAP
F0
F0
F0
F0
F0
F0
0F
0F
0F
0F
ENDCHAR
STARTCHAR E24A
ENCODING 57930
SWIDTH 822 0
DWIDTH 8 0
BBX 4 10 4 -2
BITMAP
F0
F0
F0
F0
F0
F0
F0
F0
F0
F0
ENDCHAR
STARTCHAR E24B
ENCODING 57931
SWIDTH 822 0
DWIDTH 8 0
BBX 8 10 0 -2
BITMAP
FF
FF
FF
FF
FF
FF
0F
0F
0F
0F
ENDCHAR
STARTCHAR E24C
ENCODING 57932
SWIDTH 822 0
DWIDTH 8 0
BBX 8 4 0 -2
BITMAP
FF
FF
FF
FF
ENDCHAR
STARTCHAR E24D
ENCODING 57933
SWIDTH 822 0
DWIDTH 8 0
BBX 8 10 0 -2
BITMAP
F0
F0
F0
F0
F0
F0
FF
FF
FF
FF
ENDCHAR
STARTCHAR E24E
ENCODING 57934
SWIDTH 822 0
DWIDTH 8 0
BBX 8 10 0 -2
BITMAP
0F
0F
0F
0F
0F
0F
FF
FF
FF
FF
ENDCHAR
STARTCHAR E24F
ENCODING 57935
SWIDTH 822 0
DWIDTH 8 0
BBX 8 10 0 -2
BITMAP
FF
FF
FF
FF
FF
FF
FF
FF
FF
FF
ENDCHAR
STARTCHAR E250
ENCODING 57936
SWIDTH 822 0
DWIDTH 8 0
BBX 0 0 0 0
BITMAP
ENDCHAR
STARTCHAR E251
ENCODING 57937
SWIDTH 822 0
DWIDTH 8 0
BBX 4 6 0 2
BITMAP
F0
F0
F0
F0
F0
F0
ENDCHAR
STARTCHAR E252
ENCODING 57938
SWIDTH 822 0
DWIDTH 8 0
BBX 4 6 4 2
BITMAP
F0
F0
F0
F0
F0
F0
ENDCHAR
STARTCHAR E253
ENCODING 57939
SWIDTH 822 0
DWIDTH 8 0
BBX 8 6 0 2
BITMAP
FF
FF
FF
FF
FF
FF
ENDCHAR
STARTCHAR E254
ENCODING 57940
SWIDTH 822 0
DWIDTH 8 0
BBX 4 4 0 -2
BITMAP
F0
F0
F0
F0
ENDCHAR
STARTCHAR E255
ENCODING 57941
SWIDTH 822 0
DWIDTH 8 0
BBX 4 10 0 -2
BITMAP
F0
F0
F0
F0
F0
F0
F0
F0
F0
F0
ENDCHAR
STARTCHAR E256
ENCODING 57942
SWIDTH 822 0
DWIDTH 8 0
BBX 8 10 0 -2
BITMAP
0F
0F
0F
0F
0F
0F
F0
F0
F0
F0
ENDCHAR
STARTCHAR E257
ENCODING 57943
SWIDTH 822 0
DWIDTH 8 0
BBX 8 10 0 -2
BITMAP
FF
FF
FF
FF
FF
FF
F0
F0
F0
F0
ENDCHAR
STARTCHAR E258
ENCODING 57944
SWIDTH 822 0
DWIDTH 8 0
BBX 4 4 4 -2
BITMAP
F0
F0
F0
F0
ENDCHAR
STARTCHAR E259
ENCODING 57945
SWIDTH 822 0
DWIDTH 8 0
BBX 8 10 0 -2
BITMAP
F0
F0
F0
F0
F0
F0
0F
0F
0F
0F
ENDCHAR
STARTCHAR E25A
ENCODING 57946
SWIDTH 822 0
DWIDTH 8 0
BBX 4 10 4 -2
BITMAP
F0
F0
F0
F0
F0
F0
F0
F0
F0
F0
ENDCHAR
STARTCHAR E25B
ENCODING 57947
SWIDTH 822 0
DWIDTH 8 0
BBX 8 10 0 -2
BITMAP
FF
FF
FF
FF
FF
FF
0F
0F
0F
0F
ENDCHAR
STARTCHAR E25C
ENCODING 57948
SWIDTH 822 0
DWIDTH 8 0
BBX 8 4 0 -2
BITMAP
FF
FF
FF
FF
ENDCHAR
STARTCHAR E25D
ENCODING 57949
SWIDTH 822 0
DWIDTH 8 0
BBX 8 10 0 -2
BITMAP
F0
F0
F0
F0
F0
F0
FF
FF
FF
FF
ENDCHAR
STARTCHAR E25E
ENCODING 57950
SWIDTH 822 0
DWIDTH 8 0
BBX 8 10 0 -2
BITMAP
0F
0F
0F
0F
0F
0F
FF
FF
FF
FF
ENDCHAR
STARTCHAR E25F
ENCODING 57951
SWIDTH 822 0
DWIDTH 8 0
BBX 8 10 0 -2
BITMAP
FF
FF
FF
FF
FF
FF
FF
FF
FF
FF
ENDCHAR
STARTCHAR E260
ENCODING 57952
SWIDTH 822 0
DWIDTH 8 0
BBX 0 0 0 0
BITMAP
ENDCHAR
STARTCHAR E261
ENCODING 57953
SWIDTH 822 0
DWIDTH 8 0
BBX 4 6 0 2
BITMAP
F0
F0
F0
F0
F0
F0
ENDCHAR
STARTCHAR E262
ENCODING 57954
SWIDTH 822 0
DWIDTH 8 0
BBX 4 6 4 2
BITMAP
F0
F0
F0
F0
F0
F0
ENDCHAR
STARTCHAR E263
ENCODING 57955
SWIDTH 822 0
DWIDTH 8 0
BBX 8 6 0 2
BITMAP
FF
FF
FF
FF
FF
FF
ENDCHAR
STARTCHAR E264
ENCODING 57956
SWIDTH 822 0
DWIDTH 8 0
BBX 4 4 0 -2
BITMAP
F0
F0
F0
F0
ENDCHAR
STARTCHAR E265
ENCODING 57957
SWIDTH 822 0
DWIDTH 8 0
BBX 4 10 0 -2
BITMAP
F0
F0
F0
F0
F0
F0
F0
F0
F0
F0
ENDCHAR
STARTCHAR E266
ENCODING 57958
SWIDTH 822 0
DWIDTH 8 0
BBX 8 10 0 -2
BITMAP
0F
0F
0F
0F
0F
0F
F0
F0
F0
F0
ENDCHAR
STARTCHAR E267
ENCODING 57959
SWIDTH 822 0
DWIDTH 8 0
BBX 8 10 0 -2
BITMAP
FF
FF
FF
FF
FF
FF
F0
F0
F0
F0
ENDCHAR
STARTCHAR E268
ENCODING 57960
SWIDTH 822 0
DWIDTH 8 0
BBX 4 4 4 -2
BITMAP
F0
F0
F0
F0
ENDCHAR
STARTCHAR E269
ENCODING 57961
SWIDTH 822 0
DWIDTH 8 0
BBX 8 10 0 -2
BITMAP
F0
F0
F0
F0
F0
F0
0F
0F
0F
0F
ENDCHAR
STARTCHAR E26A
ENCODING 57962
SWIDTH 822 0
DWIDTH 8 0
BBX 4 10 4 -2
BITMAP
F0
F0
F0
F0
F0
F0
F0
F0
F0
F0
ENDCHAR
STARTCHAR E26B
ENCODING 57963
SWIDTH 822 0
DWIDTH 8 0
BBX 8 10 0 -2
BITMAP
FF
FF
FF
FF
FF
FF
0F
0F
0F
0F
ENDCHAR
STARTCHAR E26C
ENCODING 57964
SWIDTH 822 0
DWIDTH 8 0
BBX 8 4 0 -2
BITMAP
FF
FF
FF
FF
ENDCHAR
STARTCHAR E26D
ENCODING 57965
SWIDTH 822 0
DWIDTH 8 0
BBX 8 10 0 -2
BITMAP
F0
F0
F0
F0
F0
F0
FF
FF
FF
FF
ENDCHAR
STARTCHAR E26E
ENCODING 57966
SWIDTH 822 0
DWIDTH 8 0
BBX 8 10 0 -2
BITMAP
0F
0F
0F
0F
0F
0F
FF
FF
FF
FF
ENDCHAR
STARTCHAR E26F
ENCODING 57967
SWIDTH 822 0
DWIDTH 8 0
BBX 8 10 0 -2
BITMAP
FF
FF
FF
FF
FF
FF
FF
FF
FF
FF
ENDCHAR
STARTCHAR E270
ENCODING 57968
SWIDTH 822 0
DWIDTH 8 0
BBX 0 0 0 0
BITMAP
ENDCHAR
STARTCHAR E271
ENCODING 57969
SWIDTH 822 0
DWIDTH 8 0
BBX 4 6 0 2
BITMAP
F0
F0
F0
F0
F0
F0
ENDCHAR
STARTCHAR E272
ENCODING 57970
SWIDTH 822 0
DWIDTH 8 0
BBX 4 6 4 2
BITMAP
F0
F0
F0
F0
F0
F0
ENDCHAR
STARTCHAR E273
ENCODING 57971
SWIDTH 822 0
DWIDTH 8 0
BBX 8 6 0 2
BITMAP
FF
FF
FF
FF
FF
FF
ENDCHAR
STARTCHAR E274
ENCODING 57972
SWIDTH 822 0
DWIDTH 8 0
BBX 4 4 0 -2
BITMAP
F0
F0
F0
F0
ENDCHAR
STARTCHAR E275
ENCODING 57973
SWIDTH 822 0
DWIDTH 8 0
BBX 4 10 0 -2
BITMAP
F0
F0
F0
F0
F0
F0
F0
F0
F0
F0
ENDCHAR
STARTCHAR E276
ENCODING 57974
SWIDTH 822 0
DWIDTH 8 0
BBX 8 10 0 -2
BITMAP
0F
0F
0F
0F
0F
0F
F0
F0
F0
F0
ENDCHAR
STARTCHAR E277
ENCODING 57975
SWIDTH 822 0
DWIDTH 8 0
BBX 8 10 0 -2
BITMAP
FF
FF
FF
FF
FF
FF
F0
F0
F0
F0
ENDCHAR
STARTCHAR E278
ENCODING 57976
SWIDTH 822 0
DWIDTH 8 0
BBX 4 4 4 -2
BITMAP
F0
F0
F0
F0
ENDCHAR
STARTCHAR E279
ENCODING 57977
SWIDTH 822 0
DWIDTH 8 0
BBX 8 10 0 -2
BITMAP
F0
F0
F0
F0
F0
F0
0F
0F
0F
0F
ENDCHAR
STARTCHAR E27A
ENCODING 57978
SWIDTH 822 0
DWIDTH 8 0
BBX 4 10 4 -2
BITMAP
F0
F0
F0
F0
F0
F0
F0
F0
F0
F0
ENDCHAR
STARTCHAR E27B
ENCODING 57979
SWIDTH 822 0
DWIDTH 8 0
BBX 8 10 0 -2
BITMAP
FF
FF
FF
FF
FF
FF
0F
0F
0F
0F
ENDCHAR
STARTCHAR E27C
ENCODING 57980
SWIDTH 822 0
DWIDTH 8 0
BBX 8 4 0 -2
BITMAP
FF
FF
FF
FF
ENDCHAR
STARTCHAR E27D
ENCODING 57981
SWIDTH 822 0
DWIDTH 8 0
BBX 8 10 0 -2
BITMAP
F0
F0
F0
F0
F0
F0
FF
FF
FF
FF
ENDCHAR
STARTCHAR E27E
ENCODING 57982
SWIDTH 822 0
DWIDTH 8 0
BBX 8 10 0 -2
BITMAP
0F
0F
0F
0F
0F
0F
FF
FF
FF
FF
ENDCHAR
STARTCHAR E27F
ENCODING 57983
SWIDTH 822 0
DWIDTH 8 0
BBX 8 10 0 -2
BITMAP
FF
FF
FF
FF
FF
FF
FF
FF
FF
FF
ENDCHAR
STARTCHAR E280
ENCODING 57984
SWIDTH 822 0
DWIDTH 8 0
BBX 0 0 0 0
BITMAP
ENDCHAR
STARTCHAR E281
ENCODING 57985
SWIDTH 822 0
DWIDTH 8 0
BBX 0 0 0 0
BITMAP
ENDCHAR
STARTCHAR E282
ENCODING 57986
SWIDTH 822 0
DWIDTH 8 0
BBX 0 0 0 0
BITMAP
ENDCHAR
STARTCHAR E283
ENCODING 57987
SWIDTH 822 0
DWIDTH 8 0
BBX 0 0 0 0
BITMAP
ENDCHAR
STARTCHAR E284
ENCODING 57988
SWIDTH 822 0
DWIDTH 8 0
BBX 4 4 0 4
BITMAP
F0
F0
F0
F0
ENDCHAR
STARTCHAR E285
ENCODING 57989
SWIDTH 822 0
DWIDTH 8 0
BBX 4 4 0 4
BITMAP
F0
F0
F0
F0
ENDCHAR
STARTCHAR E286
ENCODING 57990
SWIDTH 822 0
DWIDTH 8 0
BBX 4 4 0 4
BITMAP
F0
F0
F0
F0
ENDCHAR
STARTCHAR E287
ENCODING 57991
SWIDTH 822 0
DWIDTH 8 0
BBX 4 4 0 4
BITMAP
F0
F0
F0
F0
ENDCHAR
STARTCHAR E288
ENCODING 57992
SWIDTH 822 0
DWIDTH 8 0
BBX 4 4 4 4
BITMAP
F0
F0
F0
F0
ENDCHAR
STARTCHAR E289
ENCODING 57993
SWIDTH 822 0
DWIDTH 8 0
BBX 4 4 0 4
BITMAP
F0
F0
F0
F0
ENDCHAR
STARTCHAR E28A
ENCODING 57994
SWIDTH 822 0
DWIDTH 8 0
BBX 4 4 0 4
BITMAP
F0
F0
F0
F0
ENDCHAR
STARTCHAR E28B
ENCODING 57995
SWIDTH 822 0
DWIDTH 8 0
BBX 4 4 0 4
BITMAP
F0
F0
F0
F0
ENDCHAR
STARTCHAR E28C
ENCODING 57996
SWIDTH 822 0
DWIDTH 8 0
BBX 8 4 0 4
BITMAP
FF
FF
FF
FF
ENDCHAR
STARTCHAR E28D
ENCODING 57997
SWIDTH 822 0
DWIDTH 8 0
BBX 8 4 0 4
BITMAP
FF
FF
FF
FF
ENDCHAR
STARTCHAR E28E
ENCODING 57998
SWIDTH 822 0
DWIDTH 8 0
BBX 8 4 0 4
BITMAP
FF
FF
FF
FF
ENDCHAR
STARTCHAR E28F
ENCODING 57999
SWIDTH 822 0
DWIDTH 8 0
BBX 8 4 0 4
BITMAP
FF
FF
FF
FF
ENDCHAR
STARTCHAR E290
ENCODING 58000
SWIDTH 822 0
DWIDTH 8 0
BBX 4 6 0 -2
BITMAP
F0
F0
F0
F0
F0
F0
ENDCHAR
STARTCHAR E291
ENCODING 58001
SWIDTH 822 0
DWIDTH 8 0
BBX 4 6 0 -2
BITMAP
F0
F0
F0
F0
F0
F0
ENDCHAR
STARTCHAR E292
ENCODING 58002
SWIDTH 822 0
DWIDTH 8 0
BBX 4 6 0 -2
BITMAP
F0
F0
F0
F0
F0
F0
ENDCHAR
STARTCHAR E293
ENCODING 58003
SWIDTH 822 0
DWIDTH 8 0
BBX 4 6 0 -2
BITMAP
F0
F0
F0
F0
F0
F0
ENDCHAR
STARTCHAR E294
ENCODING 58004
SWIDTH 822 0
DWIDTH 8 0
BBX 4 10 0 -2
BITMAP
F0
F0
F0
F0
F0
F0
F0
F0
F0
F0
ENDCHAR
STARTCHAR E295
ENCODING 58005
SWIDTH 822 0
DWIDTH 8 0
BBX 4 10 0 -2
BITMAP
F0
F0
F0
F0
F0
F0
F0
F0
F0
F0
ENDCHAR
STARTCHAR E296
ENCODING 58006
SWIDTH 822 0
DWIDTH 8 0
BBX 4 10 0 -2
BITMAP
F0
F0
F0
F0
F0
F0
F0
F0
F0
F0
ENDCHAR
STARTCHAR E297
ENCODING 58007
SWIDTH 822 0
DWIDTH 8 0
BBX 4 10 0 -2
BITMAP
F0
F0
F0
F0
F0
F0
F0
F0
F0
F0
ENDCHAR
STARTCHAR E298
ENCODING 58008
SWIDTH 822 0
DWIDTH 8 0
BBX 8 10 0 -2
BITMAP
0F
0F
0F
0F
F0
F0
F0
F0
F0
F0
ENDCHAR
STARTCHAR E299
ENCODING 58009
SWIDTH 822 0
DWIDTH 8 0
BBX 8 10 0 -2
BITMAP
0F
0F
0F
0F
F0
F0
F0
F0
F0
F0
ENDCHAR
STARTCHAR E29A
ENCODING 58010
SWIDTH 822 0
DWIDTH 8 0
BBX 8 10 0 -2
BITMAP
0F
0F
0F
0F
F0
F0
F0
F0
F0
F0
ENDCHAR
STARTCHAR E29B
ENCODING 58011
SWIDTH 822 0
DWIDTH 8 0
BBX 8 10 0 -2
BITMAP
0F
0F
0F
0F
F0
F0
F0
F0
F0
F0
ENDCHAR
STARTCHAR E29C
ENCODING 58012
SWIDTH 822 0
DWIDTH 8 0
BBX 8 10 0 -2
BITMAP
FF
FF
FF
FF
F0
F0
F0
F0
F0
F0
ENDCHAR
STARTCHAR E29D
ENCODING 58013
SWIDTH 822 0
DWIDTH 8 0
BBX 8 10 0 -2
BITMAP
FF
FF
FF
FF
F0
F0
F0
F0
F0
F0
ENDCHAR
STARTCHAR E29E
ENCODING 58014
SWIDTH 822 0
DWIDTH 8 0
BBX 8 10 0 -2
BITMAP
FF
FF
FF
FF
F0
F0
F0
F0
F0
F0
ENDCHAR
STARTCHAR E29F
ENCODING 58015
SWIDTH 822 0
DWIDTH 8 0
BBX 8 10 0 -2
BITMAP
FF
FF
FF
FF
F0
F0
F0
F0
F0
F0
ENDCHAR
STARTCHAR E2A0
ENCODING 58016
SWIDTH 822 0
DWIDTH 8 0
BBX 4 6 4 -2
BITMAP
F0
F0
F0
F0
F0
F0
ENDCHAR
STARTCHAR E2A1
ENCODING 58017
SWIDTH 822 0
DWIDTH 8 0
BBX 4 6 4 -2
BITMAP
F0
F0
F0
F0
F0
F0
ENDCHAR
STARTCHAR E2A2
ENCODING 58018
SWIDTH 822 0
DWIDTH 8 0
BBX 4 6 4 -2
BITMAP
F0
F0
F0
F0
F0
F0
ENDCHAR
STARTCHAR E2A3
ENCODING 58019
SWIDTH 822 0
DWIDTH 8 0
BBX 4 6 4 -2
BITMAP
F0
F0
F0
F0
F0
F0
ENDCHAR
STARTCHAR E2A4
ENCODING 58020
SWIDTH 822 0
DWIDTH 8 0
BBX 8 10 0 -2
BITMAP
F0
F0
F0
F0
0F
0F
0F
0F
0F
0F
ENDCHAR
STARTCHAR E2A5
ENCODING 58021
SWIDTH 822 0
DWIDTH 8 0
BBX 8 10 0 -2
BITMAP
F0
F0
F0
F0
0F
0F
0F
0F
0F
0F
ENDCHAR
STARTCHAR E2A6
ENCODING 58022
SWIDTH 822 0
DWIDTH 8 0
BBX 8 10 0 -2
BITMAP
F0
F0
F0
F0
0F
0F
0F
0F
0F
0F
ENDCHAR
STARTCHAR E2A7
ENCODING 58023
SWIDTH 822 0
DWIDTH 8 0
BBX 8 10 0 -2
BITMAP
F0
F0
F0
F0
0F
0F
0F
0F
0F
0F
ENDCHAR
STARTCHAR E2A8
ENCODING 58024
SWIDTH 822 0
DWIDTH 8 0
BBX 4 10 4 -2
BITMAP
F0
F0
F0
F0
F0
F0
F0
F0
F0
F0
ENDCHAR
STARTCHAR E2A9
ENCODING 58025
SWIDTH 822 0
DWIDTH 8 0
BBX 4 10 4 -2
BITMAP
F0
F0
F0
F0
F0
F0
F0
F0
F0
F0
ENDCHAR
STARTCHAR E2AA
ENCODING 58026
SWIDTH 822 0
DWIDTH 8 0
BBX 4 10 4 -2
BITMAP
F0
F0
F0
F0
F0
F0
F0
F0
F0
F0
ENDCHAR
STARTCHAR E2AB
ENCODING 58027
SWIDTH 822 0
DWIDTH 8 0
BBX 4 10 4 -2
BITMAP
F0
F0
F0
F0
F0
F0
F0
F0
F0
F0
ENDCHAR
STARTCHAR E2AC
ENCODING 58028
SWIDTH 822 0
DWIDTH 8 0
BBX 8 10 0 -2
BITMAP
FF
FF
FF
FF
0F
0F
0F
0F
0F
0F
ENDCHAR
STARTCHAR E2AD
ENCODING 58029
SWIDTH 822 0
DWIDTH 8 0
BBX 8 10 0 -2
BITMAP
FF
FF
FF
FF
0F
0F
0F
0F
0F
0F
ENDCHAR
STARTCHAR E2AE
ENCODING 58030
SWIDTH 822 0
DWIDTH 8 0
BBX 8 10 0 -2
BITMAP
FF
FF
FF
FF
0F
0F
0F
0F
0F
0F
ENDCHAR
STARTCHAR E2AF
ENCODING 58031
SWIDTH 822 0
DWIDTH 8 0
BBX 8 10 0 -2
BITMAP
FF
FF
FF
FF
0F
0F
0F
0F
0F
0F
ENDCHAR
STARTCHAR E2B0
ENCODING 58032
SWIDTH 822 0
DWIDTH 8 0
BBX 8 6 0 -2
BITMAP
FF
FF
FF
FF
FF
FF
ENDCHAR
STARTCHAR E2B1
ENCODING 58033
SWIDTH 822 0
DWIDTH 8 0
BBX 8 6 0 -2
BITMAP
FF
FF
FF
FF
FF
FF
ENDCHAR
STARTCHAR E2B2
ENCODING 58034
SWIDTH 822 0
DWIDTH 8 0
BBX 8 6 0 -2
BITMAP
FF
FF
FF
FF
FF
FF
ENDCHAR
STARTCHAR E2B3
ENCODING 58035
SWIDTH 822 0
DWIDTH 8 0
BBX 8 6 0 -2
BITMAP
FF
FF
FF
FF
FF
FF
ENDCHAR
STARTCHAR E2B4
ENCODING 58036
SWIDTH 822 0
DWIDTH 8 0
BBX 8 10 0 -2
BITMAP
F0
F0
F0
F0
FF
FF
FF
FF
FF
FF
ENDCHAR
STARTCHAR E2B5
ENCODING 58037
SWIDTH 822 0
DWIDTH 8 0
BBX 8 10 0 -2
BITMAP
F0
F0
F0
F0
FF
FF
FF
FF
FF
FF
ENDCHAR
STARTCHAR E2B6
ENCODING 58038
SWIDTH 822 0
DWIDTH 8 0
BBX 8 10 0 -2
BITMAP
F0
F0
F0
F0
FF
FF
FF
FF
FF
FF
ENDCHAR
STARTCHAR E2B7
ENCODING 58039
SWIDTH 822 0
DWIDTH 8 0
BBX 8 10 0 -2
BITMAP
F0
F0
F0
F0
FF
FF
FF
FF
FF
FF
ENDCHAR
STARTCHAR E2B8
ENCODING 58040
SWIDTH 822 0
DWIDTH 8 0
BBX 8 10 0 -2
BITMAP
0F
0F
0F
0F
FF
FF
FF
FF
FF
FF
ENDCHAR
STARTCHAR E2B9
ENCODING 58041
SWIDTH 822 0
DWIDTH 8 0
BBX 8 10 0 -2
BITMAP
0F
0F
0F
0F
FF
FF
FF
FF
FF
FF
ENDCHAR
STARTCHAR E2BA
ENCODING 58042
SWIDTH 822 0
DWIDTH 8 0
BBX 8 10 0 -2
BITMAP
0F
0F
0F
0F
FF
FF
FF
FF
FF
FF
ENDCHAR
STARTCHAR E2BB
ENCODING 58043
SWIDTH 822 0
DWIDTH 8 0
BBX 8 10 0 -2
BITMAP
0F
0F
0F
0F
FF
FF
FF
FF
FF
FF
ENDCHAR
STARTCHAR E2BC
ENCODING 58044
SWIDTH 822 0
DWIDTH 8 0
BBX 8 10 0 -2
BITMAP
FF
FF
FF
FF
FF
FF
FF
FF
FF
FF
ENDCHAR
STARTCHAR E2BD
ENCODING 58045
SWIDTH 822 0
DWIDTH 8 0
BBX 8 10 0 -2
BITMAP
FF
FF
FF
FF
FF
FF
FF
FF
FF
FF
ENDCHAR
STARTCHAR E2BE
ENCODING 58046
SWIDTH 822 0
DWIDTH 8 0
BBX 8 10 0 -2
BITMAP
FF
FF
FF
FF
FF
FF
FF
FF
FF
FF
ENDCHAR
STARTCHAR E2BF
ENCODING 58047
SWIDTH 822 0
DWIDTH 8 0
BBX 8 10 0 -2
BITMAP
FF
FF
FF
FF
FF
FF
FF
FF
FF
FF
ENDCHAR
STARTCHAR E2C0
ENCODING 58048
SWIDTH 822 0
DWIDTH 8 0
BBX 0 0 0 0
BITMAP
ENDCHAR
STARTCHAR E2C1
ENCODING 58049
SWIDTH 822 0
DWIDTH 8 0
BBX 3 2 1 6
BITMAP
E0
E0
ENDCHAR
STARTCHAR E2C2
ENCODING 58050
SWIDTH 822 0
DWIDTH 8 0
BBX 3 2 5 6
BITMAP
E0
E0
ENDCHAR
STARTCHAR E2C3
ENCODING 58051
SWIDTH 822 0
DWIDTH 8 0
BBX 7 2 1 6
BITMAP
EE
EE
ENDCHAR
STARTCHAR E2C4
ENCODING 58052
SWIDTH 822 0
DWIDTH 8 0
BBX 3 3 1 2
BITMAP
E0
E0
E0
ENDCHAR
STARTCHAR E2C5
ENCODING 58053
SWIDTH 822 0
DWIDTH 8 0
BBX 3 6 1 2
BITMAP
E0
E0
00
E0
E0
E0
ENDCHAR
STARTCHAR E2C6
ENCODING 58054
SWIDTH 822 0
DWIDTH 8 0
BBX 7 6 1 2
BITMAP
0E
0E
00
E0
E0
E0
ENDCHAR
STARTCHAR E2C7
ENCODING 58055
SWIDTH 822 0
DWIDTH 8 0
BBX 7 6 1 2
BITMAP
EE
EE
00
E0
E0
E0
ENDCHAR
STARTCHAR E2C8
ENCODING 58056
SWIDTH 822 0
DWIDTH 8 0
BBX 3 3 5 2
BITMAP
E0
E0
E0
ENDCHAR
STARTCHAR E2C9
ENCODING 58057
SWIDTH 822 0
DWIDTH 8 0
BBX 7 6 1 2
BITMAP
E0
E0
00
0E
0E
0E
ENDCHAR
STARTCHAR E2CA
ENCODING 58058
SWIDTH 822 0
DWIDTH 8 0
BBX 3 6 5 2
BITMAP
E0
E0
00
E0
E0
E0
ENDCHAR
STARTCHAR E2CB
ENCODING 58059
SWIDTH 822 0
DWIDTH 8 0
BBX 7 6 1 2
BITMAP
EE
EE
00
0E
0E
0E
ENDCHAR
STARTCHAR E2CC
ENCODING 58060
SWIDTH 822 0
DWIDTH 8 0
BBX 7 3 1 2
BITMAP
EE
EE
EE
ENDCHAR
STARTCHAR E2CD
ENCODING 58061
SWIDTH 822 0
DWIDTH 8 0
BBX 7 6 1 2
BITMAP
E0
E0
00
EE
EE
EE
ENDCHAR
STARTCHAR E2CE
ENCODING 58062
SWIDTH 822 0
DWIDTH 8 0
BBX 7 6 1 2
BITMAP
0E
0E
00
EE
EE
EE
ENDCHAR
STARTCHAR E2CF
ENCODING 58063
SWIDTH 822 0
DWIDTH 8 0
BBX 7 6 1 2
BITMAP
EE
EE
00
EE
EE
EE
ENDCHAR
STARTCHAR E2D0
ENCODING 58064
SWIDTH 822 0
DWIDTH 8 0
BBX 3 2 1 -1
BITMAP
E0
E0
ENDCHAR
STARTCHAR E2D1
ENCODING 58065
SWIDTH 822 0
DWIDTH 8 0
BBX 3 9 1 -1
BITMAP
E0
E0
00
00
00
00
00
E0
E0
ENDCHAR
STARTCHAR E2D2
ENCODING 58066
SWIDTH 822 0
DWIDTH 8 0
BBX 7 9 1 -1
BITMAP
0E
0E
00
00
00
00
00
E0
E0
ENDCHAR
STARTCHAR E2D3
ENCODING 58067
SWIDTH 822 0
DWIDTH 8 0
BBX 7 9 1 -1
BITMAP
EE
EE
00
00
00
00
00
E0
E0
ENDCHAR
STARTCHAR E2D4
ENCODING 58068
SWIDTH 822 0
DWIDTH 8 0
BBX 3 6 1 -1
BITMAP
E0
E0
E0
00
E0
E0
ENDCHAR
STARTCHAR E2D5
ENCODING 58069
SWIDTH 822 0
DWIDTH 8 0
BBX 3 9 1 -1
BITMAP
E0
E0
00
E0
E0
E0
00
E0
E0
ENDCHAR
STARTCHAR E2D6
ENCODING 58070
SWIDTH 822 0
DWIDTH 8 0
BBX 7 9 1 -1
BITMAP
0E
0E
00
E0
E0
E0
00
E0
E0
ENDCHAR
STARTCHAR E2D7
ENCODING 58071
SWIDTH 822 0
DWIDTH 8 0
BBX 7 9 1 -1
BITMAP
EE
EE
00
E0
E0
E0
00
E0
E0
ENDCHAR
STARTCHAR E2D8
ENCODING 58072
SWIDTH 822 0
DWIDTH 8 0
BBX 7 6 1 -1
BITMAP
0E
0E
0E
00
E0
E0
ENDCHAR
STARTCHAR E2D9
ENCODING 58073
SWIDTH 822 0
DWIDTH 8 0
BBX 7 9 1 -1
BITMAP
E0
E0
00
0E
0E
0E
00
E0
E0
ENDCHAR
STARTCHAR E2DA
ENCODING 58074
SWIDTH 822 0
DWIDTH 8 0
BBX 7 9 1 -1
BITMAP
0E
0E
00
0E
0E
0E
00
E0
E0
ENDCHAR
STARTCHAR E2DB
ENCODING 58075
SWIDTH 822 0
DWIDTH 8 0
BBX 7 9 1 -1
BITMAP
EE
EE
00
0E
0E
0E
00
E0
E0
ENDCHAR
STARTCHAR E2DC
ENCODING 58076
SWIDTH 822 0
DWIDTH 8 0
BBX 7 6 1 -1
BITMAP
EE
EE
EE
00
E0
E0
ENDCHAR
STARTCHAR E2DD
ENCODING 58077
SWIDTH 822 0
DWIDTH 8 0
BBX 7 9 1 -1
BITMAP
E0
E0
00
EE
EE
EE
00
E0
E0
ENDCHAR
STARTCHAR E2DE
ENCODING 58078
SWIDTH 822 0
DWIDTH 8 0
BBX 7 9 1 -1
BITMAP
0E
0E
00
EE
EE
EE
00
E0
E0
ENDCHAR
STARTCHAR E2DF
ENCODING 58079
SWIDTH 822 0
DWIDTH 8 0
BBX 7 9 1 -1
BITMAP
EE
EE
00
EE
EE
EE
00
E0
E0
ENDCHAR
STARTCHAR E2E0
ENCODING 58080
SWIDTH 822 0
DWIDTH 8 0
BBX 3 2 5 -1
BITMAP
E0
E0
ENDCHAR
STARTCHAR E2E1
ENCODING 58081
SWIDTH 822 0
DWIDTH 8 0
BBX 7 9 1 -1
BITMAP
E0
E0
00
00
00
00
00
0E
0E
ENDCHAR
STARTCHAR E2E2
ENCODING 58082
SWIDTH 822 0
DWIDTH 8 0
BBX 3 9 5 -1
BITMAP
E0
E0
00
00
00
00
00
E0
E0
ENDCHAR
STARTCHAR E2E3
ENCODING 58083
SWIDTH 822 0
DWIDTH 8 0
BBX 7 9 1 -1
BITMAP
EE
EE
00
00
00
00
00
0E
0E
ENDCHAR
STARTCHAR E2E4
ENCODING 58084
SWIDTH 822 0
DWIDTH 8 0
BBX 7 6 1 -1
BITMAP
E0
E0
E0
00
0E
0E
ENDCHAR
STARTCHAR E2E5
ENCODING 58085
SWIDTH 822 0
DWIDTH 8 0
BBX 7 9 1 -1
BITMAP
E0
E0
00
E0
E0
E0
00
0E
0E
ENDCHAR
STARTCHAR E2E6
ENCODING 58086
SWIDTH 822 0
DWIDTH 8 0
BBX 7 9 1 -1
BITMAP
0E
0E
00
E0
E0
E0
00
0E
0E
ENDCHAR
STARTCHAR E2E7
ENCODING 58087
SWIDTH 822 0
DWIDTH 8 0
BBX 7 9 1 -1
BITMAP
EE
EE
00
E0
E0
E0
00
0E
0E
ENDCHAR
STARTCHAR E2E8
ENCODING 58088
SWIDTH 822 0
DWIDTH 8 0
BBX 3 6 5 -1
BITMAP
E0
E0
E0
00
E0
E0
ENDCHAR
STARTCHAR E2E9
ENCODING 58089
SWIDTH 822 0
DWIDTH 8 0
BBX 7 9 1 -1
BITMAP
E0
E0
00
0E
0E
0E
00
0E
0E
ENDCHAR
STARTCHAR E2EA
ENCODING 58090
SWIDTH 822 0
DWIDTH 8 0
BBX 3 9 5 -1
BITMAP
E0
E0
00
E0
E0
E0
00
E0
E0
ENDCHAR
STARTCHAR E2EB
ENCODING 58091
SWIDTH 822 0
DWIDTH 8 0
BBX 7 9 1 -1
BITMAP
EE
EE
00
0E
0E
0E
00
0E
0E
ENDCHAR
STARTCHAR E2EC
ENCODING 58092
SWIDTH 822 0
DWIDTH 8 0
BBX 7 6 1 -1
BITMAP
EE
EE
EE
00
0E
0E
ENDCHAR
STARTCHAR E2ED
ENCODING 58093
SWIDTH 822 0
DWIDTH 8 0
BBX 7 9 1 -1
BITMAP
E0
E0
00
EE
EE
EE
00
0E
0E
ENDCHAR
STARTCHAR E2EE
ENCODING 58094
SWIDTH 822 0
DWIDTH 8 0
BBX 7 9 1 -1
BITMAP
0E
0E
00
EE
EE
EE
00
0E
0E
ENDCHAR
STARTCHAR E2EF
ENCODING 58095
SWIDTH 822 0
DWIDTH 8 0
BBX 7 9 1 -1
BITMAP
EE
EE
00
EE
EE
EE
00
0E
0E
ENDCHAR
STARTCHAR E2F0
ENCODING 58096
SWIDTH 822 0
DWIDTH 8 0
BBX 7 2 1 -1
BITMAP
EE
EE
ENDCHAR
STARTCHAR E2F1
ENCODING 58097
SWIDTH 822 0
DWIDTH 8 0
BBX 7 9 1 -1
BITMAP
E0
E0
00
00
00
00
00
EE
EE
ENDCHAR
STARTCHAR E2F2
ENCODING 58098
SWIDTH 822 0
DWIDTH 8 0
BBX 7 9 1 -1
BITMAP
0E
0E
00
00
00
00
00
EE
EE
ENDCHAR
STARTCHAR E2F3
ENCODING 58099
SWIDTH 822 0
DWIDTH 8 0
BBX 7 9 1 -1
BITMAP
EE
EE
00
00
00
00
00
EE
EE
ENDCHAR
STARTCHAR E2F4
ENCODING 58100
SWIDTH 822 0
DWIDTH 8 0
BBX 7 6 1 -1
BITMAP
E0
E0
E0
00
EE
EE
ENDCHAR
STARTCHAR E2F5
ENCODING 58101
SWIDTH 822 0
DWIDTH 8 0
BBX 7 9 1 -1
BITMAP
E0
E0
00
E0
E0
E0
00
EE
EE
ENDCHAR
STARTCHAR E2F6
ENCODING 58102
SWIDTH 822 0
DWIDTH 8 0
BBX 7 9 1 -1
BITMAP
0E
0E
00
E0
E0
E0
00
EE
EE
ENDCHAR
STARTCHAR E2F7
ENCODING 58103
SWIDTH 822 0
DWIDTH 8 0
BBX 7 9 1 -1
BITMAP
EE
EE
00
E0
E0
E0
00
EE
EE
ENDCHAR
STARTCHAR E2F8
ENCODING 58104
SWIDTH 822 0
DWIDTH 8 0
BBX 7 6 1 -1
BITMAP
0E
0E
0E
00
EE
EE
ENDCHAR
STARTCHAR E2F9
ENCODING 58105
SWIDTH 822 0
DWIDTH 8 0
BBX 7 9 1 -1
BITMAP
E0
E0
00
0E
0E
0E
00
EE
EE
ENDCHAR
STARTCHAR E2FA
ENCODING 58106
SWIDTH 822 0
DWIDTH 8 0
BBX 7 9 1 -1
BITMAP
0E
0E
00
0E
0E
0E
00
EE
EE
ENDCHAR
STARTCHAR E2FB
ENCODING 58107
SWIDTH 822 0
DWIDTH 8 0
BBX 7 9 1 -1
BITMAP
EE
EE
00
0E
0E
0E
00
EE
EE
ENDCHAR
STARTCHAR E2FC
ENCODING 58108
SWIDTH 822 0
DWIDTH 8 0
BBX 7 6 1 -1
BITMAP
EE
EE
EE
00
EE
EE
ENDCHAR
STARTCHAR E2FD
ENCODING 58109
SWIDTH 822 0
DWIDTH 8 0
BBX 7 9 1 -1
BITMAP
E0
E0
00
EE
EE
EE
00
EE
EE
ENDCHAR
STARTCHAR E2FE
ENCODING 58110
SWIDTH 822 0
DWIDTH 8 0
BBX 7 9 1 -1
BITMAP
0E
0E
00
EE
EE
EE
00
EE
EE
ENDCHAR
STARTCHAR E2FF
ENCODING 58111
SWIDTH 822 0
DWIDTH 8 0
BBX 7 9 1 -1
BITMAP
EE
EE
00
EE
EE
EE
00
EE
EE
ENDCHAR
STARTCHAR E300
ENCODING 58112
SWIDTH 822 0
DWIDTH 8 0
BBX 0 0 0 0
BITMAP
ENDCHAR
STARTCHAR E301
ENCODING 58113
SWIDTH 822 0
DWIDTH 8 0
BBX 3 4 1 4
BITMAP
E0
E0
E0
E0
ENDCHAR
STARTCHAR E302
ENCODING 58114
SWIDTH 822 0
DWIDTH 8 0
BBX 3 4 5 4
BITMAP
E0
E0
E0
E0
ENDCHAR
STARTCHAR E303
ENCODING 58115
SWIDTH 822 0
DWIDTH 8 0
BBX 7 4 1 4
BITMAP
EE
EE
EE
EE
ENDCHAR
STARTCHAR E304
ENCODING 58116
SWIDTH 822 0
DWIDTH 8 0
BBX 3 4 1 -2
BITMAP
E0
E0
E0
E0
ENDCHAR
STARTCHAR E305
ENCODING 58117
SWIDTH 822 0
DWIDTH 8 0
BBX 3 10 1 -2
BITMAP
E0
E0
E0
E0
00
00
E0
E0
E0
E0
ENDCHAR
STARTCHAR E306
ENCODING 58118
SWIDTH 822 0
DWIDTH 8 0
BBX 7 10 1 -2
BITMAP
0E
0E
0E
0E
00
00
E0
E0
E0
E0
ENDCHAR
STARTCHAR E307
ENCODING 58119
SWIDTH 822 0
DWIDTH 8 0
BBX 7 10 1 -2
BITMAP
EE
EE
EE
EE
00
00
E0
E0
E0
E0
ENDCHAR
STARTCHAR E308
ENCODING 58120
SWIDTH 822 0
DWIDTH 8 0
BBX 3 4 5 -2
BITMAP
E0
E0
E0
E0
ENDCHAR
STARTCHAR E309
ENCODING 58121
SWIDTH 822 0
DWIDTH 8 0
BBX 7 10 1 -2
BITMAP
E0
E0
E0
E0
00
00
0E
0E
0E
0E
ENDCHAR
STARTCHAR E30A
ENCODING 58122
SWIDTH 822 0
DWIDTH 8 0
BBX 3 10 5 -2
BITMAP
E0
E0
E0
E0
00
00
E0
E0
E0
E0
ENDCHAR
STARTCHAR E30B
ENCODING 58123
SWIDTH 822 0
DWIDTH 8 0
BBX 7 10 1 -2
BITMAP
EE
EE
EE
EE
00
00
0E
0E
0E
0E
ENDCHAR
STARTCHAR E30C
ENCODING 58124
SWIDTH 822 0
DWIDTH 8 0
BBX 7 4 1 -2
BITMAP
EE
EE
EE
EE
ENDCHAR
STARTCHAR E30D
ENCODING 58125
SWIDTH 822 0
DWIDTH 8 0
BBX 7 10 1 -2
BITMAP
E0
E0
E0
E0
00
00
EE
EE
EE
EE
ENDCHAR
STARTCHAR E30E
ENCODING 58126
SWIDTH 822 0
DWIDTH 8 0
BBX 7 10 1 -2
BITMAP
0E
0E
0E
0E
00
00
EE
EE
EE
EE
ENDCHAR
STARTCHAR E30F
ENCODING 58127
SWIDTH 822 0
DWIDTH 8 0
BBX 7 10 1 -2
BITMAP
EE
EE
EE
EE
00
00
EE
EE
EE
EE
ENDCHAR
STARTCHAR E310
ENCODING 58128
SWIDTH 822 0
DWIDTH 8 0
BBX 0 0 0 0
BITMAP
ENDCHAR
STARTCHAR E311
ENCODING 58129
SWIDTH 822 0
DWIDTH 8 0
BBX 3 4 1 4
BITMAP
E0
E0
E0
E0
ENDCHAR
STARTCHAR E312
ENCODING 58130
SWIDTH 822 0
DWIDTH 8 0
BBX 3 4 5 4
BITMAP
E0
E0
E0
E0
ENDCHAR
STARTCHAR E313
ENCODING 58131
SWIDTH 822 0
DWIDTH 8 0
BBX 7 4 1 4
BITMAP
EE
EE
EE
EE
ENDCHAR
STARTCHAR E314
ENCODING 58132
SWIDTH 822 0
DWIDTH 8 0
BBX 3 4 1 -2
BITMAP
E0
E0
E0
E0
ENDCHAR
STARTCHAR E315
ENCODING 58133
SWIDTH 822 0
DWIDTH 8 0
BBX 3 10 1 -2
BITMAP
E0
E0
E0
E0
00
00
E0
E0
E0
E0
ENDCHAR
STARTCHAR E316
ENCODING 58134
SWIDTH 822 0
DWIDTH 8 0
BBX 7 10 1 -2
BITMAP
0E
0E
0E
0E
00
00
E0
E0
E0
E0
ENDCHAR
STARTCHAR E317
ENCODING 58135
SWIDTH 822 0
DWIDTH 8 0
BBX 7 10 1 -2
BITMAP
EE
EE
EE
EE
00
00
E0
E0
E0
E0
ENDCHAR
STARTCHAR E318
ENCODING 58136
SWIDTH 822 0
DWIDTH 8 0
BBX 3 4 5 -2
BITMAP
E0
E0
E0
E0
ENDCHAR
STARTCHAR E319
ENCODING 58137
SWIDTH 822 0
DWIDTH 8 0
BBX 7 10 1 -2
BITMAP
E0
E0
E0
E0
00
00
0E
0E
0E
0E
ENDCHAR
STARTCHAR E31A
ENCODING 58138
SWIDTH 822 0
DWIDTH 8 0
BBX 3 10 5 -2
BITMAP
E0
E0
E0
E0
00
00
E0
E0
E0
E0
ENDCHAR
STARTCHAR E31B
ENCODING 58139
SWIDTH 822 0
DWIDTH 8 0
BBX 7 10 1 -2
BITMAP
EE
EE
EE
EE
00
00
0E
0E
0E
0E
ENDCHAR
STARTCHAR E31C
ENCODING 58140
SWIDTH 822 0
DWIDTH 8 0
BBX 7 4 1 -2
BITMAP
EE
EE
EE
EE
ENDCHAR
STARTCHAR E31D
ENCODING 58141
SWIDTH 822 0
DWIDTH 8 0
BBX 7 10 1 -2
BITMAP
E0
E0
E0
E0
00
00
EE
EE
EE
EE
ENDCHAR
STARTCHAR E31E
ENCODING 58142
SWIDTH 822 0
DWIDTH 8 0
BBX 7 10 1 -2
BITMAP
0E
0E
0E
0E
00
00
EE
EE
EE
EE
ENDCHAR
STARTCHAR E31F
ENCODING 58143
SWIDTH 822 0
DWIDTH 8 0
BBX 7 10 1 -2
BITMAP
EE
EE
EE
EE
00
00
EE
EE
EE
EE
ENDCHAR
STARTCHAR E320
ENCODING 58144
SWIDTH 822 0
DWIDTH 8 0
BBX 0 0 0 0
BITMAP
ENDCHAR
STARTCHAR E321
ENCODING 58145
SWIDTH 822 0
DWIDTH 8 0
BBX 3 4 1 4
BITMAP
E0
E0
E0
E0
ENDCHAR
STARTCHAR E322
ENCODING 58146
SWIDTH 822 0
DWIDTH 8 0
BBX 3 4 5 4
BITMAP
E0
E0
E0
E0
ENDCHAR
STARTCHAR E323
ENCODING 58147
SWIDTH 822 0
DWIDTH 8 0
BBX 7 4 1 4
BITMAP
EE
EE
EE
EE
ENDCHAR
STARTCHAR E324
ENCODING 58148
SWIDTH 822 0
DWIDTH 8 0
BBX 3 4 1 -2
BITMAP
E0
E0
E0
E0
ENDCHAR
STARTCHAR E325
ENCODING 58149
SWIDTH 822 0
DWIDTH 8 0
BBX 3 10 1 -2
BITMAP
E0
E0
E0
E0
00
00
E0
E0
E0
E0
ENDCHAR
STARTCHAR E326
ENCODING 58150
SWIDTH 822 0
DWIDTH 8 0
BBX 7 10 1 -2
BITMAP
0E
0E
0E
0E
00
00
E0
E0
E0
E0
ENDCHAR
STARTCHAR E327
ENCODING 58151
SWIDTH 822 0
DWIDTH 8 0
BBX 7 10 1 -2
BITMAP
EE
EE
EE
EE
00
00
E0
E0
E0
E0
ENDCHAR
STARTCHAR E328
ENCODING 58152
SWIDTH 822 0
DWIDTH 8 0
BBX 3 4 5 -2
BITMAP
E0
E0
E0
E0
ENDCHAR
STARTCHAR E329
ENCODING 58153
SWIDTH 822 0
DWIDTH 8 0
BBX 7 10 1 -2
BITMAP
E0
E0
E0
E0
00
00
0E
0E
0E
0E
ENDCHAR
STARTCHAR E32A
ENCODING 58154
SWIDTH 822 0
DWIDTH 8 0
BBX 3 10 5 -2
BITMAP
E0
E0
E0
E0
00
00
E0
E0
E0
E0
ENDCHAR
STARTCHAR E32B
ENCODING 58155
SWIDTH 822 0
DWIDTH 8 0
BBX 7 10 1 -2
BITMAP
EE
EE
EE
EE
00
00
0E
0E
0E
0E
ENDCHAR
STARTCHAR E32C
ENCODING 58156
SWIDTH 822 0
DWIDTH 8 0
BBX 7 4 1 -2
BITMAP
EE
EE
EE
EE
ENDCHAR
STARTCHAR E32D
ENCODING 58157
SWIDTH 822 0
DWIDTH 8 0
BBX 7 10 1 -2
BITMAP
E0
E0
E0
E0
00
00
EE
EE
EE
EE
ENDCHAR
STARTCHAR E32E
ENCODING 58158
SWIDTH 822 0
DWIDTH 8 0
BBX 7 10 1 -2
BITMAP
0E
0E
0E
0E
00
00
EE
EE
EE
EE
ENDCHAR
STARTCHAR E32F
ENCODING 58159
SWIDTH 822 0
DWIDTH 8 0
BBX 7 10 1 -2
BITMAP
EE
EE
EE
EE
00
00
EE
EE
EE
EE
ENDCHAR
STARTCHAR E330
ENCODING 58160
SWIDTH 822 0
DWIDTH 8 0
BBX 0 0 0 0
BITMAP
ENDCHAR
STARTCHAR E331
ENCODING 58161
SWIDTH 822 0
DWIDTH 8 0
BBX 3 4 1 4
BITMAP
E0
E0
E0
E0
ENDCHAR
STARTCHAR E332
ENCODING 58162
SWIDTH 822 0
DWIDTH 8 0
BBX 3 4 5 4
BITMAP
E0
E0
E0
E0
ENDCHAR
STARTCHAR E333
ENCODING 58163
SWIDTH 822 0
DWIDTH 8 0
BBX 7 4 1 4
BITMAP
EE
EE
EE
EE
ENDCHAR
STARTCHAR E334
ENCODING 58164
SWIDTH 822 0
DWIDTH 8 0
BBX 3 4 1 -2
BITMAP
E0
E0
E0
E0
ENDCHAR
STARTCHAR E335
ENCODING 58165
SWIDTH 822 0
DWIDTH 8 0
BBX 3 10 1 -2
BITMAP
E0
E0
E0
E0
00
00
E0
E0
E0
E0
ENDCHAR
STARTCHAR E336
ENCODING 58166
SWIDTH 822 0
DWIDTH 8 0
BBX 7 10 1 -2
BITMAP
0E
0E
0E
0E
00
00
E0
E0
E0
E0
ENDCHAR
STARTCHAR E337
ENCODING 58167
SWIDTH 822 0
DWIDTH 8 0
BBX 7 10 1 -2
BITMAP
EE
EE
EE
EE
00
00
E0
E0
E0
E0
ENDCHAR
STARTCHAR E338
ENCODING 58168
SWIDTH 822 0
DWIDTH 8 0
BBX 3 4 5 -2
BITMAP
E0
E0
E0
E0
ENDCHAR
STARTCHAR E339
ENCODING 58169
SWIDTH 822 0
DWIDTH 8 0
BBX 7 10 1 -2
BITMAP
E0
E0
E0
E0
00
00
0E
0E
0E
0E
ENDCHAR
STARTCHAR E33A
ENCODING 58170
SWIDTH 822 0
DWIDTH 8 0
BBX 3 10 5 -2
BITMAP
E0
E0
E0
E0
00
00
E0
E0
E0
E0
ENDCHAR
STARTCHAR E33B
ENCODING 58171
SWIDTH 822 0
DWIDTH 8 0
BBX 7 10 1 -2
BITMAP
EE
EE
EE
EE
00
00
0E
0E
0E
0E
ENDCHAR
STARTCHAR E33C
ENCODING 58172
SWIDTH 822 0
DWIDTH 8 0
BBX 7 4 1 -2
BITMAP
EE
EE
EE
EE
ENDCHAR
STARTCHAR E33D
ENCODING 58173
SWIDTH 822 0
DWIDTH 8 0
BBX 7 10 1 -2
BITMAP
E0
E0
E0
E0
00
00
EE
EE
EE
EE
ENDCHAR
STARTCHAR E33E
ENCODING 58174
SWIDTH 822 0
DWIDTH 8 0
BBX 7 10 1 -2
BITMAP
0E
0E
0E
0E
00
00
EE
EE
EE
EE
ENDCHAR
STARTCHAR E33F
ENCODING 58175
SWIDTH 822 0
DWIDTH 8 0
BBX 7 10 1 -2
BITMAP
EE
EE
EE
EE
00
00
EE
EE
EE
EE
ENDCHAR
STARTCHAR E340
ENCODING 58176
SWIDTH 822 0
DWIDTH 8 0
BBX 0 0 0 0
BITMAP
ENDCHAR
STARTCHAR E341
ENCODING 58177
SWIDTH 822 0
DWIDTH 8 0
BBX 0 0 0 0
BITMAP
ENDCHAR
STARTCHAR E342
ENCODING 58178
SWIDTH 822 0
DWIDTH 8 0
BBX 0 0 0 0
BITMAP
ENDCHAR
STARTCHAR E343
ENCODING 58179
SWIDTH 822 0
DWIDTH 8 0
BBX 0 0 0 0
BITMAP
ENDCHAR
STARTCHAR E344
ENCODING 58180
SWIDTH 822 0
DWIDTH 8 0
BBX 3 2 1 6
BITMAP
E0
E0
ENDCHAR
STARTCHAR E345
ENCODING 58181
SWIDTH 822 0
DWIDTH 8 0
BBX 3 2 1 6
BITMAP
E0
E0
ENDCHAR
STARTCHAR E346
ENCODING 58182
SWIDTH 822 0
DWIDTH 8 0
BBX 3 2 1 6
BITMAP
E0
E0
ENDCHAR
STARTCHAR E347
ENCODING 58183
SWIDTH 822 0
DWIDTH 8 0
BBX 3 2 1 6
BITMAP
E0
E0
ENDCHAR
STARTCHAR E348
ENCODING 58184
SWIDTH 822 0
DWIDTH 8 0
BBX 3 2 5 6
BITMAP
E0
E0
ENDCHAR
STARTCHAR E349
ENCODING 58185
SWIDTH 822 0
DWIDTH 8 0
BBX 3 2 5 6
BITMAP
E0
E0
ENDCHAR
STARTCHAR E34A
ENCODING 58186
SWIDTH 822 0
DWIDTH 8 0
BBX 3 2 5 6
BITMAP
E0
E0
ENDCHAR
STARTCHAR E34B
ENCODING 58187
SWIDTH 822 0
DWIDTH 8 0
BBX 3 2 5 6
BITMAP
E0
E0
ENDCHAR
STARTCHAR E34C
ENCODING 58188
SWIDTH 822 0
DWIDTH 8 0
BBX 7 2 1 6
BITMAP
EE
EE
ENDCHAR
STARTCHAR E34D
ENCODING 58189
SWIDTH 822 0
DWIDTH 8 0
BBX 7 2 1 6
BITMAP
EE
EE
ENDCHAR
STARTCHAR E34E
ENCODING 58190
SWIDTH 822 0
DWIDTH 8 0
BBX 7 2 1 6
BITMAP
EE
EE
ENDCHAR
STARTCHAR E34F
ENCODING 58191
SWIDTH 822 0
DWIDTH 8 0
BBX 7 2 1 6
BITMAP
EE
EE
ENDCHAR
STARTCHAR E350
ENCODING 58192
SWIDTH 822 0
DWIDTH 8 0
BBX 3 4 1 0
BITMAP
E0
E0
E0
E0
ENDCHAR
STARTCHAR E351
ENCODING 58193
SWIDTH 822 0
DWIDTH 8 0
BBX 3 4 1 0
BITMAP
E0
E0
E0
E0
ENDCHAR
STARTCHAR E352
ENCODING 58194
SWIDTH 822 0
DWIDTH 8 0
BBX 3 4 1 0
BITMAP
E0
E0
E0
E0
ENDCHAR
STARTCHAR E353
ENCODING 58195
SWIDTH 822 0
DWIDTH 8 0
BBX 3 4 1 0
BITMAP
E0
E0
E0
E0
ENDCHAR
STARTCHAR E354
ENCODING 58196
SWIDTH 822 0
DWIDTH 8 0
BBX 3 8 1 0
BITMAP
E0
E0
00
00
E0
E0
E0
E0
ENDCHAR
STARTCHAR E355
ENCODING 58197
SWIDTH 822 0
DWIDTH 8 0
BBX 3 8 1 0
BITMAP
E0
E0
00
00
E0
E0
E0
E0
ENDCHAR
STARTCHAR E356
ENCODING 58198
SWIDTH 822 0
DWIDTH 8 0
BBX 3 8 1 0
BITMAP
E0
E0
00
00
E0
E0
E0
E0
ENDCHAR
STARTCHAR E357
ENCODING 58199
SWIDTH 822 0
DWIDTH 8 0
BBX 3 8 1 0
BITMAP
E0
E0
00
00
E0
E0
E0
E0
ENDCHAR
STARTCHAR E358
ENCODING 58200
SWIDTH 822 0
DWIDTH 8 0
BBX 7 8 1 0
BITMAP
0E
0E
00
00
E0
E0
E0
E0
ENDCHAR
STARTCHAR E359
ENCODING 58201
SWIDTH 822 0
DWIDTH 8 0
BBX 7 8 1 0
BITMAP
0E
0E
00
00
E0
E0
E0
E0
ENDCHAR
STARTCHAR E35A
ENCODING 58202
SWIDTH 822 0
DWIDTH 8 0
BBX 7 8 1 0
BITMAP
0E
0E
00
00
E0
E0
E0
E0
ENDCHAR
STARTCHAR E35B
ENCODING 58203
SWIDTH 822 0
DWIDTH 8 0
BBX 7 8 1 0
BITMAP
0E
0E
00
00
E0
E0
E0
E0
ENDCHAR
STARTCHAR E35C
ENCODING 58204
SWIDTH 822 0
DWIDTH 8 0
BBX 7 8 1 0
BITMAP
EE
EE
00
00
E0
E0
E0
E0
ENDCHAR
STARTCHAR E35D
ENCODING 58205
SWIDTH 822 0
DWIDTH 8 0
BBX 7 8 1 0
BITMAP
EE
EE
00
00
E0
E0
E0
E0
ENDCHAR
STARTCHAR E35E
ENCODING 58206
SWIDTH 822 0
DWIDTH 8 0
BBX 7 8 1 0
BITMAP
EE
EE
00
00
E0
E0
E0
E0
ENDCHAR
STARTCHAR E35F
ENCODING 58207
SWIDTH 822 0
DWIDTH 8 0
BBX 7 8 1 0
BITMAP
EE
EE
00
00
E0
E0
E0
E0
ENDCHAR
STARTCHAR E360
ENCODING 58208
SWIDTH 822 0
DWIDTH 8 0
BBX 3 4 5 0
BITMAP
E0
E0
E0
E0
ENDCHAR
STARTCHAR E361
ENCODING 58209
SWIDTH 822 0
DWIDTH 8 0
BBX 0 0 0 0
BITMAP
ENDCHAR
STARTCHAR E362
ENCODING 58210
SWIDTH 822 0
DWIDTH 8 0
BBX 0 0 0 0
BITMAP
ENDCHAR
STARTCHAR E363
ENCODING 58211
SWIDTH 822 0
DWIDTH 8 0
BBX 0 0 0 0
BITMAP
ENDCHAR
STARTCHAR E364
ENCODING 58212
SWIDTH 822 0
DWIDTH 8 0
BBX 7 8 1 0
BITMAP
E0
E0
00
00
0E
0E
0E
0E
ENDCHAR
STARTCHAR E365
ENCODING 58213
SWIDTH 822 0
DWIDTH 8 0
BBX 7 8 1 0
BITMAP
E0
E0
00
00
0E
0E
0E
0E
ENDCHAR
STARTCHAR E366
ENCODING 58214
SWIDTH 822 0
DWIDTH 8 0
BBX 7 8 1 0
BITMAP
E0
E0
00
00
0E
0E
0E
0E
ENDCHAR
STARTCHAR E367
ENCODING 58215
SWIDTH 822 0
DWIDTH 8 0
BBX 7 8 1 0
BITMAP
E0
E0
00
00
0E
0E
0E
0E
ENDCHAR
STARTCHAR E368
ENCODING 58216
SWIDTH 822 0
DWIDTH 8 0
BBX 3 8 5 0
BITMAP
E0
E0
00
00
E0
E0
E0
E0
ENDCHAR
STARTCHAR E369
ENCODING 58217
SWIDTH 822 0
DWIDTH 8 0
BBX 3 8 5 0
BITMAP
E0
E0
00
00
E0
E0
E0
E0
ENDCHAR
STARTCHAR E36A
ENCODING 58218
SWIDTH 822 0
DWIDTH 8 0
BBX 3 8 5 0
BITMAP
E0
E0
00
00
E0
E0
E0
E0
ENDCHAR
STARTCHAR E36B
ENCODING 58219
SWIDTH 822 0
DWIDTH 8 0
BBX 3 8 5 0
BITMAP
E0
E0
00
00
E0
E0
E0
E0
ENDCHAR
STARTCHAR E36C
ENCODING 58220
SWIDTH 822 0
DWIDTH 8 0
BBX 7 8 1 0
BITMAP
EE
EE
00
00
0E
0E
0E
0E
ENDCHAR
STARTCHAR E36D
ENCODING 58221
SWIDTH 822 0
DWIDTH 8 0
BBX 7 8 1 0
BITMAP
EE
EE
00
00
0E
0E
0E
0E
ENDCHAR
STARTCHAR E36E
ENCODING 58222
SWIDTH 822 0
DWIDTH 8 0
BBX 7 8 1 0
BITMAP
EE
EE
00
00
0E
0E
0E
0E
ENDCHAR
STARTCHAR E36F
ENCODING 58223
SWIDTH 822 0
DWIDTH 8 0
BBX 7 8 1 0
BITMAP
EE
EE
00
00
0E
0E
0E
0E
ENDCHAR
STARTCHAR E370
ENCODING 58224
SWIDTH 822 0
DWIDTH 8 0
BBX 7 4 1 0
BITMAP
EE
EE
EE
EE
ENDCHAR
STARTCHAR E371
ENCODING 58225
SWIDTH 822 0
DWIDTH 8 0
BBX 7 4 1 0
BITMAP
EE
EE
EE
EE
ENDCHAR
STARTCHAR E372
ENCODING 58226
SWIDTH 822 0
DWIDTH 8 0
BBX 7 4 1 0
BITMAP
EE
EE
EE
EE
ENDCHAR
STARTCHAR E373
ENCODING 58227
SWIDTH 822 0
DWIDTH 8 0
BBX 7 4 1 0
BITMAP
EE
EE
EE
EE
ENDCHAR
STARTCHAR E374
ENCODING 58228
SWIDTH 822 0
DWIDTH 8 0
BBX 7 8 1 0
BITMAP
E0
E0
00
00
EE
EE
EE
EE
ENDCHAR
STARTCHAR E375
ENCODING 58229
SWIDTH 822 0
DWIDTH 8 0
BBX 7 8 1 0
BITMAP
E0
E0
00
00
EE
EE
EE
EE
ENDCHAR
STARTCHAR E376
ENCODING 58230
SWIDTH 822 0
DWIDTH 8 0
BBX 7 8 1 0
BITMAP
E0
E0
00
00
EE
EE
EE
EE
ENDCHAR
STARTCHAR E377
ENCODING 58231
SWIDTH 822 0
DWIDTH 8 0
BBX 7 8 1 0
BITMAP
E0
E0
00
00
EE
EE
EE
EE
ENDCHAR
STARTCHAR E378
ENCODING 58232
SWIDTH 822 0
DWIDTH 8 0
BBX 7 8 1 0
BITMAP
0E
0E
00
00
EE
EE
EE
EE
ENDCHAR
STARTCHAR E379
ENCODING 58233
SWIDTH 822 0
DWIDTH 8 0
BBX 7 8 1 0
BITMAP
0E
0E
00
00
EE
EE
EE
EE
ENDCHAR
STARTCHAR E37A
ENCODING 58234
SWIDTH 822 0
DWIDTH 8 0
BBX 7 8 1 0
BITMAP
0E
0E
00
00
EE
EE
EE
EE
ENDCHAR
STARTCHAR E37B
ENCODING 58235
SWIDTH 822 0
DWIDTH 8 0
BBX 7 8 1 0
BITMAP
0E
0E
00
00
EE
EE
EE
EE
ENDCHAR
STARTCHAR E37C
ENCODING 58236
SWIDTH 822 0
DWIDTH 8 0
BBX 7 8 1 0
BITMAP
EE
EE
00
00
EE
EE
EE
EE
ENDCHAR
STARTCHAR E37D
ENCODING 58237
SWIDTH 822 0
DWIDTH 8 0
BBX 7 8 1 0
BITMAP
EE
EE
00
00
EE
EE
EE
EE
ENDCHAR
STARTCHAR E37E
ENCODING 58238
SWIDTH 822 0
DWIDTH 8 0
BBX 7 8 1 0
BITMAP
EE
EE
00
00
EE
EE
EE
EE
ENDCHAR
STARTCHAR E37F
ENCODING 58239
SWIDTH 822 0
DWIDTH 8 0
BBX 7 8 1 0
BITMAP
EE
EE
00
00
EE
EE
EE
EE
ENDCHAR
ENDFONT
